SplineFontDB: 3.0
FontName: Paytone
FullName: Paytone
FamilyName: Paytone
Weight: Thin
Copyright: Copyright (c) 2011 by vernon adams. All rights reserved.
Version: 1.000
ItalicAngle: 0
UnderlinePosition: -50
UnderlineWidth: 50
Ascent: 750
Descent: 250
sfntRevision: 0x00010000
LayerCount: 2
Layer: 0 1 "Back"  1
Layer: 1 1 "Fore"  0
NeedsXUIDChange: 1
XUID: [1021 759 1887733602 13349737]
FSType: 0
OS2Version: 3
OS2_WeightWidthSlopeOnly: 0
OS2_UseTypoMetrics: 1
CreationTime: 1302081714
ModificationTime: 1302188211
PfmFamily: 81
TTFWeight: 100
TTFWidth: 5
LineGap: 0
VLineGap: 0
Panose: 0 0 0 0 0 0 0 0 0 0
OS2TypoAscent: 0
OS2TypoAOffset: 1
OS2TypoDescent: 0
OS2TypoDOffset: 1
OS2TypoLinegap: 0
OS2WinAscent: -76
OS2WinAOffset: 1
OS2WinDescent: -162
OS2WinDOffset: 1
HheadAscent: -403
HheadAOffset: 1
HheadDescent: 161
HheadDOffset: 1
OS2SubXSize: 700
OS2SubYSize: 650
OS2SubXOff: 0
OS2SubYOff: 140
OS2SupXSize: 700
OS2SupYSize: 650
OS2SupXOff: 0
OS2SupYOff: 477
OS2StrikeYSize: 50
OS2StrikeYPos: 250
OS2Vendor: 'pyrs'
OS2CodePages: 00000001.00000000
OS2UnicodeRanges: 00000003.08000000.14000000.00000000
Lookup: 258 0 0 "'kern' Horizontal Kerning in Latin lookup 0"  {"'kern' Horizontal Kerning in Latin lookup 0 per glyph data 0"  "'kern' Horizontal Kerning in Latin lookup 0 kerning class 1"  } ['kern' ('latn' <'dflt' > ) ]
MarkAttachClasses: 1
DEI: 91125
KernClass2: 2+ 3 "'kern' Horizontal Kerning in Latin lookup 0 kerning class 1" 
 5 b o p
 5 v w x
 5 v w x
 13 d g o c e q a
 0 {} -6 {} 0 {} 0 {} 0 {} -20 {}
TtTable: prep
PUSHW_1
 511
SCANCTRL
PUSHB_1
 1
SCANTYPE
SVTCA[y-axis]
MPPEM
PUSHB_1
 8
LT
IF
PUSHB_2
 1
 1
INSTCTRL
EIF
PUSHB_2
 70
 6
CALL
IF
POP
PUSHB_1
 16
EIF
MPPEM
PUSHB_1
 20
GT
IF
POP
PUSHB_1
 128
EIF
SCVTCI
PUSHB_1
 6
CALL
NOT
IF
SVTCA[y-axis]
PUSHB_1
 4
DUP
RCVT
PUSHB_1
 3
CALL
WCVTP
PUSHB_1
 5
DUP
RCVT
PUSHB_3
 4
 13
 2
CALL
PUSHB_1
 3
CALL
WCVTP
PUSHB_1
 6
DUP
RCVT
PUSHB_3
 5
 13
 2
CALL
PUSHB_1
 3
CALL
WCVTP
PUSHB_1
 7
DUP
RCVT
PUSHB_3
 6
 42
 2
CALL
PUSHB_1
 3

StartChar: b
Encoding: 98 98 4
Width: 749
Flags: W
HStem: -15 166<380.633 489> 350 166<380.708 488.5>
VStem: 92 211<188.912 250 254 311.531> 502 209<189.133 311.415>
LayerCount: 2
Fore
SplineSet
92 0 m 1,0,-1
 303 0 l 1,1,-1
 303 93 l 1,2,3
 330 37 330 37 373 11 c 128,-1,4
 416 -15 416 -15 467 -15 c 0,5,6
 511 -15 511 -15 555 4 c 128,-1,7
 599 23 599 23 633.5 57.5 c 128,-1,8
 668 92 668 92 689.5 141 c 128,-1,9
 711 190 711 190 711 250 c 256,10,11
 711 310 711 310 689.5 359.5 c 128,-1,12
 668 409 668 409 633 443.5 c 128,-1,13
 598 478 598 478 554.5 497 c 128,-1,14
 511 516 511 516 466 516 c 0,15,16
 416 516 416 516 373 490 c 128,-1,17
 330 464 330 464 303 407 c 1,18,-1
 303 691 l 1,19,-1
 92 659 l 1,20,-1
 92 0 l 1,0,-1
303 254 m 1,21,22
 304 273 304 273 312 290.5 c 128,-1,23
 320 308 320 308 333.5 321 c 128,-1,24
 347 334 347 334 364.5 342 c 128,-1,25
 382 350 382 350 402 350 c 0,26,27
 423 350 423 350 441 342 c 128,-1,28
 459 334 459 334 472.5 320.5 c 128,-1,29
 486 307 486 307 494 288.5 c 128,-1,30
 502 270 502 270 502 250 c 256,31,32
 502 230 502 230 494 212 c 128,-1,33
 486 194 486 194 472.5 180.5 c 128,-1,34
 459 167 459 167 441 159 c 128,-1,35
 423 151 423 151 402 151 c 0,36,37
 382 151 382 151 364 159 c 128,-1,38
 346 167 346 167 332.5 180.5 c 128,-1,39
 319 194 319 194 311 212 c 128,-1,40
 303 230 303 230 303 250 c 2,41,-1
 303 254 l 1,21,22
EndSplineSet
Validated: 9
EndChar

StartChar: d
Encoding: 100 100 5
Width: 747
Flags: W
HStem: -15 166<258 366.191> 350 166<259 366.877>
VStem: 36 210<189.133 311.415>
LayerCount: 2
Fore
SplineSet
445 0 m 1,0,-1
 656 0 l 1,1,-1
 656 691 l 1,2,-1
 445 659 l 1,3,-1
 445 407 l 1,4,5
 418 464 418 464 374.5 490 c 128,-1,6
 331 516 331 516 281 516 c 0,7,8
 237 516 237 516 193 497 c 128,-1,9
 149 478 149 478 114 443.5 c 128,-1,10
 79 409 79 409 57.5 359.5 c 128,-1,11
 36 310 36 310 36 250 c 256,12,13
 36 190 36 190 57.5 141 c 128,-1,14
 79 92 79 92 114 57.5 c 128,-1,15
 149 23 149 23 192.5 4 c 128,-1,16
 236 -15 236 -15 280 -15 c 0,17,18
 330 -15 330 -15 374 11 c 128,-1,19
 418 37 418 37 445 93 c 1,20,-1
 445 0 l 1,0,-1
445 250 m 2,21,22
 445 230 445 230 437 212 c 128,-1,23
 429 194 429 194 415.5 180.5 c 128,-1,24
 402 167 402 167 384 159 c 128,-1,25
 366 151 366 151 346 151 c 256,26,27
 326 151 326 151 307.5 159 c 128,-1,28
 289 167 289 167 275.5 180.5 c 128,-1,29
 262 194 262 194 254 212 c 128,-1,30
 246 230 246 230 246 250 c 256,31,32
 246 270 246 270 254 288.5 c 128,-1,33
 262 307 262 307 275.5 320.5 c 128,-1,34
 289 334 289 334 307.5 342 c 128,-1,35
 326 350 326 350 346 350 c 0,36,37
 365 350 365 350 382.5 342 c 128,-1,38
 400 334 400 334 413.5 321 c 128,-1,39
 427 308 427 308 435.5 290.5 c 128,-1,40
 444 273 444 273 445 254 c 1,41,-1
 445 250 l 2,21,22
EndSplineSet
Validated: 9
EndChar

StartChar: g
Encoding: 103 103 6
Width: 745
Flags: W
HStem: -234 168<316.771 420.399> 0 151<266 391.692> 350 166<267 375.256>
VStem: 44 210<189.457 311.415>
LayerCount: 2
Fore
SplineSet
297 -224 m 1,0,1
 319 -228 319 -228 340.5 -231 c 128,-1,2
 362 -234 362 -234 383 -234 c 0,3,4
 443 -234 443 -234 494.5 -214 c 128,-1,5
 546 -194 546 -194 583.5 -151 c 128,-1,6
 621 -108 621 -108 642.5 -39.5 c 128,-1,7
 664 29 664 29 664 127 c 2,8,-1
 664 485 l 1,9,-1
 453 501 l 1,10,-1
 453 416 l 1,11,12
 424 467 424 467 380.5 491.5 c 128,-1,13
 337 516 337 516 289 516 c 0,14,15
 245 516 245 516 201 497 c 128,-1,16
 157 478 157 478 122 443.5 c 128,-1,17
 87 409 87 409 65.5 359.5 c 128,-1,18
 44 310 44 310 44 250 c 0,19,20
 44 192 44 192 65.5 145.5 c 128,-1,21
 87 99 87 99 122 67 c 128,-1,22
 157 35 157 35 200.5 17.5 c 128,-1,23
 244 0 244 0 288 0 c 0,24,25
 339 0 339 0 385.5 19 c 128,-1,26
 432 38 432 38 463 83 c 1,27,28
 459 49 459 49 453 21.5 c 128,-1,29
 447 -6 447 -6 435.5 -25.5 c 128,-1,30
 424 -45 424 -45 406.5 -55.5 c 128,-1,31
 389 -66 389 -66 362 -66 c 0,32,33
 342 -66 342 -66 318 -60 c 1,34,-1
 297 -224 l 1,0,1
453 246 m 1,35,36
 452 226 452 226 443.5 209 c 128,-1,37
 435 192 435 192 421.5 179 c 128,-1,38
 408 166 408 166 390.5 158.5 c 128,-1,39
 373 151 373 151 354 151 c 0,40,41
 334 151 334 151 315.5 159 c 128,-1,42
 297 167 297 167 283.5 180.5 c 128,-1,43
 270 194 270 194 262 212 c 128,-1,44
 254 230 254 230 254 250 c 256,45,46
 254 270 254 270 262 288.5 c 128,-1,47
 270 307 270 307 283.5 320.5 c 128,-1,48
 297 334 297 334 315.5 342 c 128,-1,49
 334 350 334 350 354 350 c 0,50,51
 373 350 373 350 390.5 342 c 128,-1,52
 408 334 408 334 421.5 321 c 128,-1,53
 435 308 435 308 443.5 290.5 c 128,-1,54
 452 273 452 273 453 254 c 1,55,-1
 453 246 l 1,35,36
EndSplineSet
Validated: 9
EndChar

StartChar: o
Encoding: 111 111 7
Width: 706
Flags: W
HStem: -15 167<298.989 408.396> 351 165<298.382 408.514>
VStem: 65 200<187.339 316.254> 444 197<188.913 314.404>
LayerCount: 2
Fore
SplineSet
354 152 m 0,0,1
 335 152 335 152 319 160 c 128,-1,2
 303 168 303 168 291 181.5 c 128,-1,3
 279 195 279 195 272 213 c 128,-1,4
 265 231 265 231 265 251 c 0,5,6
 265 292 265 292 290.5 321.5 c 128,-1,7
 316 351 316 351 354 351 c 0,8,9
 372 351 372 351 388 343 c 128,-1,10
 404 335 404 335 416.5 321.5 c 128,-1,11
 429 308 429 308 436.5 289.5 c 128,-1,12
 444 271 444 271 444 251 c 256,13,14
 444 231 444 231 436.5 213 c 128,-1,15
 429 195 429 195 416.5 181.5 c 128,-1,16
 404 168 404 168 388 160 c 128,-1,17
 372 152 372 152 354 152 c 0,0,1
65 251 m 256,18,19
 65 186 65 186 89.5 136 c 128,-1,20
 114 86 114 86 154.5 52.5 c 128,-1,21
 195 19 195 19 247 2 c 128,-1,22
 299 -15 299 -15 353 -15 c 256,23,24
 407 -15 407 -15 458.5 2 c 128,-1,25
 510 19 510 19 550.5 52.5 c 128,-1,26
 591 86 591 86 616 136 c 128,-1,27
 641 186 641 186 641 251 c 256,28,29
 641 316 641 316 616 365.5 c 128,-1,30
 591 415 591 415 550.5 448.5 c 128,-1,31
 510 482 510 482 458.5 499 c 128,-1,32
 407 516 407 516 354 516 c 0,33,34
 300 516 300 516 248 499 c 128,-1,35
 196 482 196 482 155.5 448.5 c 128,-1,36
 115 415 115 415 90 365.5 c 128,-1,37
 65 316 65 316 65 251 c 256,18,19
EndSplineSet
Validated: 9
EndChar

StartChar: c
Encoding: 99 99 8
Width: 562
Flags: W
HStem: -15 163<301.196 439.06> 352 164<301.412 432.723>
VStem: 58 208<184.044 316.507>
LayerCount: 2
Fore
SplineSet
461 164 m 1,0,1
 409 148 409 148 367 148 c 0,2,3
 322 148 322 148 294 176.5 c 128,-1,4
 266 205 266 205 266 250 c 0,5,6
 266 294 266 294 293 323 c 128,-1,7
 320 352 320 352 365 352 c 0,8,9
 387 352 387 352 410.5 348 c 128,-1,10
 434 344 434 344 463 335 c 1,11,-1
 483 468 l 1,12,13
 442 493 442 493 406 504.5 c 128,-1,14
 370 516 370 516 329 516 c 0,15,16
 274 516 274 516 225 496.5 c 128,-1,17
 176 477 176 477 139 442 c 128,-1,18
 102 407 102 407 80 358 c 128,-1,19
 58 309 58 309 58 250 c 0,20,21
 58 188 58 188 80.5 138.5 c 128,-1,22
 103 89 103 89 140.5 55 c 128,-1,23
 178 21 178 21 227 3 c 128,-1,24
 276 -15 276 -15 329 -15 c 0,25,26
 371 -15 371 -15 406.5 -4.5 c 128,-1,27
 442 6 442 6 481 25 c 1,28,-1
 461 164 l 1,0,1
EndSplineSet
Validated: 9
EndChar

StartChar: e
Encoding: 101 101 9
Width: 638
Flags: W
HStem: -15 143<300.063 488.449> 387 129<287.94 392.926>
VStem: 62 198<290 357.812>
LayerCount: 2
Fore
SplineSet
525 163 m 1,0,1
 511 158 511 158 493.5 151.5 c 128,-1,2
 476 145 476 145 456.5 140 c 128,-1,3
 437 135 437 135 417 131.5 c 128,-1,4
 397 128 397 128 378 128 c 0,5,6
 341 128 341 128 311.5 142.5 c 128,-1,7
 282 157 282 157 268 198 c 1,8,-1
 568 238 l 1,9,10
 569 243 569 243 569.5 250.5 c 128,-1,11
 570 258 570 258 570 263 c 0,12,13
 570 327 570 327 550.5 375 c 128,-1,14
 531 423 531 423 499 454 c 128,-1,15
 467 485 467 485 425.5 500.5 c 128,-1,16
 384 516 384 516 339 516 c 0,17,18
 288 516 288 516 238.5 498 c 128,-1,19
 189 480 189 480 149.5 446 c 128,-1,20
 110 412 110 412 86 362.5 c 128,-1,21
 62 313 62 313 62 250 c 256,22,23
 62 187 62 187 86 138 c 128,-1,24
 110 89 110 89 149.5 55 c 128,-1,25
 189 21 189 21 240 3 c 128,-1,26
 291 -15 291 -15 345 -15 c 0,27,28
 459 -15 459 -15 550 26 c 1,29,-1
 525 163 l 1,0,1
260 290 m 1,30,31
 262 341 262 341 286 364 c 128,-1,32
 310 387 310 387 339 387 c 0,33,34
 363 387 363 387 384.5 372.5 c 128,-1,35
 406 358 406 358 415 324 c 1,36,-1
 260 290 l 1,30,31
EndSplineSet
Validated: 9
EndChar

StartChar: m
Encoding: 109 109 10
Width: 1107
Flags: W
HStem: 348 168<366.5 499.5 735.688 848.5>
LayerCount: 2
Fore
SplineSet
91 0 m 1,0,-1
 302 0 l 1,1,-1
 302 254 l 1,2,3
 304 299 304 299 328 323.5 c 128,-1,4
 352 348 352 348 381 348 c 0,5,6
 407 348 407 348 429 324.5 c 128,-1,7
 451 301 451 301 451 250 c 2,8,-1
 451 0 l 1,9,-1
 660 0 l 1,10,-1
 660 250 l 2,11,12
 660 273 660 273 667 291 c 128,-1,13
 674 309 674 309 685.5 322 c 128,-1,14
 697 335 697 335 711.5 341.5 c 128,-1,15
 726 348 726 348 740 348 c 0,16,17
 766 348 766 348 787.5 324.5 c 128,-1,18
 809 301 809 301 809 250 c 2,19,-1
 809 0 l 1,20,-1
 1020 0 l 1,21,-1
 1020 250 l 2,22,23
 1020 313 1020 313 1004.5 362.5 c 128,-1,24
 989 412 989 412 962.5 446 c 128,-1,25
 936 480 936 480 901.5 498 c 128,-1,26
 867 516 867 516 830 516 c 0,27,28
 803 516 803 516 775 509 c 128,-1,29
 747 502 747 502 722.5 486.5 c 128,-1,30
 698 471 698 471 678.5 446 c 128,-1,31
 659 421 659 421 647 384 c 1,32,33
 623 449 623 449 574.5 482.5 c 128,-1,34
 526 516 526 516 473 516 c 0,35,36
 423 516 423 516 377 486.5 c 128,-1,37
 331 457 331 457 302 392 c 1,38,-1
 302 516 l 1,39,-1
 91 484 l 1,40,-1
 91 0 l 1,0,-1
EndSplineSet
Validated: 9
EndChar

StartChar: u
Encoding: 117 117 11
Width: 691
Flags: W
HStem: -15 164<302.016 397.483>
LayerCount: 2
Fore
SplineSet
78 215 m 2,0,1
 78 158 78 158 101.5 115 c 128,-1,2
 125 72 125 72 163 43 c 128,-1,3
 201 14 201 14 249.5 -0.5 c 128,-1,4
 298 -15 298 -15 348 -15 c 256,5,6
 398 -15 398 -15 446 -0.5 c 128,-1,7
 494 14 494 14 531 42.5 c 128,-1,8
 568 71 568 71 590.5 114.5 c 128,-1,9
 613 158 613 158 613 215 c 2,10,-1
 613 501 l 1,11,-1
 411 501 l 1,12,-1
 411 208 l 2,13,14
 411 180 411 180 390.5 164.5 c 128,-1,15
 370 149 370 149 349 149 c 0,16,17
 326 149 326 149 305 164.5 c 128,-1,18
 284 180 284 180 284 208 c 2,19,-1
 284 501 l 1,20,-1
 78 501 l 1,21,-1
 78 215 l 2,0,1
EndSplineSet
Validated: 9
EndChar

StartChar: t
Encoding: 116 116 12
Width: 495
Flags: W
HStem: -15 162<268.5 410.141>
LayerCount: 2
Fore
SplineSet
109 185 m 2,0,1
 109 132 109 132 123 94 c 128,-1,2
 137 56 137 56 161.5 32 c 128,-1,3
 186 8 186 8 218.5 -3.5 c 128,-1,4
 251 -15 251 -15 286 -15 c 0,5,6
 324 -15 324 -15 363 -7 c 128,-1,7
 402 1 402 1 437 19 c 1,8,-1
 429 158 l 1,9,10
 418 153 418 153 406 150 c 128,-1,11
 394 147 394 147 383 147 c 0,12,13
 358 147 358 147 339 159 c 128,-1,14
 320 171 320 171 320 199 c 2,15,-1
 320 377 l 1,16,-1
 435 377 l 1,17,-1
 435 501 l 1,18,-1
 320 501 l 1,19,-1
 320 691 l 1,20,-1
 110 622 l 1,21,-1
 110 501 l 1,22,-1
 46 501 l 1,23,-1
 46 377 l 1,24,-1
 110 377 l 1,25,-1
 109 185 l 2,0,1
EndSplineSet
Validated: 9
EndChar

StartChar: l
Encoding: 108 108 13
Width: 442
Flags: W
HStem: -15 162<243.5 372.264>
LayerCount: 2
Fore
SplineSet
84 185 m 2,0,1
 84 132 84 132 98.5 94 c 128,-1,2
 113 56 113 56 137.5 32 c 128,-1,3
 162 8 162 8 194 -3.5 c 128,-1,4
 226 -15 226 -15 261 -15 c 0,5,6
 297 -15 297 -15 330.5 -7 c 128,-1,7
 364 1 364 1 397 19 c 1,8,-1
 386 158 l 1,9,10
 364 147 364 147 343 147 c 256,11,12
 322 147 322 147 308.5 159 c 128,-1,13
 295 171 295 171 295 199 c 2,14,-1
 295 691 l 1,15,-1
 84 659 l 1,16,-1
 84 185 l 2,0,1
EndSplineSet
Validated: 9
EndChar

StartChar: q
Encoding: 113 113 14
Width: 747
Flags: W
HStem: -15 166<260 368.873> 350 166<261 368.877>
VStem: 38 210<189.133 311.415>
LayerCount: 2
Fore
SplineSet
447 -170 m 1,0,-1
 658 -130 l 1,1,-1
 658 484 l 1,2,-1
 447 516 l 1,3,-1
 447 407 l 1,4,5
 420 464 420 464 376.5 490 c 128,-1,6
 333 516 333 516 283 516 c 0,7,8
 239 516 239 516 195 497 c 128,-1,9
 151 478 151 478 116 443.5 c 128,-1,10
 81 409 81 409 59.5 359.5 c 128,-1,11
 38 310 38 310 38 250 c 256,12,13
 38 190 38 190 59.5 141 c 128,-1,14
 81 92 81 92 116 57.5 c 128,-1,15
 151 23 151 23 194.5 4 c 128,-1,16
 238 -15 238 -15 282 -15 c 0,17,18
 333 -15 333 -15 376.5 11 c 128,-1,19
 420 37 420 37 447 93 c 1,20,-1
 447 -170 l 1,0,-1
447 246 m 1,21,22
 446 226 446 226 437.5 209 c 128,-1,23
 429 192 429 192 415.5 179 c 128,-1,24
 402 166 402 166 384.5 158.5 c 128,-1,25
 367 151 367 151 348 151 c 0,26,27
 328 151 328 151 309.5 159 c 128,-1,28
 291 167 291 167 277.5 180.5 c 128,-1,29
 264 194 264 194 256 212 c 128,-1,30
 248 230 248 230 248 250 c 256,31,32
 248 270 248 270 256 288.5 c 128,-1,33
 264 307 264 307 277.5 320.5 c 128,-1,34
 291 334 291 334 309.5 342 c 128,-1,35
 328 350 328 350 348 350 c 0,36,37
 367 350 367 350 384.5 342 c 128,-1,38
 402 334 402 334 415.5 321 c 128,-1,39
 429 308 429 308 437.5 290.5 c 128,-1,40
 446 273 446 273 447 254 c 1,41,-1
 447 246 l 1,21,22
EndSplineSet
Validated: 9
EndChar

StartChar: k
Encoding: 107 107 15
Width: 714
Flags: W
HStem: -14 168<554.678 638>
LayerCount: 2
Fore
SplineSet
92 0 m 1,0,-1
 303 0 l 1,1,-1
 303 138 l 1,2,-1
 362 185 l 1,3,4
 374 138 374 138 389 101.5 c 128,-1,5
 404 65 404 65 428.5 39 c 128,-1,6
 453 13 453 13 490 -0.5 c 128,-1,7
 527 -14 527 -14 583 -14 c 0,8,9
 608 -14 608 -14 638 -11 c 1,10,-1
 658 159 l 1,11,12
 646 157 646 157 635.5 155.5 c 128,-1,13
 625 154 625 154 615 154 c 0,14,15
 588 154 588 154 571.5 163 c 128,-1,16
 555 172 555 172 544 189.5 c 128,-1,17
 533 207 533 207 526.5 232 c 128,-1,18
 520 257 520 257 514 289 c 1,19,-1
 676 402 l 1,20,-1
 560 558 l 1,21,-1
 303 348 l 1,22,-1
 303 691 l 1,23,-1
 92 659 l 1,24,-1
 92 0 l 1,0,-1
EndSplineSet
Validated: 9
EndChar

StartChar: r
Encoding: 114 114 16
Width: 513
Flags: W
LayerCount: 2
Fore
SplineSet
87 0 m 1,0,-1
 298 0 l 1,1,-1
 298 260 l 2,2,3
 298 300 298 300 339.5 322.5 c 128,-1,4
 381 345 381 345 482 345 c 1,5,-1
 452 516 l 1,6,7
 407 516 407 516 365.5 486.5 c 128,-1,8
 324 457 324 457 298 392 c 1,9,-1
 298 516 l 1,10,-1
 87 484 l 1,11,-1
 87 0 l 1,0,-1
EndSplineSet
Validated: 9
EndChar

StartChar: f
Encoding: 102 102 17
Width: 509
Flags: W
HStem: 609 159<277 416.242>
LayerCount: 2
Fore
SplineSet
113 0 m 1,0,-1
 324 0 l 1,1,-1
 324 377 l 1,2,-1
 450 377 l 1,3,-1
 450 501 l 1,4,-1
 324 501 l 1,5,-1
 324 548 l 2,6,7
 324 583 324 583 341 596 c 128,-1,8
 358 609 358 609 381 609 c 0,9,10
 398 609 398 609 417 604 c 128,-1,11
 436 599 436 599 452 594 c 1,12,-1
 459 730 l 1,13,14
 419 747 419 747 377.5 757.5 c 128,-1,15
 336 768 336 768 296 768 c 0,16,17
 258 768 258 768 225 757 c 128,-1,18
 192 746 192 746 167 721 c 128,-1,19
 142 696 142 696 127.5 655 c 128,-1,20
 113 614 113 614 113 555 c 2,21,-1
 113 501 l 1,22,-1
 51 501 l 1,23,-1
 51 377 l 1,24,-1
 113 377 l 1,25,-1
 113 0 l 1,0,-1
EndSplineSet
Validated: 9
EndChar

StartChar: H
Encoding: 72 72 18
Width: 843
Flags: W
LayerCount: 2
Fore
SplineSet
90 0 m 1,0,-1
 315 0 l 1,1,-1
 315 270 l 1,2,-1
 528 270 l 1,3,-1
 528 0 l 1,4,-1
 753 0 l 1,5,-1
 753 672 l 1,6,-1
 528 672 l 1,7,-1
 528 414 l 1,8,-1
 315 414 l 1,9,-1
 315 672 l 1,10,-1
 90 672 l 1,11,-1
 90 0 l 1,0,-1
EndSplineSet
Validated: 9
EndChar

StartChar: L
Encoding: 76 76 19
Width: 571
Flags: W
LayerCount: 2
Fore
SplineSet
90 0 m 1,0,-1
 305 0 l 1,1,-1
 544 0 l 1,2,-1
 544 148 l 1,3,-1
 305 148 l 1,4,-1
 305 672 l 1,5,-1
 90 672 l 1,6,-1
 90 0 l 1,0,-1
EndSplineSet
Validated: 9
EndChar

StartChar: N
Encoding: 78 78 20
Width: 832
Flags: W
LayerCount: 2
Fore
SplineSet
90 0 m 1,0,-1
 268 0 l 1,1,-1
 268 359 l 1,2,-1
 543 0 l 1,3,-1
 743 0 l 1,4,-1
 743 672 l 1,5,-1
 565 672 l 1,6,-1
 565 318 l 1,7,-1
 290 672 l 1,8,-1
 90 672 l 1,9,-1
 90 0 l 1,0,-1
EndSplineSet
Validated: 9
EndChar

StartChar: E
Encoding: 69 69 21
Width: 667
Flags: W
LayerCount: 2
Fore
SplineSet
93 0 m 1,0,-1
 575 0 l 1,1,-1
 575 151 l 1,2,-1
 335 151 l 1,3,-1
 335 285 l 1,4,-1
 554 285 l 1,5,-1
 554 411 l 1,6,-1
 335 411 l 1,7,-1
 335 521 l 1,8,-1
 575 521 l 1,9,-1
 575 672 l 1,10,-1
 93 672 l 1,11,-1
 93 0 l 1,0,-1
EndSplineSet
Validated: 9
EndChar

StartChar: F
Encoding: 70 70 22
Width: 594
Flags: W
LayerCount: 2
Fore
SplineSet
89 -10 m 1,0,-1
 304 0 l 1,1,-1
 304 271 l 1,2,-1
 543 271 l 1,3,-1
 543 398 l 1,4,-1
 304 398 l 1,5,-1
 304 521 l 1,6,-1
 563 521 l 1,7,-1
 563 672 l 1,8,-1
 89 672 l 1,9,-1
 89 -10 l 1,0,-1
EndSplineSet
Validated: 9
EndChar

StartChar: h
Encoding: 104 104 23
Width: 730
Flags: W
HStem: 350 166<388.551 488>
LayerCount: 2
Fore
SplineSet
92 0 m 1,0,-1
 303 0 l 1,1,-1
 303 243 l 2,2,3
 303 264 303 264 310.5 283.5 c 128,-1,4
 318 303 318 303 331.5 318 c 128,-1,5
 345 333 345 333 363.5 341.5 c 128,-1,6
 382 350 382 350 403 350 c 0,7,8
 432 350 432 350 452.5 320.5 c 128,-1,9
 473 291 473 291 473 250 c 2,10,-1
 473 0 l 1,11,-1
 683 0 l 1,12,-1
 683 254 l 2,13,14
 683 317 683 317 664.5 366 c 128,-1,15
 646 415 646 415 615.5 448.5 c 128,-1,16
 585 482 585 482 546.5 499 c 128,-1,17
 508 516 508 516 468 516 c 0,18,19
 419 516 419 516 375 486 c 128,-1,20
 331 456 331 456 303 390 c 1,21,-1
 303 691 l 1,22,-1
 92 659 l 1,23,-1
 92 0 l 1,0,-1
EndSplineSet
Validated: 9
EndChar

StartChar: O
Encoding: 79 79 24
Width: 862
Flags: W
HStem: -15 181<357.088 504.957> 512 179<357.088 504.957>
VStem: 63 224<242.51 435.486> 575 224<242.51 435.486>
LayerCount: 2
Fore
SplineSet
63 338 m 256,0,1
 63 272 63 272 86 209 c 128,-1,2
 109 146 109 146 155.5 96 c 128,-1,3
 202 46 202 46 270.5 15.5 c 128,-1,4
 339 -15 339 -15 431 -15 c 256,5,6
 523 -15 523 -15 592 15.5 c 128,-1,7
 661 46 661 46 707 96 c 128,-1,8
 753 146 753 146 776 209 c 128,-1,9
 799 272 799 272 799 338 c 256,10,11
 799 404 799 404 776 467 c 128,-1,12
 753 530 753 530 707 580 c 128,-1,13
 661 630 661 630 592 660.5 c 128,-1,14
 523 691 523 691 431 691 c 256,15,16
 339 691 339 691 270.5 660.5 c 128,-1,17
 202 630 202 630 155.5 580 c 128,-1,18
 109 530 109 530 86 467 c 128,-1,19
 63 404 63 404 63 338 c 256,0,1
431 166 m 256,20,21
 395 166 395 166 368 181 c 128,-1,22
 341 196 341 196 323 220 c 128,-1,23
 305 244 305 244 296 275 c 128,-1,24
 287 306 287 306 287 339 c 256,25,26
 287 372 287 372 296 403 c 128,-1,27
 305 434 305 434 323 458 c 128,-1,28
 341 482 341 482 368 497 c 128,-1,29
 395 512 395 512 431 512 c 256,30,31
 467 512 467 512 494 497 c 128,-1,32
 521 482 521 482 539 458 c 128,-1,33
 557 434 557 434 566 403 c 128,-1,34
 575 372 575 372 575 339 c 256,35,36
 575 306 575 306 566 275 c 128,-1,37
 557 244 557 244 539 220 c 128,-1,38
 521 196 521 196 494 181 c 128,-1,39
 467 166 467 166 431 166 c 256,20,21
EndSplineSet
Validated: 9
EndChar

StartChar: D
Encoding: 68 68 25
Width: 818
Flags: W
VStem: 532 225<251.549 423.957>
LayerCount: 2
Fore
SplineSet
90 0 m 1,0,-1
 389 0 l 2,1,2
 480 0 480 0 549 29 c 128,-1,3
 618 58 618 58 664.5 106 c 128,-1,4
 711 154 711 154 734 215 c 128,-1,5
 757 276 757 276 757 341 c 0,6,7
 757 403 757 403 734 462.5 c 128,-1,8
 711 522 711 522 664.5 568.5 c 128,-1,9
 618 615 618 615 549 643.5 c 128,-1,10
 480 672 480 672 389 672 c 2,11,-1
 90 672 l 1,12,-1
 90 0 l 1,0,-1
311 180 m 1,13,-1
 311 492 l 1,14,-1
 389 492 l 2,15,16
 425 492 425 492 452 479 c 128,-1,17
 479 466 479 466 496.5 444.5 c 128,-1,18
 514 423 514 423 523 396.5 c 128,-1,19
 532 370 532 370 532 343 c 0,20,21
 532 312 532 312 523 282.5 c 128,-1,22
 514 253 514 253 496 230.5 c 128,-1,23
 478 208 478 208 451 194 c 128,-1,24
 424 180 424 180 389 180 c 2,25,-1
 311 180 l 1,13,-1
EndSplineSet
Validated: 9
EndChar

StartChar: C
Encoding: 67 67 26
Width: 680
Flags: W
HStem: -15 180<358.358 538.384> 510 181<353.973 535.698>
VStem: 55 225<243.612 438.163>
LayerCount: 2
Fore
SplineSet
575 194 m 1,0,1
 542 180 542 180 512 172.5 c 128,-1,2
 482 165 482 165 451 165 c 0,3,4
 415 165 415 165 383.5 175.5 c 128,-1,5
 352 186 352 186 329 207.5 c 128,-1,6
 306 229 306 229 293 262 c 128,-1,7
 280 295 280 295 280 340 c 0,8,9
 280 428 280 428 326 469 c 128,-1,10
 372 510 372 510 446 510 c 0,11,12
 478 510 478 510 509 503 c 128,-1,13
 540 496 540 496 575 483 c 1,14,-1
 602 638 l 1,15,16
 554 666 554 666 505 678.5 c 128,-1,17
 456 691 456 691 407 691 c 0,18,19
 338 691 338 691 274 666 c 128,-1,20
 210 641 210 641 161.5 595 c 128,-1,21
 113 549 113 549 84 484 c 128,-1,22
 55 419 55 419 55 339 c 0,23,24
 55 258 55 258 85 192.5 c 128,-1,25
 115 127 115 127 164.5 81 c 128,-1,26
 214 35 214 35 278.5 10 c 128,-1,27
 343 -15 343 -15 413 -15 c 0,28,29
 461 -15 461 -15 508.5 -2.5 c 128,-1,30
 556 10 556 10 601 36 c 1,31,-1
 575 194 l 1,0,1
EndSplineSet
Validated: 9
EndChar

StartChar: B
Encoding: 66 66 27
Width: 791
Flags: W
HStem: -15 160<314 399 413 478.863> 298 110<394 461.693> 539 133<396 466.562>
VStem: 484 208<430.197 521.683> 504 219<169.532 272.284>
LayerCount: 2
Fore
SplineSet
93 -1 m 1,0,1
 174 -6 174 -6 259 -10.5 c 128,-1,2
 344 -15 344 -15 432 -15 c 0,3,4
 503 -15 503 -15 557.5 5 c 128,-1,5
 612 25 612 25 648.5 57 c 128,-1,6
 685 89 685 89 704 128 c 128,-1,7
 723 167 723 167 723 206 c 0,8,9
 723 227 723 227 717.5 253 c 128,-1,10
 712 279 712 279 696.5 303 c 128,-1,11
 681 327 681 327 653.5 345 c 128,-1,12
 626 363 626 363 583 366 c 1,13,14
 618 373 618 373 639.5 388.5 c 128,-1,15
 661 404 661 404 672.5 424 c 128,-1,16
 684 444 684 444 688 466 c 128,-1,17
 692 488 692 488 692 508 c 0,18,19
 692 539 692 539 675.5 568.5 c 128,-1,20
 659 598 659 598 627 621 c 128,-1,21
 595 644 595 644 547 658 c 128,-1,22
 499 672 499 672 436 672 c 2,23,-1
 93 672 l 1,24,-1
 93 -1 l 1,0,1
314 298 m 1,25,-1
 400 298 l 2,26,27
 451 298 451 298 477.5 276.5 c 128,-1,28
 504 255 504 255 504 220 c 0,29,30
 504 190 504 190 480.5 167.5 c 128,-1,31
 457 145 457 145 413 145 c 0,32,33
 406 145 406 145 399 145 c 128,-1,34
 392 145 392 145 381.5 146 c 128,-1,35
 371 147 371 147 355 147.5 c 128,-1,36
 339 148 339 148 314 150 c 1,37,-1
 314 298 l 1,25,-1
315 408 m 1,38,-1
 315 539 l 1,39,-1
 396 539 l 2,40,41
 424 539 424 539 441.5 532.5 c 128,-1,42
 459 526 459 526 468.5 516.5 c 128,-1,43
 478 507 478 507 481 495 c 128,-1,44
 484 483 484 483 484 472 c 0,45,46
 484 462 484 462 478.5 450.5 c 128,-1,47
 473 439 473 439 461.5 429.5 c 128,-1,48
 450 420 450 420 433 414 c 128,-1,49
 416 408 416 408 394 408 c 2,50,-1
 315 408 l 1,38,-1
EndSplineSet
Validated: 9
EndChar

StartChar: P
Encoding: 80 80 28
Width: 686
Flags: W
HStem: 220 139<305 327 347 426.63> 529 143<338 425.521>
VStem: 459 201<388.928 496.701>
LayerCount: 2
Fore
SplineSet
90 -10 m 1,0,-1
 305 0 l 1,1,-1
 305 220 l 1,2,-1
 347 220 l 2,3,4
 425 220 425 220 484 239.5 c 128,-1,5
 543 259 543 259 582 290.5 c 128,-1,6
 621 322 621 322 640.5 362.5 c 128,-1,7
 660 403 660 403 660 445 c 0,8,9
 660 489 660 489 643.5 530 c 128,-1,10
 627 571 627 571 589.5 602.5 c 128,-1,11
 552 634 552 634 490 653 c 128,-1,12
 428 672 428 672 338 672 c 2,13,-1
 90 672 l 1,14,-1
 90 -10 l 1,0,-1
305 529 m 1,15,-1
 348 529 l 2,16,17
 376 529 376 529 396.5 522 c 128,-1,18
 417 515 417 515 431 503 c 128,-1,19
 445 491 445 491 452 476 c 128,-1,20
 459 461 459 461 459 445 c 0,21,22
 459 406 459 406 430.5 382.5 c 128,-1,23
 402 359 402 359 348 359 c 0,24,25
 338 359 338 359 327 359 c 128,-1,26
 316 359 316 359 305 361 c 1,27,-1
 305 529 l 1,15,-1
EndSplineSet
Validated: 9
EndChar

StartChar: G
Encoding: 71 71 29
Width: 722
Flags: W
HStem: -15 179<356.569 469.597> 511 180<352.43 546.447>
VStem: 57 223<246.921 431.688>
LayerCount: 2
Fore
SplineSet
470 167 m 1,0,1
 449 164 449 164 430 164 c 0,2,3
 394 164 394 164 366 179.5 c 128,-1,4
 338 195 338 195 319 219.5 c 128,-1,5
 300 244 300 244 290 275.5 c 128,-1,6
 280 307 280 307 280 340 c 0,7,8
 280 372 280 372 289.5 402.5 c 128,-1,9
 299 433 299 433 317.5 457 c 128,-1,10
 336 481 336 481 364 496 c 128,-1,11
 392 511 392 511 430 511 c 0,12,13
 461 511 461 511 496.5 502.5 c 128,-1,14
 532 494 532 494 567 483 c 1,15,-1
 634 638 l 1,16,17
 576 665 576 665 517.5 678 c 128,-1,18
 459 691 459 691 402 691 c 0,19,20
 332 691 332 691 269.5 663.5 c 128,-1,21
 207 636 207 636 159.5 588.5 c 128,-1,22
 112 541 112 541 84.5 476.5 c 128,-1,23
 57 412 57 412 57 339 c 0,24,25
 57 264 57 264 84.5 199.5 c 128,-1,26
 112 135 112 135 159.5 87.5 c 128,-1,27
 207 40 207 40 269.5 12.5 c 128,-1,28
 332 -15 332 -15 403 -15 c 0,29,30
 462 -15 462 -15 522.5 -3 c 128,-1,31
 583 9 583 9 643 36 c 1,32,-1
 643 349 l 1,33,-1
 470 329 l 1,34,-1
 470 167 l 1,0,1
EndSplineSet
Validated: 9
EndChar

StartChar: i
Encoding: 105 105 30
Width: 433
Flags: W
HStem: -15 162<241.5 366.247> 566 202<121.676 259.324>
VStem: 78 225<607.294 725.882>
LayerCount: 2
Fore
SplineSet
82 185 m 2,0,1
 82 132 82 132 96.5 94 c 128,-1,2
 111 56 111 56 135.5 32 c 128,-1,3
 160 8 160 8 192 -3.5 c 128,-1,4
 224 -15 224 -15 259 -15 c 0,5,6
 293 -15 293 -15 326 -7 c 128,-1,7
 359 1 359 1 390 19 c 1,8,-1
 379 158 l 1,9,10
 357 147 357 147 336 147 c 0,11,12
 319 147 319 147 306 159 c 128,-1,13
 293 171 293 171 293 199 c 2,14,-1
 293 501 l 1,15,-1
 82 501 l 1,16,-1
 82 185 l 2,0,1
78 667 m 0,17,18
 78 646 78 646 87 627.5 c 128,-1,19
 96 609 96 609 111.5 595.5 c 128,-1,20
 127 582 127 582 147.5 574 c 128,-1,21
 168 566 168 566 191 566 c 0,22,23
 213 566 213 566 233.5 574 c 128,-1,24
 254 582 254 582 269.5 595.5 c 128,-1,25
 285 609 285 609 294 627.5 c 128,-1,26
 303 646 303 646 303 667 c 0,27,28
 303 687 303 687 294 705.5 c 128,-1,29
 285 724 285 724 269.5 738 c 128,-1,30
 254 752 254 752 233.5 760 c 128,-1,31
 213 768 213 768 191 768 c 0,32,33
 168 768 168 768 147.5 760 c 128,-1,34
 127 752 127 752 111.5 738 c 128,-1,35
 96 724 96 724 87 705.5 c 128,-1,36
 78 687 78 687 78 667 c 0,17,18
EndSplineSet
Validated: 9
EndChar

StartChar: j
Encoding: 106 106 31
Width: 502
Flags: W
HStem: -216 163<83.3585 217.5> 566 202<239.627 377.324>
VStem: 196 225<607.294 725.882>
LayerCount: 2
Fore
SplineSet
25 -163 m 1,0,1
 104 -216 104 -216 196 -216 c 0,2,3
 239 -216 239 -216 279 -202 c 128,-1,4
 319 -188 319 -188 350 -158.5 c 128,-1,5
 381 -129 381 -129 399 -82.5 c 128,-1,6
 417 -36 417 -36 417 30 c 2,7,-1
 417 501 l 1,8,-1
 206 501 l 1,9,-1
 206 30 l 2,10,11
 206 -17 206 -17 187 -35 c 128,-1,12
 168 -53 168 -53 140 -53 c 0,13,14
 123 -53 123 -53 106 -49 c 128,-1,15
 89 -45 89 -45 71 -39 c 1,16,-1
 25 -163 l 1,0,1
196 667 m 0,17,18
 196 646 196 646 205 627.5 c 128,-1,19
 214 609 214 609 229.5 595.5 c 128,-1,20
 245 582 245 582 265 574 c 128,-1,21
 285 566 285 566 308 566 c 256,22,23
 331 566 331 566 351.5 574 c 128,-1,24
 372 582 372 582 387.5 595.5 c 128,-1,25
 403 609 403 609 412 627.5 c 128,-1,26
 421 646 421 646 421 667 c 0,27,28
 421 687 421 687 412 705.5 c 128,-1,29
 403 724 403 724 387.5 738 c 128,-1,30
 372 752 372 752 351.5 760 c 128,-1,31
 331 768 331 768 308 768 c 256,32,33
 285 768 285 768 265 760 c 128,-1,34
 245 752 245 752 229.5 738 c 128,-1,35
 214 724 214 724 205 705.5 c 128,-1,36
 196 687 196 687 196 667 c 0,17,18
EndSplineSet
Validated: 9
EndChar

StartChar: g.alt
Encoding: 65539 -1 32
Width: 742
Flags: W
HStem: -282 181<327.486 428.159> -14 168<256.5 368.77> 357 168<257.5 369.043>
VStem: 30 214<193.788 317.259> 447 215<-83.4629 -26 193.189 317.811>
LayerCount: 2
Fore
SplineSet
139 -115 m 1,0,1
 149 -156 149 -156 173.5 -187 c 128,-1,2
 198 -218 198 -218 232.5 -239 c 128,-1,3
 267 -260 267 -260 307.5 -271 c 128,-1,4
 348 -282 348 -282 390 -282 c 0,5,6
 440 -282 440 -282 489 -266 c 128,-1,7
 538 -250 538 -250 576.5 -218.5 c 128,-1,8
 615 -187 615 -187 638.5 -139 c 128,-1,9
 662 -91 662 -91 662 -26 c 2,10,-1
 662 511 l 1,11,-1
 447 511 l 1,12,-1
 447 425 l 1,13,14
 417 477 417 477 373 501 c 128,-1,15
 329 525 329 525 280 525 c 0,16,17
 235 525 235 525 190 506 c 128,-1,18
 145 487 145 487 109.5 451.5 c 128,-1,19
 74 416 74 416 52 366 c 128,-1,20
 30 316 30 316 30 255 c 0,21,22
 30 193 30 193 52 143.5 c 128,-1,23
 74 94 74 94 109.5 59 c 128,-1,24
 145 24 145 24 189.5 5 c 128,-1,25
 234 -14 234 -14 279 -14 c 0,26,27
 328 -14 328 -14 372.5 9.5 c 128,-1,28
 417 33 417 33 447 85 c 1,29,-1
 447 -26 l 2,30,31
 447 -67 447 -67 426.5 -84 c 128,-1,32
 406 -101 406 -101 382 -101 c 0,33,34
 360 -101 360 -101 342 -91.5 c 128,-1,35
 324 -82 324 -82 323 -67 c 1,36,-1
 139 -115 l 1,0,1
244 255 m 0,37,38
 244 276 244 276 252 294.5 c 128,-1,39
 260 313 260 313 274 327 c 128,-1,40
 288 341 288 341 306.5 349 c 128,-1,41
 325 357 325 357 346 357 c 0,42,43
 366 357 366 357 384.5 349 c 128,-1,44
 403 341 403 341 417 327 c 128,-1,45
 431 313 431 313 439 294.5 c 128,-1,46
 447 276 447 276 447 255 c 0,47,48
 447 235 447 235 439 216.5 c 128,-1,49
 431 198 431 198 417 184 c 128,-1,50
 403 170 403 170 384.5 162 c 128,-1,51
 366 154 366 154 346 154 c 0,52,53
 325 154 325 154 306.5 162 c 128,-1,54
 288 170 288 170 274 184 c 128,-1,55
 260 198 260 198 252 216.5 c 128,-1,56
 244 235 244 235 244 255 c 0,37,38
EndSplineSet
Validated: 9
EndChar

StartChar: R
Encoding: 82 82 33
Width: 790
Flags: W
HStem: -15 176<588.83 704.188> 524 148<379 465.5>
VStem: 484 200<415.659 504.62>
LayerCount: 2
Fore
SplineSet
92 0 m 1,0,-1
 311 0 l 1,1,-1
 311 245 l 1,2,-1
 358 245 l 1,3,4
 369 197 369 197 380 150 c 128,-1,5
 391 103 391 103 416 66.5 c 128,-1,6
 441 30 441 30 487 7.5 c 128,-1,7
 533 -15 533 -15 613 -15 c 0,8,9
 633 -15 633 -15 656 -13.5 c 128,-1,10
 679 -12 679 -12 705 -8 c 1,11,-1
 722 165 l 1,12,13
 704 163 704 163 689 162 c 128,-1,14
 674 161 674 161 661 161 c 0,15,16
 630 161 630 161 612 167 c 128,-1,17
 594 173 594 173 583 187.5 c 128,-1,18
 572 202 572 202 565.5 225 c 128,-1,19
 559 248 559 248 551 282 c 1,20,21
 626 316 626 316 655 364 c 128,-1,22
 684 412 684 412 684 470 c 0,23,24
 684 508 684 508 666.5 544.5 c 128,-1,25
 649 581 649 581 613.5 609.5 c 128,-1,26
 578 638 578 638 524 655 c 128,-1,27
 470 672 470 672 398 672 c 2,28,-1
 92 672 l 1,29,-1
 92 0 l 1,0,-1
311 524 m 1,30,-1
 379 524 l 2,31,32
 411 524 411 524 431.5 518.5 c 128,-1,33
 452 513 452 513 463.5 504 c 128,-1,34
 475 495 475 495 479.5 483.5 c 128,-1,35
 484 472 484 472 484 460 c 0,36,37
 484 433 484 433 469 418 c 128,-1,38
 454 403 454 403 429 396 c 128,-1,39
 404 389 404 389 373 387.5 c 128,-1,40
 342 386 342 386 311 386 c 1,41,-1
 311 524 l 1,30,-1
EndSplineSet
Validated: 9
EndChar

StartChar: parenleft
Encoding: 40 40 34
Width: 477
Flags: W
VStem: 14 223<163.103 485.028>
LayerCount: 2
Fore
SplineSet
389 -2 m 1,0,1
 366 2 366 2 339.5 18 c 128,-1,2
 313 34 313 34 290 70.5 c 128,-1,3
 267 107 267 107 252 168.5 c 128,-1,4
 237 230 237 230 237 326 c 0,5,6
 237 419 237 419 252 479 c 128,-1,7
 267 539 267 539 290 575 c 128,-1,8
 313 611 313 611 339.5 626.5 c 128,-1,9
 366 642 366 642 389 646 c 1,10,-1
 389 773 l 1,11,12
 291 763 291 763 220 723 c 128,-1,13
 149 683 149 683 103.5 622.5 c 128,-1,14
 58 562 58 562 36 485.5 c 128,-1,15
 14 409 14 409 14 326 c 0,16,17
 14 237 14 237 37 158.5 c 128,-1,18
 60 80 60 80 106.5 19 c 128,-1,19
 153 -42 153 -42 223.5 -81 c 128,-1,20
 294 -120 294 -120 389 -129 c 1,21,-1
 389 -2 l 1,0,1
EndSplineSet
Validated: 9
EndChar

StartChar: parenright
Encoding: 41 41 35
Width: 479
Flags: W
VStem: 242 223<163.103 485.028>
LayerCount: 2
Fore
SplineSet
90 -129 m 1,0,1
 185 -120 185 -120 255.5 -81 c 128,-1,2
 326 -42 326 -42 372.5 19 c 128,-1,3
 419 80 419 80 442 158.5 c 128,-1,4
 465 237 465 237 465 326 c 0,5,6
 465 409 465 409 443 485.5 c 128,-1,7
 421 562 421 562 375.5 622.5 c 128,-1,8
 330 683 330 683 259 723 c 128,-1,9
 188 763 188 763 90 773 c 1,10,-1
 90 646 l 1,11,12
 113 642 113 642 139.5 626.5 c 128,-1,13
 166 611 166 611 189 575 c 128,-1,14
 212 539 212 539 227 479 c 128,-1,15
 242 419 242 419 242 326 c 0,16,17
 242 230 242 230 227 168.5 c 128,-1,18
 212 107 212 107 189 70.5 c 128,-1,19
 166 34 166 34 139.5 18 c 128,-1,20
 113 2 113 2 90 -2 c 1,21,-1
 90 -129 l 1,0,1
EndSplineSet
Validated: 9
EndChar

StartChar: U
Encoding: 85 85 36
Width: 841
Flags: W
HStem: -15 180<345.663 494.539>
LayerCount: 2
Fore
SplineSet
81 285 m 2,0,1
 81 211 81 211 109.5 155 c 128,-1,2
 138 99 138 99 185.5 61 c 128,-1,3
 233 23 233 23 294 4 c 128,-1,4
 355 -15 355 -15 421 -15 c 256,5,6
 487 -15 487 -15 548 4 c 128,-1,7
 609 23 609 23 656.5 61 c 128,-1,8
 704 99 704 99 732.5 155 c 128,-1,9
 761 211 761 211 761 285 c 2,10,-1
 761 672 l 1,11,-1
 535 672 l 1,12,-1
 535 285 l 2,13,14
 535 250 535 250 525.5 227 c 128,-1,15
 516 204 516 204 500 190.5 c 128,-1,16
 484 177 484 177 463.5 171 c 128,-1,17
 443 165 443 165 421 165 c 0,18,19
 398 165 398 165 377 171 c 128,-1,20
 356 177 356 177 340.5 190.5 c 128,-1,21
 325 204 325 204 316 227 c 128,-1,22
 307 250 307 250 307 285 c 2,23,-1
 307 672 l 1,24,-1
 81 672 l 1,25,-1
 81 285 l 2,0,1
EndSplineSet
Validated: 9
EndChar

StartChar: T
Encoding: 84 84 37
Width: 622
Flags: W
LayerCount: 2
Fore
SplineSet
195 0 m 1,0,-1
 428 0 l 1,1,-1
 428 527 l 1,2,-1
 571 527 l 1,3,-1
 571 672 l 1,4,-1
 52 672 l 1,5,-1
 52 527 l 1,6,-1
 195 527 l 1,7,-1
 195 0 l 1,0,-1
EndSplineSet
Validated: 9
EndChar

StartChar: K
Encoding: 75 75 38
Width: 845
Flags: W
LayerCount: 2
Fore
SplineSet
93 0 m 1,0,-1
 324 0 l 1,1,-1
 324 274 l 1,2,-1
 393 274 l 1,3,-1
 540 0 l 1,4,-1
 783 0 l 1,5,-1
 783 45 l 1,6,-1
 603 347 l 1,7,-1
 761 627 l 1,8,-1
 761 672 l 1,9,-1
 530 672 l 1,10,-1
 397 407 l 1,11,-1
 324 407 l 1,12,-1
 324 672 l 1,13,-1
 93 672 l 1,14,-1
 93 0 l 1,0,-1
EndSplineSet
Validated: 9
EndChar

StartChar: M
Encoding: 77 77 39
Width: 941
Flags: W
LayerCount: 2
Fore
SplineSet
93 0 m 1,0,-1
 301 0 l 1,1,-1
 301 367 l 1,2,-1
 428 127 l 1,3,-1
 513 127 l 1,4,-1
 640 367 l 1,5,-1
 640 0 l 1,6,-1
 848 0 l 1,7,-1
 848 672 l 1,8,-1
 640 672 l 1,9,-1
 472 354 l 1,10,-1
 301 672 l 1,11,-1
 93 672 l 1,12,-1
 93 0 l 1,0,-1
EndSplineSet
Validated: 9
EndChar

StartChar: Q
Encoding: 81 81 40
Width: 865
Flags: W
HStem: -33 20G<439.5 474.274> -15 180<334.469 443.719> 510 181<333.698 482.347>
VStem: 40 224<242.296 433.99> 552 224<242.971 433.99>
LayerCount: 2
Fore
SplineSet
665 -159 m 1,0,-1
 801 -39 l 1,1,-1
 648 61 l 1,2,3
 712 112 712 112 744 185.5 c 128,-1,4
 776 259 776 259 776 338 c 0,5,6
 776 404 776 404 753 467 c 128,-1,7
 730 530 730 530 684 580 c 128,-1,8
 638 630 638 630 569 660.5 c 128,-1,9
 500 691 500 691 408 691 c 256,10,11
 316 691 316 691 247.5 660.5 c 128,-1,12
 179 630 179 630 132.5 580 c 128,-1,13
 86 530 86 530 63 467 c 128,-1,14
 40 404 40 404 40 338 c 256,15,16
 40 272 40 272 63 208.5 c 128,-1,17
 86 145 86 145 132 95.5 c 128,-1,18
 178 46 178 46 247 15.5 c 128,-1,19
 316 -15 316 -15 408 -15 c 0,20,21
 417 -15 417 -15 426 -14.5 c 128,-1,22
 435 -14 435 -14 444 -13 c 1,23,-1
 665 -159 l 1,0,-1
408 165 m 256,24,25
 372 165 372 165 345 180 c 128,-1,26
 318 195 318 195 300 219.5 c 128,-1,27
 282 244 282 244 273 275 c 128,-1,28
 264 306 264 306 264 338 c 0,29,30
 264 371 264 371 273 402 c 128,-1,31
 282 433 282 433 300 457 c 128,-1,32
 318 481 318 481 345 495.5 c 128,-1,33
 372 510 372 510 408 510 c 256,34,35
 444 510 444 510 471 495.5 c 128,-1,36
 498 481 498 481 516 457 c 128,-1,37
 534 433 534 433 543 402 c 128,-1,38
 552 371 552 371 552 338 c 0,39,40
 552 306 552 306 543 275 c 128,-1,41
 534 244 534 244 516 219.5 c 128,-1,42
 498 195 498 195 471 180 c 128,-1,43
 444 165 444 165 408 165 c 256,24,25
EndSplineSet
Validated: 9
EndChar

StartChar: V
Encoding: 86 86 41
Width: 769
Flags: W
LayerCount: 2
Fore
SplineSet
253 0 m 1,0,-1
 508 0 l 1,1,-1
 722 672 l 1,2,-1
 487 672 l 1,3,-1
 381 259 l 1,4,-1
 274 672 l 1,5,-1
 49 672 l 1,6,-1
 253 0 l 1,0,-1
EndSplineSet
Validated: 9
EndChar

StartChar: A
Encoding: 65 65 42
Width: 782
Flags: W
LayerCount: 2
Fore
SplineSet
45 0 m 1,0,-1
 270 0 l 1,1,-1
 299 132 l 1,2,-1
 476 132 l 1,3,-1
 503 0 l 1,4,-1
 738 0 l 1,5,-1
 539 672 l 1,6,-1
 235 672 l 1,7,-1
 45 0 l 1,0,-1
320 255 m 1,8,-1
 387 540 l 1,9,-1
 453 255 l 1,10,-1
 320 255 l 1,8,-1
EndSplineSet
Validated: 9
EndChar

StartChar: v
Encoding: 118 118 43
Width: 708
Flags: W
LayerCount: 2
Fore
SplineSet
222 0 m 1,0,-1
 482 0 l 1,1,-1
 655 501 l 1,2,-1
 433 501 l 1,3,-1
 367 242 l 1,4,-1
 352 174 l 1,5,-1
 337 242 l 1,6,-1
 274 501 l 1,7,-1
 53 501 l 1,8,-1
 222 0 l 1,0,-1
EndSplineSet
Validated: 9
EndChar

StartChar: w
Encoding: 119 119 44
Width: 984
Flags: W
LayerCount: 2
Fore
SplineSet
202 0 m 1,0,-1
 437 0 l 1,1,-1
 492 288 l 1,2,-1
 547 0 l 1,3,-1
 782 0 l 1,4,-1
 917 501 l 1,5,-1
 721 501 l 1,6,-1
 666 246 l 1,7,-1
 647 144 l 1,8,-1
 626 246 l 1,9,-1
 571 501 l 1,10,-1
 413 501 l 1,11,-1
 357 246 l 1,12,-1
 337 144 l 1,13,-1
 317 246 l 1,14,-1
 263 501 l 1,15,-1
 67 501 l 1,16,-1
 202 0 l 1,0,-1
EndSplineSet
Validated: 9
EndChar

StartChar: k.alt
Encoding: 65540 -1 45
Width: 741
Flags: W
LayerCount: 2
Fore
SplineSet
80 0 m 1,0,-1
 295 0 l 1,1,-1
 295 249 l 1,2,-1
 516 -44 l 1,3,-1
 711 66 l 1,4,5
 700 77 700 77 686.5 89.5 c 128,-1,6
 673 102 673 102 658 117 c 0,7,8
 633 144 633 144 597.5 183.5 c 128,-1,9
 562 223 562 223 520 278 c 1,10,-1
 737 461 l 1,11,-1
 558 569 l 1,12,-1
 295 331 l 1,13,-1
 295 684 l 1,14,-1
 80 613 l 1,15,-1
 80 0 l 1,0,-1
EndSplineSet
Validated: 9
EndChar

StartChar: p
Encoding: 112 112 46
Width: 745
Flags: W
HStem: -15 166<379.633 488> 350 166<379.708 487.5>
VStem: 91 211<188.912 250 254 311.531> 501 209<189.133 311.415>
LayerCount: 2
Fore
SplineSet
91 -170 m 1,0,-1
 302 -130 l 1,1,-1
 302 93 l 1,2,3
 329 37 329 37 372 11 c 128,-1,4
 415 -15 415 -15 466 -15 c 0,5,6
 510 -15 510 -15 554 4 c 128,-1,7
 598 23 598 23 632.5 57.5 c 128,-1,8
 667 92 667 92 688.5 141 c 128,-1,9
 710 190 710 190 710 250 c 256,10,11
 710 310 710 310 688.5 359.5 c 128,-1,12
 667 409 667 409 632 443.5 c 128,-1,13
 597 478 597 478 553.5 497 c 128,-1,14
 510 516 510 516 465 516 c 0,15,16
 415 516 415 516 372 490 c 128,-1,17
 329 464 329 464 302 407 c 1,18,-1
 302 516 l 1,19,-1
 91 484 l 1,20,-1
 91 -170 l 1,0,-1
302 254 m 1,21,22
 303 273 303 273 311 290.5 c 128,-1,23
 319 308 319 308 332.5 321 c 128,-1,24
 346 334 346 334 363.5 342 c 128,-1,25
 381 350 381 350 401 350 c 0,26,27
 422 350 422 350 440 342 c 128,-1,28
 458 334 458 334 471.5 320.5 c 128,-1,29
 485 307 485 307 493 288.5 c 128,-1,30
 501 270 501 270 501 250 c 256,31,32
 501 230 501 230 493 212 c 128,-1,33
 485 194 485 194 471.5 180.5 c 128,-1,34
 458 167 458 167 440 159 c 128,-1,35
 422 151 422 151 401 151 c 0,36,37
 381 151 381 151 363 159 c 128,-1,38
 345 167 345 167 331.5 180.5 c 128,-1,39
 318 194 318 194 310 212 c 128,-1,40
 302 230 302 230 302 250 c 2,41,-1
 302 254 l 1,21,22
EndSplineSet
Validated: 9
EndChar

StartChar: a
Encoding: 97 97 47
Width: 778
Flags: W
HStem: -15 166<291 399.299> 350 166<292 399.877>
VStem: 69 210<189.133 311.415>
LayerCount: 2
Fore
SplineSet
478 -8 m 1,0,-1
 688 8 l 1,1,-1
 688 501 l 1,2,-1
 478 501 l 1,3,-1
 478 407 l 1,4,5
 451 464 451 464 407.5 490 c 128,-1,6
 364 516 364 516 314 516 c 0,7,8
 270 516 270 516 226 497 c 128,-1,9
 182 478 182 478 147 443.5 c 128,-1,10
 112 409 112 409 90.5 359.5 c 128,-1,11
 69 310 69 310 69 250 c 256,12,13
 69 190 69 190 90.5 141 c 128,-1,14
 112 92 112 92 147 57.5 c 128,-1,15
 182 23 182 23 225.5 4 c 128,-1,16
 269 -15 269 -15 313 -15 c 0,17,18
 363 -15 363 -15 407 11 c 128,-1,19
 451 37 451 37 478 93 c 1,20,-1
 478 -8 l 1,0,-1
478 246 m 1,21,22
 477 226 477 226 468.5 209 c 128,-1,23
 460 192 460 192 446.5 179 c 128,-1,24
 433 166 433 166 415.5 158.5 c 128,-1,25
 398 151 398 151 379 151 c 0,26,27
 359 151 359 151 340.5 159 c 128,-1,28
 322 167 322 167 308.5 180.5 c 128,-1,29
 295 194 295 194 287 212 c 128,-1,30
 279 230 279 230 279 250 c 256,31,32
 279 270 279 270 287 288.5 c 128,-1,33
 295 307 295 307 308.5 320.5 c 128,-1,34
 322 334 322 334 340.5 342 c 128,-1,35
 359 350 359 350 379 350 c 0,36,37
 398 350 398 350 415.5 342 c 128,-1,38
 433 334 433 334 446.5 321 c 128,-1,39
 460 308 460 308 468.5 290.5 c 128,-1,40
 477 273 477 273 478 254 c 1,41,-1
 478 246 l 1,21,22
EndSplineSet
Validated: 9
EndChar

StartChar: n
Encoding: 110 110 48
Width: 761
Flags: W
HStem: 350 166<390.887 493>
LayerCount: 2
Fore
SplineSet
89 0 m 1,0,-1
 300 0 l 1,1,-1
 300 250 l 1,2,-1
 300 254 l 1,3,4
 301 273 301 273 309 290.5 c 128,-1,5
 317 308 317 308 330.5 321 c 128,-1,6
 344 334 344 334 361.5 342 c 128,-1,7
 379 350 379 350 399 350 c 0,8,9
 428 350 428 350 448.5 320.5 c 128,-1,10
 469 291 469 291 469 250 c 2,11,-1
 469 0 l 1,12,-1
 679 0 l 1,13,-1
 679 250 l 2,14,15
 679 313 679 313 661 362.5 c 128,-1,16
 643 412 643 412 614 446 c 128,-1,17
 585 480 585 480 548.5 498 c 128,-1,18
 512 516 512 516 474 516 c 0,19,20
 424 516 424 516 376.5 486 c 128,-1,21
 329 456 329 456 300 392 c 1,22,-1
 300 516 l 1,23,-1
 89 484 l 1,24,-1
 89 0 l 1,0,-1
EndSplineSet
Validated: 9
EndChar

StartChar: I
Encoding: 73 73 49
Width: 411
Flags: W
VStem: 91 230
LayerCount: 2
Fore
SplineSet
91 0 m 1,0,-1
 321 0 l 1,1,-1
 321 672 l 1,2,-1
 91 672 l 1,3,-1
 91 0 l 1,0,-1
EndSplineSet
Validated: 9
EndChar

StartChar: y
Encoding: 121 121 50
Width: 706
Flags: W
HStem: -234 168<278.771 382.399> 0 151<260 365.619>
LayerCount: 2
Fore
SplineSet
259 -224 m 1,0,1
 281 -228 281 -228 302.5 -231 c 128,-1,2
 324 -234 324 -234 345 -234 c 0,3,4
 405 -234 405 -234 456.5 -214 c 128,-1,5
 508 -194 508 -194 545.5 -151 c 128,-1,6
 583 -108 583 -108 604.5 -39.5 c 128,-1,7
 626 29 626 29 626 127 c 2,8,-1
 626 501 l 1,9,-1
 415 501 l 1,10,-1
 415 236 l 2,11,12
 415 201 415 201 392.5 176 c 128,-1,13
 370 151 370 151 335 151 c 0,14,15
 323 151 323 151 310.5 156.5 c 128,-1,16
 298 162 298 162 288 172 c 128,-1,17
 278 182 278 182 272 195 c 128,-1,18
 266 208 266 208 266 222 c 2,19,-1
 266 501 l 1,20,-1
 56 501 l 1,21,-1
 56 212 l 2,22,23
 56 163 56 163 76 123.5 c 128,-1,24
 96 84 96 84 128 56.5 c 128,-1,25
 160 29 160 29 200 14.5 c 128,-1,26
 240 0 240 0 280 0 c 0,27,28
 322 0 322 0 360.5 19 c 128,-1,29
 399 38 399 38 425 83 c 1,30,31
 421 49 421 49 415 21.5 c 128,-1,32
 409 -6 409 -6 397.5 -25.5 c 128,-1,33
 386 -45 386 -45 368.5 -55.5 c 128,-1,34
 351 -66 351 -66 324 -66 c 0,35,36
 304 -66 304 -66 280 -60 c 1,37,-1
 259 -224 l 1,0,1
EndSplineSet
Validated: 9
EndChar

StartChar: x
Encoding: 120 120 51
Width: 706
Flags: W
LayerCount: 2
Fore
SplineSet
78 0 m 1,0,-1
 289 0 l 1,1,-1
 355 128 l 1,2,-1
 423 0 l 1,3,-1
 628 0 l 1,4,-1
 478 260 l 1,5,-1
 618 501 l 1,6,-1
 413 501 l 1,7,-1
 355 383 l 1,8,-1
 299 501 l 1,9,-1
 88 501 l 1,10,-1
 230 260 l 1,11,-1
 78 0 l 1,0,-1
EndSplineSet
Validated: 9
EndChar

StartChar: S
Encoding: 83 83 52
Width: 666
Flags: W
HStem: -15 168<186.565 274.5 312 377.399> 521 170<287.156 475.022>
VStem: 397 203<163.674 241.5>
LayerCount: 2
Fore
SplineSet
128 190 m 1,0,1
 125 182 125 182 122 172 c 128,-1,2
 119 162 119 162 113.5 144.5 c 128,-1,3
 108 127 108 127 99 101 c 128,-1,4
 90 75 90 75 75 36 c 1,5,6
 105 22 105 22 139 12.5 c 128,-1,7
 173 3 173 3 206.5 -3 c 128,-1,8
 240 -9 240 -9 271 -12 c 128,-1,9
 302 -15 302 -15 326 -15 c 0,10,11
 387 -15 387 -15 437.5 -1.5 c 128,-1,12
 488 12 488 12 524 41.5 c 128,-1,13
 560 71 560 71 580 116.5 c 128,-1,14
 600 162 600 162 600 225 c 0,15,16
 600 258 600 258 586.5 290 c 128,-1,17
 573 322 573 322 542 351 c 128,-1,18
 511 380 511 380 459.5 404.5 c 128,-1,19
 408 429 408 429 332 446 c 0,20,21
 306 452 306 452 292 463 c 128,-1,22
 278 474 278 474 278 488 c 0,23,24
 278 511 278 511 294 516 c 128,-1,25
 310 521 310 521 356 521 c 0,26,27
 373 521 373 521 395.5 517 c 128,-1,28
 418 513 418 513 440.5 508 c 128,-1,29
 463 503 463 503 484.5 496.5 c 128,-1,30
 506 490 506 490 522 486 c 1,31,32
 527 501 527 501 531 512 c 128,-1,33
 535 523 535 523 540.5 538 c 128,-1,34
 546 553 546 553 554.5 575.5 c 128,-1,35
 563 598 563 598 576 635 c 1,36,37
 525 659 525 659 465 675 c 128,-1,38
 405 691 405 691 340 691 c 0,39,40
 290 691 290 691 242 681 c 128,-1,41
 194 671 194 671 156.5 645.5 c 128,-1,42
 119 620 119 620 95.5 576 c 128,-1,43
 72 532 72 532 72 465 c 0,44,45
 72 405 72 405 98 366 c 128,-1,46
 124 327 124 327 160 303 c 128,-1,47
 196 279 196 279 234 267 c 128,-1,48
 272 255 272 255 297 250 c 1,49,50
 340 239 340 239 368.5 227.5 c 128,-1,51
 397 216 397 216 397 195 c 0,52,53
 397 175 397 175 378 164 c 128,-1,54
 359 153 359 153 312 153 c 0,55,56
 296 153 296 153 274.5 156.5 c 128,-1,57
 253 160 253 160 228.5 165 c 128,-1,58
 204 170 204 170 178 177 c 128,-1,59
 152 184 152 184 128 190 c 1,0,1
EndSplineSet
Validated: 9
EndChar

StartChar: s
Encoding: 115 115 53
Width: 548
Flags: W
HStem: -15 129<127.634 285.713> 384 132<250.017 418.674>
LayerCount: 2
Fore
SplineSet
104 139 m 1,0,1
 147 127 147 127 183 120.5 c 128,-1,2
 219 114 219 114 245 114 c 0,3,4
 277 114 277 114 286 123 c 128,-1,5
 295 132 295 132 295 137 c 0,6,7
 295 147 295 147 281.5 159.5 c 128,-1,8
 268 172 268 172 225 180 c 0,9,10
 146 195 146 195 108 235 c 128,-1,11
 70 275 70 275 70 345 c 1,12,13
 72 391 72 391 90.5 424 c 128,-1,14
 109 457 109 457 138.5 477 c 128,-1,15
 168 497 168 497 205.5 506.5 c 128,-1,16
 243 516 243 516 284 516 c 0,17,18
 328 516 328 516 371.5 507 c 128,-1,19
 415 498 415 498 452 481 c 1,20,-1
 430 362 l 1,21,22
 401 370 401 370 367.5 377 c 128,-1,23
 334 384 334 384 309 384 c 0,24,25
 282 384 282 384 266 378.5 c 128,-1,26
 250 373 250 373 250 364 c 0,27,28
 250 356 250 356 261.5 343.5 c 128,-1,29
 273 331 273 331 300 327 c 0,30,31
 352 319 352 319 386.5 302.5 c 128,-1,32
 421 286 421 286 442 264 c 128,-1,33
 463 242 463 242 471.5 215 c 128,-1,34
 480 188 480 188 480 159 c 0,35,36
 480 127 480 127 468.5 96 c 128,-1,37
 457 65 457 65 434 40 c 128,-1,38
 411 15 411 15 376.5 0 c 128,-1,39
 342 -15 342 -15 296 -15 c 0,40,41
 273 -15 273 -15 246.5 -13.5 c 128,-1,42
 220 -12 220 -12 192 -7.5 c 128,-1,43
 164 -3 164 -3 136 4.5 c 128,-1,44
 108 12 108 12 82 24 c 1,45,-1
 104 139 l 1,0,1
EndSplineSet
Validated: 1
EndChar

StartChar: W
Encoding: 87 87 54
Width: 1082
Flags: W
LayerCount: 2
Fore
SplineSet
223 0 m 1,0,-1
 456 0 l 1,1,-1
 541 370 l 1,2,-1
 626 0 l 1,3,-1
 859 0 l 1,4,-1
 1015 672 l 1,5,-1
 790 672 l 1,6,-1
 725 249 l 1,7,-1
 657 572 l 1,8,-1
 425 572 l 1,9,-1
 357 249 l 1,10,-1
 292 672 l 1,11,-1
 67 672 l 1,12,-1
 223 0 l 1,0,-1
EndSplineSet
Validated: 9
EndChar

StartChar: J
Encoding: 74 74 55
Width: 505
Flags: W
HStem: -45 163<85.3585 219.5>
LayerCount: 2
Fore
SplineSet
27 8 m 1,0,1
 106 -45 106 -45 198 -45 c 0,2,3
 241 -45 241 -45 282 -31 c 128,-1,4
 323 -17 323 -17 354 12.5 c 128,-1,5
 385 42 385 42 404 88.5 c 128,-1,6
 423 135 423 135 423 201 c 2,7,-1
 423 672 l 1,8,-1
 208 672 l 1,9,-1
 208 201 l 2,10,11
 208 154 208 154 189 136 c 128,-1,12
 170 118 170 118 142 118 c 0,13,14
 125 118 125 118 108 122 c 128,-1,15
 91 126 91 126 73 132 c 1,16,-1
 27 8 l 1,0,1
EndSplineSet
Validated: 9
EndChar

StartChar: X
Encoding: 88 88 56
Width: 784
Flags: W
HStem: 514 21G<379.747 400.253>
LayerCount: 2
Fore
SplineSet
76 0 m 1,0,-1
 303 0 l 1,1,-1
 390 171 l 1,2,-1
 477 0 l 1,3,-1
 708 0 l 1,4,-1
 516 342 l 1,5,-1
 702 672 l 1,6,-1
 471 672 l 1,7,-1
 390 514 l 1,8,-1
 309 672 l 1,9,-1
 82 672 l 1,10,-1
 267 342 l 1,11,-1
 76 0 l 1,0,-1
EndSplineSet
Validated: 9
EndChar

StartChar: Y
Encoding: 89 89 57
Width: 705
Flags: W
LayerCount: 2
Fore
SplineSet
241 0 m 1,0,-1
 456 0 l 1,1,-1
 456 192 l 1,2,-1
 664 672 l 1,3,-1
 445 672 l 1,4,-1
 349 379 l 1,5,-1
 252 672 l 1,6,-1
 43 672 l 1,7,-1
 241 192 l 1,8,-1
 241 0 l 1,0,-1
EndSplineSet
Validated: 9
EndChar

StartChar: period
Encoding: 46 46 58
Width: 308
Flags: W
HStem: -15 202<85.6758 223.324>
VStem: 42 225<26.2939 144.882>
LayerCount: 2
Fore
SplineSet
42 86 m 0,0,1
 42 65 42 65 51 46.5 c 128,-1,2
 60 28 60 28 75.5 14.5 c 128,-1,3
 91 1 91 1 111.5 -7 c 128,-1,4
 132 -15 132 -15 155 -15 c 0,5,6
 177 -15 177 -15 197.5 -7 c 128,-1,7
 218 1 218 1 233.5 14.5 c 128,-1,8
 249 28 249 28 258 46.5 c 128,-1,9
 267 65 267 65 267 86 c 0,10,11
 267 106 267 106 258 124.5 c 128,-1,12
 249 143 249 143 233.5 157 c 128,-1,13
 218 171 218 171 197.5 179 c 128,-1,14
 177 187 177 187 155 187 c 0,15,16
 132 187 132 187 111.5 179 c 128,-1,17
 91 171 91 171 75.5 157 c 128,-1,18
 60 143 60 143 51 124.5 c 128,-1,19
 42 106 42 106 42 86 c 0,0,1
EndSplineSet
Validated: 9
EndChar

StartChar: Z
Encoding: 90 90 59
Width: 655
Flags: W
LayerCount: 2
Fore
SplineSet
90 0 m 1,0,-1
 569 0 l 1,1,-1
 569 145 l 1,2,-1
 320 145 l 1,3,-1
 549 527 l 1,4,-1
 549 672 l 1,5,-1
 100 672 l 1,6,-1
 100 527 l 1,7,-1
 325 527 l 1,8,-1
 90 145 l 1,9,-1
 90 0 l 1,0,-1
EndSplineSet
Validated: 9
EndChar

StartChar: seven
Encoding: 55 55 60
Width: 478
Flags: W
LayerCount: 2
Fore
SplineSet
68 60 m 1,0,-1
 253 -16 l 1,1,-1
 465 507 l 1,2,-1
 465 672 l 1,3,-1
 46 672 l 1,4,-1
 46 527 l 1,5,-1
 260 527 l 1,6,-1
 68 60 l 1,0,-1
EndSplineSet
Validated: 9
EndChar

StartChar: one
Encoding: 49 49 61
Width: 479
Flags: W
HStem: 477 130<58 141.098>
LayerCount: 2
Fore
SplineSet
58 0 m 1,0,-1
 441 0 l 1,1,-1
 441 148 l 1,2,-1
 357 148 l 1,3,-1
 357 672 l 1,4,-1
 252 672 l 1,5,6
 224 653 224 653 192 639 c 0,7,8
 165 627 165 627 130.5 617 c 128,-1,9
 96 607 96 607 58 607 c 1,10,-1
 58 477 l 1,11,-1
 142 483 l 1,12,-1
 142 148 l 1,13,-1
 58 148 l 1,14,-1
 58 0 l 1,0,-1
EndSplineSet
Validated: 9
EndChar

StartChar: two
Encoding: 50 50 62
Width: 593
Flags: W
HStem: 510 176<166.712 338>
VStem: 316 219<396.392 497.185>
LayerCount: 2
Fore
SplineSet
75 0 m 1,0,-1
 515 0 l 1,1,-1
 515 156 l 1,2,-1
 297 156 l 1,3,4
 368 197 368 197 414 238 c 128,-1,5
 460 279 460 279 487 318 c 128,-1,6
 514 357 514 357 524.5 393 c 128,-1,7
 535 429 535 429 535 460 c 0,8,9
 535 511 535 511 518.5 553 c 128,-1,10
 502 595 502 595 473 624.5 c 128,-1,11
 444 654 444 654 403 670 c 128,-1,12
 362 686 362 686 314 686 c 0,13,14
 249 686 249 686 183 668.5 c 128,-1,15
 117 651 117 651 63 628 c 1,16,-1
 116 470 l 1,17,18
 125 474 125 474 140 481 c 128,-1,19
 155 488 155 488 172 494.5 c 128,-1,20
 189 501 189 501 207 505.5 c 128,-1,21
 225 510 225 510 241 510 c 0,22,23
 269 510 269 510 292.5 498.5 c 128,-1,24
 316 487 316 487 316 459 c 0,25,26
 316 440 316 440 302.5 412 c 128,-1,27
 289 384 289 384 260 346 c 128,-1,28
 231 308 231 308 185.5 258.5 c 128,-1,29
 140 209 140 209 75 148 c 1,30,-1
 75 0 l 1,0,-1
EndSplineSet
Validated: 9
EndChar

StartChar: six
Encoding: 54 54 63
Width: 695
Flags: W
HStem: -15 163<305.014 413.665> 281 150<318.783 416.392> 516 175<327.051 501.794>
VStem: 435 214<169.881 262.061>
LayerCount: 2
Fore
SplineSet
615 618 m 1,0,1
 552 656 552 656 490.5 673.5 c 128,-1,2
 429 691 429 691 371 691 c 0,3,4
 302 691 302 691 242 663.5 c 128,-1,5
 182 636 182 636 138 586.5 c 128,-1,6
 94 537 94 537 68.5 468.5 c 128,-1,7
 43 400 43 400 43 318 c 0,8,9
 43 229 43 229 70.5 166 c 128,-1,10
 98 103 98 103 143 62.5 c 128,-1,11
 188 22 188 22 245.5 3.5 c 128,-1,12
 303 -15 303 -15 363 -15 c 0,13,14
 416 -15 416 -15 467.5 1 c 128,-1,15
 519 17 519 17 559.5 47 c 128,-1,16
 600 77 600 77 624.5 120 c 128,-1,17
 649 163 649 163 649 218 c 0,18,19
 649 258 649 258 635.5 296.5 c 128,-1,20
 622 335 622 335 593 365 c 128,-1,21
 564 395 564 395 519 413 c 128,-1,22
 474 431 474 431 411 431 c 0,23,24
 366 431 366 431 331.5 415.5 c 128,-1,25
 297 400 297 400 270 376 c 1,26,27
 282 454 282 454 315.5 485 c 128,-1,28
 349 516 349 516 396 516 c 0,29,30
 433 516 433 516 475 503 c 128,-1,31
 517 490 517 490 562 470 c 1,32,-1
 615 618 l 1,0,1
271 266 m 1,33,34
 289 273 289 273 311 277 c 128,-1,35
 333 281 333 281 361 281 c 0,36,37
 398 281 398 281 416.5 261 c 128,-1,38
 435 241 435 241 435 218 c 0,39,40
 435 192 435 192 414 170 c 128,-1,41
 393 148 393 148 351 148 c 0,42,43
 318 148 318 148 298 178.5 c 128,-1,44
 278 209 278 209 271 266 c 1,33,34
EndSplineSet
Validated: 9
EndChar

StartChar: nine
Encoding: 57 57 64
Width: 695
Flags: W
HStem: -15 175<192.206 369.644> 245 140<279.902 387.969> 528 163<281.178 387.269>
VStem: 45 214<404.968 506.089>
LayerCount: 2
Fore
SplineSet
79 58 m 1,0,1
 142 20 142 20 203.5 2.5 c 128,-1,2
 265 -15 265 -15 323 -15 c 0,3,4
 392 -15 392 -15 452 9.5 c 128,-1,5
 512 34 512 34 556 79.5 c 128,-1,6
 600 125 600 125 625.5 190.5 c 128,-1,7
 651 256 651 256 651 338 c 0,8,9
 651 409 651 409 631.5 473 c 128,-1,10
 612 537 612 537 573 585.5 c 128,-1,11
 534 634 534 634 476.5 662.5 c 128,-1,12
 419 691 419 691 343 691 c 0,13,14
 269 691 269 691 213 671 c 128,-1,15
 157 651 157 651 119.5 618.5 c 128,-1,16
 82 586 82 586 63.5 544 c 128,-1,17
 45 502 45 502 45 458 c 0,18,19
 45 418 45 418 59 379.5 c 128,-1,20
 73 341 73 341 103 311 c 128,-1,21
 133 281 133 281 180 263 c 128,-1,22
 227 245 227 245 293 245 c 0,23,24
 335 245 335 245 367 257.5 c 128,-1,25
 399 270 399 270 424 290 c 1,26,27
 412 217 412 217 378.5 188.5 c 128,-1,28
 345 160 345 160 298 160 c 0,29,30
 261 160 261 160 219 173 c 128,-1,31
 177 186 177 186 132 206 c 1,32,-1
 79 58 l 1,0,1
423 400 m 1,33,34
 405 393 405 393 383 389 c 128,-1,35
 361 385 361 385 333 385 c 0,36,37
 315 385 315 385 301 391.5 c 128,-1,38
 287 398 287 398 277.5 408.5 c 128,-1,39
 268 419 268 419 263.5 432 c 128,-1,40
 259 445 259 445 259 458 c 0,41,42
 259 484 259 484 280 506 c 128,-1,43
 301 528 301 528 343 528 c 0,44,45
 376 528 376 528 396 495 c 128,-1,46
 416 462 416 462 423 400 c 1,33,34
EndSplineSet
Validated: 9
EndChar

StartChar: eight
Encoding: 56 56 65
Width: 658
Flags: W
HStem: -15 143<267.882 395.967> 568 123<267.813 385.74>
VStem: 40 206<150.729 266.038> 90 164<476.17 554.216> 402 164<441.237 548.758> 414 202<144.027 220.677>
LayerCount: 2
Fore
SplineSet
164 343 m 1,0,1
 138 332 138 332 115.5 318.5 c 128,-1,2
 93 305 93 305 76.5 286.5 c 128,-1,3
 60 268 60 268 50 244 c 128,-1,4
 40 220 40 220 40 188 c 0,5,6
 40 138 40 138 62 100 c 128,-1,7
 84 62 84 62 123 36.5 c 128,-1,8
 162 11 162 11 214.5 -2 c 128,-1,9
 267 -15 267 -15 329 -15 c 0,10,11
 392 -15 392 -15 444.5 -1.5 c 128,-1,12
 497 12 497 12 535.5 39 c 128,-1,13
 574 66 574 66 595 105.5 c 128,-1,14
 616 145 616 145 616 198 c 0,15,16
 616 235 616 235 605.5 264.5 c 128,-1,17
 595 294 595 294 577 317 c 128,-1,18
 559 340 559 340 535.5 358 c 128,-1,19
 512 376 512 376 485 390 c 1,20,21
 520 409 520 409 543 439.5 c 128,-1,22
 566 470 566 470 566 524 c 0,23,24
 566 567 566 567 545.5 598.5 c 128,-1,25
 525 630 525 630 491.5 650.5 c 128,-1,26
 458 671 458 671 415.5 681 c 128,-1,27
 373 691 373 691 328 691 c 256,28,29
 283 691 283 691 240.5 679.5 c 128,-1,30
 198 668 198 668 164.5 645 c 128,-1,31
 131 622 131 622 110.5 587 c 128,-1,32
 90 552 90 552 90 504 c 0,33,34
 90 447 90 447 111 408 c 128,-1,35
 132 369 132 369 164 343 c 1,0,1
278 278 m 1,36,37
 305 267 305 267 329.5 257 c 128,-1,38
 354 247 354 247 372.5 235.5 c 128,-1,39
 391 224 391 224 402.5 210 c 128,-1,40
 414 196 414 196 414 178 c 0,41,42
 414 159 414 159 392.5 143.5 c 128,-1,43
 371 128 371 128 330 128 c 256,44,45
 289 128 289 128 267.5 150 c 128,-1,46
 246 172 246 172 246 198 c 256,47,48
 246 224 246 224 254.5 243.5 c 128,-1,49
 263 263 263 263 278 278 c 1,36,37
372 429 m 1,50,51
 347 438 347 438 325.5 447 c 128,-1,52
 304 456 304 456 288 466.5 c 128,-1,53
 272 477 272 477 263 489.5 c 128,-1,54
 254 502 254 502 254 518 c 0,55,56
 254 537 254 537 270.5 552.5 c 128,-1,57
 287 568 287 568 329 568 c 0,58,59
 370 568 370 568 386 546 c 128,-1,60
 402 524 402 524 402 498 c 0,61,62
 402 475 402 475 394 458.5 c 128,-1,63
 386 442 386 442 372 429 c 1,50,51
EndSplineSet
Validated: 9
EndChar

StartChar: three
Encoding: 51 51 66
Width: 562
Flags: W
HStem: -15 158<129.502 306.983> 283 124<141 272.58> 522 165<146.522 306.311>
VStem: 317 173<439.389 539> 322 199<154.862 242.472>
LayerCount: 2
Fore
SplineSet
60 29 m 1,0,1
 108 11 108 11 164.5 -2 c 128,-1,2
 221 -15 221 -15 275 -15 c 0,3,4
 324 -15 324 -15 368.5 -2.5 c 128,-1,5
 413 10 413 10 447 34.5 c 128,-1,6
 481 59 481 59 501 95 c 128,-1,7
 521 131 521 131 521 179 c 0,8,9
 521 187 521 187 519 209 c 128,-1,10
 517 231 517 231 505 258 c 128,-1,11
 493 285 493 285 467.5 313 c 128,-1,12
 442 341 442 341 396 361 c 1,13,14
 490 422 490 422 490 524 c 0,15,16
 490 554 490 554 475.5 583.5 c 128,-1,17
 461 613 461 613 434 636 c 128,-1,18
 407 659 407 659 369 673 c 128,-1,19
 331 687 331 687 285 687 c 0,20,21
 228 687 228 687 168.5 671.5 c 128,-1,22
 109 656 109 656 60 633 c 1,23,-1
 94 492 l 1,24,25
 136 504 136 504 181.5 513 c 128,-1,26
 227 522 227 522 263 522 c 0,27,28
 286 522 286 522 301.5 511.5 c 128,-1,29
 317 501 317 501 317 481 c 0,30,31
 317 468 317 468 309.5 454.5 c 128,-1,32
 302 441 302 441 282 430.5 c 128,-1,33
 262 420 262 420 228 413.5 c 128,-1,34
 194 407 194 407 141 407 c 1,35,-1
 141 283 l 1,36,37
 171 283 171 283 203 279.5 c 128,-1,38
 235 276 235 276 261.5 266 c 128,-1,39
 288 256 288 256 305 237.5 c 128,-1,40
 322 219 322 219 322 190 c 0,41,42
 322 167 322 167 302 155 c 128,-1,43
 282 143 282 143 247 143 c 0,44,45
 227 143 227 143 206 146 c 128,-1,46
 185 149 185 149 164.5 153.5 c 128,-1,47
 144 158 144 158 125.5 164 c 128,-1,48
 107 170 107 170 94 175 c 1,49,-1
 60 29 l 1,0,1
EndSplineSet
Validated: 9
EndChar

StartChar: z
Encoding: 122 122 67
Width: 610
Flags: W
LayerCount: 2
Fore
SplineSet
91 0 m 1,0,-1
 519 0 l 1,1,-1
 519 128 l 1,2,-1
 359 128 l 1,3,-1
 514 393 l 1,4,-1
 514 501 l 1,5,-1
 98 501 l 1,6,-1
 98 373 l 1,7,-1
 267 373 l 1,8,-1
 91 108 l 1,9,-1
 91 0 l 1,0,-1
EndSplineSet
Validated: 9
EndChar

StartChar: zero
Encoding: 48 48 68
Width: 746
Flags: W
HStem: -15 180<321.226 424.89> 510 181<319.506 426.347>
VStem: 45 224<228.66 447.497> 477 224<228.66 447.497>
LayerCount: 2
Fore
SplineSet
373 -15 m 0,0,1
 455 -15 455 -15 516.5 15.5 c 128,-1,2
 578 46 578 46 619 95.5 c 128,-1,3
 660 145 660 145 680.5 208.5 c 128,-1,4
 701 272 701 272 701 338 c 256,5,6
 701 404 701 404 680.5 467 c 128,-1,7
 660 530 660 530 618.5 580 c 128,-1,8
 577 630 577 630 515.5 660.5 c 128,-1,9
 454 691 454 691 373 691 c 256,10,11
 292 691 292 691 230.5 660.5 c 128,-1,12
 169 630 169 630 128 580 c 128,-1,13
 87 530 87 530 66 467 c 128,-1,14
 45 404 45 404 45 338 c 256,15,16
 45 272 45 272 65.5 208.5 c 128,-1,17
 86 145 86 145 127.5 95.5 c 128,-1,18
 169 46 169 46 230.5 15.5 c 128,-1,19
 292 -15 292 -15 373 -15 c 0,0,1
373 165 m 0,20,21
 347 165 347 165 328 180 c 128,-1,22
 309 195 309 195 295.5 219.5 c 128,-1,23
 282 244 282 244 275.5 275 c 128,-1,24
 269 306 269 306 269 338 c 0,25,26
 269 371 269 371 275.5 402 c 128,-1,27
 282 433 282 433 295.5 457 c 128,-1,28
 309 481 309 481 328 495.5 c 128,-1,29
 347 510 347 510 373 510 c 0,30,31
 398 510 398 510 417.5 495.5 c 128,-1,32
 437 481 437 481 450.5 457 c 128,-1,33
 464 433 464 433 470.5 402 c 128,-1,34
 477 371 477 371 477 338 c 0,35,36
 477 306 477 306 470.5 275 c 128,-1,37
 464 244 464 244 450.5 219.5 c 128,-1,38
 437 195 437 195 417.5 180 c 128,-1,39
 398 165 398 165 373 165 c 0,20,21
EndSplineSet
Validated: 9
EndChar

StartChar: dollar
Encoding: 36 36 69
Width: 546
Flags: W
HStem: -14 146<111.497 221> 549 140<322 409.579>
VStem: 366 166<153.171 222.077>
LayerCount: 2
Fore
SplineSet
32 43 m 1,0,1
 77 16 77 16 127 3 c 128,-1,2
 177 -10 177 -10 221 -14 c 1,3,-1
 221 -91 l 1,4,-1
 322 -91 l 1,5,-1
 322 -10 l 1,6,7
 369 -7 369 -7 407.5 10.5 c 128,-1,8
 446 28 446 28 474 55.5 c 128,-1,9
 502 83 502 83 517 117.5 c 128,-1,10
 532 152 532 152 532 188 c 0,11,12
 532 218 532 218 520 249 c 128,-1,13
 508 280 508 280 482.5 309 c 128,-1,14
 457 338 457 338 417.5 363.5 c 128,-1,15
 378 389 378 389 322 408 c 1,16,-1
 322 549 l 1,17,18
 354 545 354 545 388.5 534 c 128,-1,19
 423 523 423 523 443 516 c 1,20,-1
 493 630 l 1,21,22
 455 653 455 653 412.5 668.5 c 128,-1,23
 370 684 370 684 322 689 c 1,24,-1
 322 770 l 1,25,-1
 221 770 l 1,26,-1
 221 686 l 1,27,28
 182 681 182 681 146 667.5 c 128,-1,29
 110 654 110 654 83 629.5 c 128,-1,30
 56 605 56 605 39.5 567.5 c 128,-1,31
 23 530 23 530 23 477 c 0,32,33
 23 418 23 418 43.5 380 c 128,-1,34
 64 342 64 342 94.5 318.5 c 128,-1,35
 125 295 125 295 159.5 283 c 128,-1,36
 194 271 194 271 221 264 c 1,37,-1
 221 132 l 1,38,39
 192 134 192 134 156.5 142 c 128,-1,40
 121 150 121 150 82 163 c 1,41,-1
 32 43 l 1,0,1
221 437 m 1,42,43
 197 447 197 447 189.5 459.5 c 128,-1,44
 182 472 182 472 182 488 c 0,45,46
 182 506 182 506 192.5 518 c 128,-1,47
 203 530 203 530 221 538 c 1,48,-1
 221 437 l 1,42,43
322 232 m 1,49,50
 343 226 343 226 354.5 213 c 128,-1,51
 366 200 366 200 366 189 c 0,52,53
 366 169 366 169 354 159.5 c 128,-1,54
 342 150 342 150 322 142 c 1,55,-1
 322 232 l 1,49,50
EndSplineSet
Validated: 9
EndChar

StartChar: bracketleft
Encoding: 91 91 70
Width: 533
Flags: W
LayerCount: 2
Fore
SplineSet
90 0 m 1,0,-1
 445 0 l 1,1,-1
 445 148 l 1,2,-1
 305 148 l 1,3,-1
 305 524 l 1,4,-1
 445 524 l 1,5,-1
 445 672 l 1,6,-1
 90 672 l 1,7,-1
 90 0 l 1,0,-1
EndSplineSet
Validated: 9
EndChar

StartChar: bracketright
Encoding: 93 93 71
Width: 533
Flags: W
LayerCount: 2
Fore
SplineSet
90 0 m 1,0,-1
 445 0 l 1,1,-1
 445 672 l 1,2,-1
 90 672 l 1,3,-1
 90 524 l 1,4,-1
 230 524 l 1,5,-1
 230 148 l 1,6,-1
 90 148 l 1,7,-1
 90 0 l 1,0,-1
EndSplineSet
Validated: 9
EndChar

StartChar: comma
Encoding: 44 44 72
Width: 348
Flags: W
VStem: 183 108<-44.3269 0>
LayerCount: 2
Fore
SplineSet
90 -169 m 1,0,1
 141 -169 141 -169 175.5 -165 c 128,-1,2
 210 -161 210 -161 232 -148 c 128,-1,3
 254 -135 254 -135 266 -111 c 128,-1,4
 278 -87 278 -87 283.5 -47.5 c 128,-1,5
 289 -8 289 -8 291 49.5 c 128,-1,6
 293 107 293 107 295 187 c 1,7,-1
 90 187 l 1,8,-1
 90 0 l 1,9,-1
 183 0 l 1,10,11
 183 -18 183 -18 181.5 -28.5 c 128,-1,12
 180 -39 180 -39 171.5 -44.5 c 128,-1,13
 163 -50 163 -50 144 -51 c 128,-1,14
 125 -52 125 -52 90 -52 c 1,15,-1
 90 -169 l 1,0,1
EndSplineSet
Validated: 9
EndChar

StartChar: ampersand
Encoding: 38 38 73
Width: 701
Flags: W
HStem: -15 147<234.202 338.778> 560 131<298.345 378.137>
VStem: 41 178<148.373 246.306> 111 177<468.002 550.865> 387 157<466.654 550.364>
LayerCount: 2
Fore
SplineSet
484 0 m 1,0,-1
 685 0 l 1,1,-1
 567 136 l 1,2,3
 602 167 602 167 620 194.5 c 128,-1,4
 638 222 638 222 651 246 c 1,5,-1
 561 342 l 1,6,-1
 481 256 l 1,7,8
 458 283 458 283 443.5 301.5 c 128,-1,9
 429 320 429 320 413 338 c 1,10,11
 479 367 479 367 511.5 416.5 c 128,-1,12
 544 466 544 466 544 518 c 0,13,14
 544 551 544 551 531 582.5 c 128,-1,15
 518 614 518 614 492 638 c 128,-1,16
 466 662 466 662 428 676.5 c 128,-1,17
 390 691 390 691 339 691 c 0,18,19
 293 691 293 691 252 678 c 128,-1,20
 211 665 211 665 179.5 641.5 c 128,-1,21
 148 618 148 618 129.5 586 c 128,-1,22
 111 554 111 554 111 516 c 0,23,24
 111 448 111 448 180 371 c 1,25,26
 151 358 151 358 125.5 342 c 128,-1,27
 100 326 100 326 81 304 c 128,-1,28
 62 282 62 282 51.5 253.5 c 128,-1,29
 41 225 41 225 41 188 c 0,30,31
 41 138 41 138 59 100 c 128,-1,32
 77 62 77 62 107.5 36.5 c 128,-1,33
 138 11 138 11 180 -2 c 128,-1,34
 222 -15 222 -15 270 -15 c 0,35,36
 317 -15 317 -15 358.5 6 c 128,-1,37
 400 27 400 27 433 53 c 1,38,-1
 484 0 l 1,0,-1
339 154 m 1,39,40
 333 147 333 147 324 143 c 1,41,42
 316 138 316 138 305 135 c 128,-1,43
 294 132 294 132 279 132 c 0,44,45
 250 132 250 132 234.5 151 c 128,-1,46
 219 170 219 170 219 195 c 0,47,48
 219 213 219 213 228 230 c 128,-1,49
 237 247 237 247 257 258 c 1,50,-1
 339 154 l 1,39,40
337 443 m 1,51,52
 314 461 314 461 301 478 c 128,-1,53
 288 495 288 495 288 514 c 0,54,55
 288 537 288 537 302 548.5 c 128,-1,56
 316 560 316 560 340 560 c 256,57,58
 364 560 364 560 375.5 546.5 c 128,-1,59
 387 533 387 533 387 514 c 0,60,61
 387 489 387 489 376.5 472.5 c 128,-1,62
 366 456 366 456 337 443 c 1,51,52
EndSplineSet
Validated: 9
EndChar

StartChar: exclam
Encoding: 33 33 74
Width: 350
Flags: W
HStem: -15 202<109.676 247.324>
VStem: 66 225<27.1177 145.706>
LayerCount: 2
Fore
SplineSet
110 252 m 1,0,-1
 241 252 l 1,1,-1
 281 535 l 1,2,-1
 281 691 l 1,3,-1
 70 691 l 1,4,-1
 70 535 l 1,5,-1
 110 252 l 1,0,-1
66 86 m 0,6,7
 66 66 66 66 75 47.5 c 128,-1,8
 84 29 84 29 99.5 15 c 128,-1,9
 115 1 115 1 135.5 -7 c 128,-1,10
 156 -15 156 -15 179 -15 c 0,11,12
 201 -15 201 -15 221.5 -7 c 128,-1,13
 242 1 242 1 257.5 15 c 128,-1,14
 273 29 273 29 282 47.5 c 128,-1,15
 291 66 291 66 291 86 c 0,16,17
 291 107 291 107 282 125.5 c 128,-1,18
 273 144 273 144 257.5 157.5 c 128,-1,19
 242 171 242 171 221.5 179 c 128,-1,20
 201 187 201 187 179 187 c 0,21,22
 156 187 156 187 135.5 179 c 128,-1,23
 115 171 115 171 99.5 157.5 c 128,-1,24
 84 144 84 144 75 125.5 c 128,-1,25
 66 107 66 107 66 86 c 0,6,7
EndSplineSet
Validated: 9
EndChar

StartChar: k.alt2
Encoding: 65541 -1 75
Width: 683
Flags: W
LayerCount: 2
Fore
SplineSet
87 0 m 1,0,-1
 298 0 l 1,1,-1
 298 138 l 1,2,-1
 362 191 l 1,3,4
 370 162 370 162 386 125.5 c 128,-1,5
 402 89 402 89 432.5 56.5 c 128,-1,6
 463 24 463 24 511 2 c 128,-1,7
 559 -20 559 -20 633 -20 c 1,8,-1
 653 169 l 1,9,10
 612 169 612 169 585.5 184 c 128,-1,11
 559 199 559 199 542.5 219.5 c 128,-1,12
 526 240 526 240 518.5 260 c 128,-1,13
 511 280 511 280 509 289 c 1,14,-1
 671 402 l 1,15,-1
 555 558 l 1,16,-1
 298 348 l 1,17,-1
 298 672 l 1,18,-1
 87 640 l 1,19,-1
 87 0 l 1,0,-1
EndSplineSet
Validated: 9
EndChar

StartChar: K.alt
Encoding: 65542 -1 76
Width: 812
Flags: W
HStem: -11 178<630.453 728>
LayerCount: 2
Fore
SplineSet
93 0 m 1,0,-1
 308 0 l 1,1,-1
 308 274 l 1,2,-1
 377 274 l 1,3,4
 409 124 409 124 477 56.5 c 128,-1,5
 545 -11 545 -11 658 -11 c 0,6,7
 675 -11 675 -11 691.5 -9.5 c 128,-1,8
 708 -8 708 -8 728 -6 c 1,9,-1
 745 171 l 1,10,11
 734 170 734 170 722 168.5 c 128,-1,12
 710 167 710 167 699 167 c 0,13,14
 665 167 665 167 643 179.5 c 128,-1,15
 621 192 621 192 606.5 216.5 c 128,-1,16
 592 241 592 241 583 277 c 128,-1,17
 574 313 574 313 566 361 c 1,18,-1
 699 627 l 1,19,-1
 699 672 l 1,20,-1
 497 672 l 1,21,-1
 381 416 l 1,22,-1
 308 416 l 1,23,-1
 308 672 l 1,24,-1
 93 672 l 1,25,-1
 93 0 l 1,0,-1
EndSplineSet
Validated: 9
EndChar

StartChar: R.alt
Encoding: 65543 -1 77
Width: 763
Flags: W
HStem: 524 148<369 455.5>
VStem: 474 200<415.511 504.62>
LayerCount: 2
Fore
SplineSet
86 0 m 1,0,-1
 301 0 l 1,1,-1
 301 245 l 1,2,-1
 363 245 l 1,3,4
 376 176 376 176 413 120 c 0,5,6
 429 96 429 96 451.5 72 c 128,-1,7
 474 48 474 48 504.5 28 c 128,-1,8
 535 8 535 8 575 -6 c 128,-1,9
 615 -20 615 -20 665 -25 c 1,10,-1
 723 148 l 1,11,12
 697 150 697 150 669.5 159 c 128,-1,13
 642 168 642 168 617 184 c 128,-1,14
 592 200 592 200 572 224 c 128,-1,15
 552 248 552 248 543 280 c 1,16,17
 610 312 610 312 642 363.5 c 128,-1,18
 674 415 674 415 674 470 c 0,19,20
 674 508 674 508 656.5 544.5 c 128,-1,21
 639 581 639 581 603.5 609.5 c 128,-1,22
 568 638 568 638 514 655 c 128,-1,23
 460 672 460 672 388 672 c 2,24,-1
 86 672 l 1,25,-1
 86 0 l 1,0,-1
302 524 m 1,26,-1
 369 524 l 2,27,28
 401 524 401 524 421.5 518.5 c 128,-1,29
 442 513 442 513 453.5 504 c 128,-1,30
 465 495 465 495 469.5 483.5 c 128,-1,31
 474 472 474 472 474 460 c 0,32,33
 474 433 474 433 459 418 c 128,-1,34
 444 403 444 403 419.5 396 c 128,-1,35
 395 389 395 389 364 387.5 c 128,-1,36
 333 386 333 386 302 386 c 1,37,-1
 302 524 l 1,26,-1
EndSplineSet
Validated: 9
EndChar

StartChar: eacute
Encoding: 233 233 78
Width: 555
Flags: W
HStem: -15 143<252.063 440.449> 387 129<239.94 344.926>
VStem: 14 198<290 357.812>
LayerCount: 2
Fore
SplineSet
477 163 m 1,0,1
 463 158 463 158 445.5 151.5 c 128,-1,2
 428 145 428 145 408.5 140 c 128,-1,3
 389 135 389 135 369 131.5 c 128,-1,4
 349 128 349 128 330 128 c 0,5,6
 293 128 293 128 263.5 142.5 c 128,-1,7
 234 157 234 157 220 198 c 1,8,-1
 520 238 l 1,9,10
 521 243 521 243 521.5 250.5 c 128,-1,11
 522 258 522 258 522 263 c 0,12,13
 522 327 522 327 502.5 375 c 128,-1,14
 483 423 483 423 451 454 c 128,-1,15
 419 485 419 485 377.5 500.5 c 128,-1,16
 336 516 336 516 291 516 c 0,17,18
 240 516 240 516 190.5 498 c 128,-1,19
 141 480 141 480 101.5 446 c 128,-1,20
 62 412 62 412 38 362.5 c 128,-1,21
 14 313 14 313 14 250 c 256,22,23
 14 187 14 187 38 138 c 128,-1,24
 62 89 62 89 101.5 55 c 128,-1,25
 141 21 141 21 192 3 c 128,-1,26
 243 -15 243 -15 297 -15 c 0,27,28
 411 -15 411 -15 502 26 c 1,29,-1
 477 163 l 1,0,1
212 290 m 1,30,31
 214 341 214 341 238 364 c 128,-1,32
 262 387 262 387 291 387 c 0,33,34
 315 387 315 387 336.5 372.5 c 128,-1,35
 358 358 358 358 367 324 c 1,36,-1
 212 290 l 1,30,31
133 562 m 1,37,-1
 466 696 l 1,38,-1
 364 874 l 1,39,-1
 71 669 l 1,40,-1
 133 562 l 1,37,-1
EndSplineSet
Validated: 9
EndChar

StartChar: acute
Encoding: 180 180 79
Width: 400
Flags: W
LayerCount: 2
Fore
SplineSet
64 562 m 1,0,-1
 397 696 l 1,1,-1
 295 874 l 1,2,-1
 2 669 l 1,3,-1
 64 562 l 1,0,-1
EndSplineSet
Validated: 9
EndChar

StartChar: n.alt
Encoding: 65544 -1 80
Width: 744
Flags: W
HStem: 350 166<384.887 487>
LayerCount: 2
Fore
SplineSet
83 0 m 1,0,-1
 294 0 l 1,1,-1
 294 250 l 1,2,-1
 294 254 l 1,3,4
 295 273 295 273 303 290.5 c 128,-1,5
 311 308 311 308 324.5 321 c 128,-1,6
 338 334 338 334 355.5 342 c 128,-1,7
 373 350 373 350 393 350 c 0,8,9
 422 350 422 350 442.5 320.5 c 128,-1,10
 463 291 463 291 463 250 c 2,11,-1
 463 0 l 1,12,-1
 673 0 l 1,13,-1
 673 250 l 2,14,15
 673 313 673 313 655 362.5 c 128,-1,16
 637 412 637 412 608 446 c 128,-1,17
 579 480 579 480 542.5 498 c 128,-1,18
 506 516 506 516 468 516 c 0,19,20
 418 516 418 516 370.5 486 c 128,-1,21
 323 456 323 456 294 392 c 1,22,-1
 294 501 l 1,23,-1
 83 469 l 1,24,-1
 83 0 l 1,0,-1
EndSplineSet
Validated: 9
EndChar

StartChar: semicolon
Encoding: 59 59 81
Width: 325
Flags: W
HStem: 300 202<99.6758 237.324>
VStem: 56 225<341.294 459.882> 162 108<-44.3269 0>
LayerCount: 2
Fore
SplineSet
69 -169 m 1,0,1
 120 -169 120 -169 154.5 -165 c 128,-1,2
 189 -161 189 -161 211 -148 c 128,-1,3
 233 -135 233 -135 245 -111 c 128,-1,4
 257 -87 257 -87 262.5 -47.5 c 128,-1,5
 268 -8 268 -8 270 49.5 c 128,-1,6
 272 107 272 107 274 187 c 1,7,-1
 69 187 l 1,8,-1
 69 0 l 1,9,-1
 162 0 l 1,10,11
 162 -18 162 -18 160.5 -28.5 c 128,-1,12
 159 -39 159 -39 150.5 -44.5 c 128,-1,13
 142 -50 142 -50 123 -51 c 128,-1,14
 104 -52 104 -52 69 -52 c 1,15,-1
 69 -169 l 1,0,1
56 401 m 0,16,17
 56 380 56 380 65 361.5 c 128,-1,18
 74 343 74 343 89.5 329.5 c 128,-1,19
 105 316 105 316 125.5 308 c 128,-1,20
 146 300 146 300 169 300 c 0,21,22
 191 300 191 300 211.5 308 c 128,-1,23
 232 316 232 316 247.5 329.5 c 128,-1,24
 263 343 263 343 272 361.5 c 128,-1,25
 281 380 281 380 281 401 c 0,26,27
 281 421 281 421 272 439.5 c 128,-1,28
 263 458 263 458 247.5 472 c 128,-1,29
 232 486 232 486 211.5 494 c 128,-1,30
 191 502 191 502 169 502 c 0,31,32
 146 502 146 502 125.5 494 c 128,-1,33
 105 486 105 486 89.5 472 c 128,-1,34
 74 458 74 458 65 439.5 c 128,-1,35
 56 421 56 421 56 401 c 0,16,17
EndSplineSet
Validated: 9
EndChar

StartChar: y.alt
Encoding: 65545 -1 82
Width: 687
Flags: W
HStem: -229 153<211.022 383.052> 0 151<246 351.619>
LayerCount: 2
Fore
SplineSet
170 -196 m 1,0,1
 214 -212 214 -212 263 -220.5 c 128,-1,2
 312 -229 312 -229 363 -229 c 0,3,4
 412 -229 412 -229 457 -214 c 128,-1,5
 502 -199 502 -199 536.5 -167 c 128,-1,6
 571 -135 571 -135 591.5 -84.5 c 128,-1,7
 612 -34 612 -34 612 37 c 2,8,-1
 612 501 l 1,9,-1
 401 501 l 1,10,-1
 401 236 l 2,11,12
 401 201 401 201 378.5 176 c 128,-1,13
 356 151 356 151 321 151 c 0,14,15
 309 151 309 151 296.5 158 c 128,-1,16
 284 165 284 165 274 177.5 c 128,-1,17
 264 190 264 190 258 206 c 128,-1,18
 252 222 252 222 252 240 c 2,19,-1
 252 501 l 1,20,-1
 42 501 l 1,21,-1
 42 230 l 2,22,23
 42 176 42 176 62 133.5 c 128,-1,24
 82 91 82 91 114 61.5 c 128,-1,25
 146 32 146 32 186 16 c 128,-1,26
 226 0 226 0 266 0 c 0,27,28
 308 0 308 0 346.5 19 c 128,-1,29
 385 38 385 38 411 83 c 1,30,-1
 411 27 l 2,31,32
 411 -30 411 -30 385 -53 c 128,-1,33
 359 -76 359 -76 320 -76 c 0,34,35
 297 -76 297 -76 271 -71.5 c 128,-1,36
 245 -67 245 -67 216 -62 c 1,37,-1
 170 -196 l 1,0,1
EndSplineSet
Validated: 9
EndChar

StartChar: plus
Encoding: 43 43 83
Width: 487
Flags: W
LayerCount: 2
Fore
SplineSet
215 0 m 1,0,-1
 274 0 l 1,1,-1
 274 224 l 1,2,-1
 487 224 l 1,3,-1
 487 280 l 1,4,-1
 274 280 l 1,5,-1
 274 501 l 1,6,-1
 215 501 l 1,7,-1
 215 280 l 1,8,-1
 0 280 l 1,9,-1
 0 224 l 1,10,-1
 215 224 l 1,11,-1
 215 0 l 1,0,-1
EndSplineSet
Validated: 9
EndChar

StartChar: registered
Encoding: 174 174 84
Width: 711
Flags: W
HStem: -15 59<256.079 454.08> 125 48<443.782 501> 291 46<357 362.761 410 430.287> 439 47<356 429.77> 554 58<256.079 454.08>
VStem: 42 68<194.65 402.642> 436 61<346.267 365.5 389 430.286> 600 69<194.65 402.642>
LayerCount: 2
Fore
SplineSet
236 133 m 1,0,-1
 292 133 l 1,1,-1
 292 291 l 1,2,-1
 357 291 l 1,3,4
 367 253 367 253 375 222 c 128,-1,5
 383 191 383 191 397 169.5 c 128,-1,6
 411 148 411 148 435 136.5 c 128,-1,7
 459 125 459 125 501 125 c 1,8,-1
 514 175 l 1,9,10
 508 173 508 173 502.5 173 c 128,-1,11
 497 173 497 173 492 173 c 0,12,13
 468 173 468 173 454 184.5 c 128,-1,14
 440 196 440 196 431.5 213.5 c 128,-1,15
 423 231 423 231 419 252.5 c 128,-1,16
 415 274 415 274 410 294 c 1,17,18
 437 298 437 298 454 308 c 128,-1,19
 471 318 471 318 480.5 331.5 c 128,-1,20
 490 345 490 345 493.5 360 c 128,-1,21
 497 375 497 375 497 389 c 0,22,23
 497 408 497 408 490.5 425.5 c 128,-1,24
 484 443 484 443 468.5 456.5 c 128,-1,25
 453 470 453 470 426.5 478 c 128,-1,26
 400 486 400 486 361 486 c 2,27,-1
 236 486 l 1,28,-1
 236 133 l 1,0,-1
292 337 m 1,29,-1
 292 439 l 1,30,-1
 356 439 l 2,31,32
 382 439 382 439 398 435.5 c 128,-1,33
 414 432 414 432 422.5 425.5 c 128,-1,34
 431 419 431 419 433.5 410 c 128,-1,35
 436 401 436 401 436 389 c 0,36,37
 436 375 436 375 433.5 365.5 c 128,-1,38
 431 356 431 356 422 350 c 128,-1,39
 413 344 413 344 396 341 c 128,-1,40
 379 338 379 338 351 337 c 1,41,-1
 292 337 l 1,29,-1
355 44 m 256,42,43
 304 44 304 44 259.5 64 c 128,-1,44
 215 84 215 84 182 119 c 128,-1,45
 149 154 149 154 129.5 200 c 128,-1,46
 110 246 110 246 110 299 c 0,47,48
 110 351 110 351 129.5 397.5 c 128,-1,49
 149 444 149 444 182 479 c 128,-1,50
 215 514 215 514 259.5 534 c 128,-1,51
 304 554 304 554 355 554 c 256,52,53
 406 554 406 554 450.5 534 c 128,-1,54
 495 514 495 514 528 479 c 128,-1,55
 561 444 561 444 580.5 397.5 c 128,-1,56
 600 351 600 351 600 299 c 0,57,58
 600 246 600 246 580.5 200 c 128,-1,59
 561 154 561 154 528 119 c 128,-1,60
 495 84 495 84 450.5 64 c 128,-1,61
 406 44 406 44 355 44 c 256,42,43
355 -15 m 256,62,63
 420 -15 420 -15 477 9.5 c 128,-1,64
 534 34 534 34 577 77 c 128,-1,65
 620 120 620 120 644.5 177 c 128,-1,66
 669 234 669 234 669 299 c 0,67,68
 669 363 669 363 644.5 420 c 128,-1,69
 620 477 620 477 577 520 c 128,-1,70
 534 563 534 563 477 587.5 c 128,-1,71
 420 612 420 612 355 612 c 256,72,73
 290 612 290 612 233.5 587.5 c 128,-1,74
 177 563 177 563 134 520 c 128,-1,75
 91 477 91 477 66.5 420 c 128,-1,76
 42 363 42 363 42 299 c 0,77,78
 42 234 42 234 66.5 177 c 128,-1,79
 91 120 91 120 134 77 c 128,-1,80
 177 34 177 34 233.5 9.5 c 128,-1,81
 290 -15 290 -15 355 -15 c 256,62,63
EndSplineSet
Validated: 9
EndChar

StartChar: slash
Encoding: 47 47 85
Width: 233
Flags: W
LayerCount: 2
Fore
SplineSet
0 0 m 1,0,-1
 67 0 l 1,1,-1
 233 672 l 1,2,-1
 164 672 l 1,3,-1
 0 0 l 1,0,-1
EndSplineSet
Validated: 9
EndChar

StartChar: bar
Encoding: 124 124 86
Width: 236
Flags: W
VStem: 90 65
LayerCount: 2
Fore
SplineSet
90 0 m 1,0,-1
 155 0 l 1,1,-1
 155 672 l 1,2,-1
 90 672 l 1,3,-1
 90 0 l 1,0,-1
EndSplineSet
Validated: 9
EndChar

StartChar: backslash
Encoding: 92 92 87
Width: 233
Flags: W
LayerCount: 2
Fore
SplineSet
166 0 m 1,0,-1
 233 0 l 1,1,-1
 69 672 l 1,2,-1
 0 672 l 1,3,-1
 166 0 l 1,0,-1
EndSplineSet
Validated: 9
EndChar

StartChar: fraction
Encoding: 8260 8260 88
Width: 233
Flags: W
LayerCount: 2
Fore
SplineSet
0 0 m 1,0,-1
 67 0 l 1,1,-1
 233 672 l 1,2,-1
 164 672 l 1,3,-1
 0 0 l 1,0,-1
EndSplineSet
Validated: 9
EndChar

StartChar: notequal
Encoding: 8800 8800 89
Width: 306
Flags: W
VStem: 1 305
LayerCount: 2
Fore
SplineSet
53 0 m 1,0,-1
 120 0 l 1,1,-1
 254 501 l 1,2,-1
 185 501 l 1,3,-1
 53 0 l 1,0,-1
1 156 m 1,4,-1
 306 156 l 1,5,-1
 306 216 l 1,6,-1
 1 216 l 1,7,-1
 1 156 l 1,4,-1
1 290 m 1,8,-1
 306 290 l 1,9,-1
 306 352 l 1,10,-1
 1 352 l 1,11,-1
 1 290 l 1,8,-1
EndSplineSet
Validated: 5
EndChar

StartChar: equal
Encoding: 61 61 90
Width: 483
Flags: W
VStem: 90 305
LayerCount: 2
Fore
SplineSet
90 156 m 1,0,-1
 395 156 l 1,1,-1
 395 216 l 1,2,-1
 90 216 l 1,3,-1
 90 156 l 1,0,-1
90 290 m 1,4,-1
 395 290 l 1,5,-1
 395 352 l 1,6,-1
 90 352 l 1,7,-1
 90 290 l 1,4,-1
EndSplineSet
Validated: 9
EndChar

StartChar: oslash
Encoding: 248 248 91
Width: 593
Flags: W
HStem: -34 20G<252.211 261> 515 21G<325 335>
VStem: 20 183<180.238 321.087> 389 185<185.945 319.246>
LayerCount: 2
Fore
SplineSet
184 -85 m 1,0,-1
 240 -85 l 1,1,-1
 257 -14 l 1,2,3
 265 -15 265 -15 271.5 -15 c 128,-1,4
 278 -15 278 -15 286 -15 c 0,5,6
 340 -15 340 -15 391.5 2 c 128,-1,7
 443 19 443 19 483.5 52.5 c 128,-1,8
 524 86 524 86 549 136 c 128,-1,9
 574 186 574 186 574 251 c 0,10,11
 574 302 574 302 559 343.5 c 128,-1,12
 544 385 544 385 518 417 c 128,-1,13
 492 449 492 449 458 470.5 c 128,-1,14
 424 492 424 492 385 504 c 1,15,-1
 406 587 l 1,16,-1
 348 587 l 1,17,-1
 330 515 l 1,18,-1
 329 515 l 1,19,20
 321 516 321 516 314 516 c 128,-1,21
 307 516 307 516 299 516 c 0,22,23
 246 516 246 516 196 499 c 128,-1,24
 146 482 146 482 107 448.5 c 128,-1,25
 68 415 68 415 44 365.5 c 128,-1,26
 20 316 20 316 20 251 c 0,27,28
 20 200 20 200 34.5 159 c 128,-1,29
 49 118 49 118 74 86.5 c 128,-1,30
 99 55 99 55 132.5 33 c 128,-1,31
 166 11 166 11 204 -1 c 1,32,-1
 184 -85 l 1,0,-1
345 342 m 1,33,34
 365 327 365 327 377 303 c 128,-1,35
 389 279 389 279 389 251 c 0,36,37
 389 230 389 230 381.5 211.5 c 128,-1,38
 374 193 374 193 361 178 c 128,-1,39
 348 163 348 163 331.5 153.5 c 128,-1,40
 315 144 315 144 296 141 c 1,41,-1
 345 342 l 1,33,34
244 160 m 1,42,43
 225 175 225 175 214 199 c 128,-1,44
 203 223 203 223 203 251 c 0,45,46
 203 272 203 272 210 292 c 128,-1,47
 217 312 217 312 229 327 c 128,-1,48
 241 342 241 342 257.5 351 c 128,-1,49
 274 360 274 360 293 361 c 1,50,-1
 244 160 l 1,42,43
EndSplineSet
Validated: 9
EndChar

StartChar: oslash.alt
Encoding: 65546 -1 92
Width: 616
Flags: W
VStem: 20 183<184.128 317.797> 411 185<185.799 316.13>
LayerCount: 2
Fore
SplineSet
306 141 m 0,0,1
 284 141 284 141 265.5 150 c 128,-1,2
 247 159 247 159 233 174 c 128,-1,3
 219 189 219 189 211 209 c 128,-1,4
 203 229 203 229 203 251 c 256,5,6
 203 273 203 273 211 293 c 128,-1,7
 219 313 219 313 233 328 c 128,-1,8
 247 343 247 343 265.5 352 c 128,-1,9
 284 361 284 361 306 361 c 0,10,11
 327 361 327 361 346 352 c 128,-1,12
 365 343 365 343 379.5 328 c 128,-1,13
 394 313 394 313 402.5 293 c 128,-1,14
 411 273 411 273 411 251 c 256,15,16
 411 229 411 229 402.5 209 c 128,-1,17
 394 189 394 189 379.5 174 c 128,-1,18
 365 159 365 159 346 150 c 128,-1,19
 327 141 327 141 306 141 c 0,0,1
20 251 m 256,20,21
 20 186 20 186 44.5 136 c 128,-1,22
 69 86 69 86 109.5 52.5 c 128,-1,23
 150 19 150 19 202 2 c 128,-1,24
 254 -15 254 -15 308 -15 c 256,25,26
 362 -15 362 -15 413.5 2 c 128,-1,27
 465 19 465 19 505.5 52.5 c 128,-1,28
 546 86 546 86 571 136 c 128,-1,29
 596 186 596 186 596 251 c 256,30,31
 596 316 596 316 571 365.5 c 128,-1,32
 546 415 546 415 505.5 448.5 c 128,-1,33
 465 482 465 482 413.5 499 c 128,-1,34
 362 516 362 516 309 516 c 0,35,36
 255 516 255 516 203 499 c 128,-1,37
 151 482 151 482 110.5 448.5 c 128,-1,38
 70 415 70 415 45 365.5 c 128,-1,39
 20 316 20 316 20 251 c 256,20,21
193 -85 m 1,40,-1
 260 -85 l 1,41,-1
 426 587 l 1,42,-1
 357 587 l 1,43,-1
 193 -85 l 1,40,-1
EndSplineSet
Validated: 5
EndChar

StartChar: colon
Encoding: 58 58 93
Width: 322
Flags: W
HStem: 0 202<91.6758 229.324> 300 202<91.6758 229.324>
VStem: 48 225<41.2939 159.882 341.294 459.882>
LayerCount: 2
Fore
SplineSet
48 101 m 0,0,1
 48 80 48 80 57 61.5 c 128,-1,2
 66 43 66 43 81.5 29.5 c 128,-1,3
 97 16 97 16 117.5 8 c 128,-1,4
 138 0 138 0 161 0 c 0,5,6
 183 0 183 0 203.5 8 c 128,-1,7
 224 16 224 16 239.5 29.5 c 128,-1,8
 255 43 255 43 264 61.5 c 128,-1,9
 273 80 273 80 273 101 c 0,10,11
 273 121 273 121 264 139.5 c 128,-1,12
 255 158 255 158 239.5 172 c 128,-1,13
 224 186 224 186 203.5 194 c 128,-1,14
 183 202 183 202 161 202 c 0,15,16
 138 202 138 202 117.5 194 c 128,-1,17
 97 186 97 186 81.5 172 c 128,-1,18
 66 158 66 158 57 139.5 c 128,-1,19
 48 121 48 121 48 101 c 0,0,1
48 401 m 0,20,21
 48 380 48 380 57 361.5 c 128,-1,22
 66 343 66 343 81.5 329.5 c 128,-1,23
 97 316 97 316 117.5 308 c 128,-1,24
 138 300 138 300 161 300 c 0,25,26
 183 300 183 300 203.5 308 c 128,-1,27
 224 316 224 316 239.5 329.5 c 128,-1,28
 255 343 255 343 264 361.5 c 128,-1,29
 273 380 273 380 273 401 c 0,30,31
 273 421 273 421 264 439.5 c 128,-1,32
 255 458 255 458 239.5 472 c 128,-1,33
 224 486 224 486 203.5 494 c 128,-1,34
 183 502 183 502 161 502 c 0,35,36
 138 502 138 502 117.5 494 c 128,-1,37
 97 486 97 486 81.5 472 c 128,-1,38
 66 458 66 458 57 439.5 c 128,-1,39
 48 421 48 421 48 401 c 0,20,21
EndSplineSet
Validated: 9
EndChar

StartChar: paragraph
Encoding: 182 182 94
Width: 550
Flags: W
VStem: 2 317<426.066 581.562>
LayerCount: 2
Fore
SplineSet
238 0 m 1,0,-1
 319 0 l 1,1,-1
 319 597 l 1,2,-1
 381 597 l 1,3,-1
 381 0 l 1,4,-1
 461 0 l 1,5,-1
 461 672 l 1,6,-1
 238 672 l 2,7,8
 177 672 177 672 132.5 657.5 c 128,-1,9
 88 643 88 643 59 620 c 128,-1,10
 30 597 30 597 16 567 c 128,-1,11
 2 537 2 537 2 506 c 256,12,13
 2 475 2 475 14.5 445 c 128,-1,14
 27 415 27 415 51.5 392 c 128,-1,15
 76 369 76 369 112.5 354.5 c 128,-1,16
 149 340 149 340 196 340 c 2,17,-1
 238 340 l 1,18,-1
 238 0 l 1,0,-1
EndSplineSet
Validated: 9
EndChar

StartChar: yen
Encoding: 165 165 95
Width: 569
Flags: W
LayerCount: 2
Fore
SplineSet
75 86 m 1,0,-1
 226 86 l 1,1,-1
 226 0 l 1,2,-1
 341 0 l 1,3,-1
 341 86 l 1,4,-1
 500 86 l 1,5,-1
 500 146 l 1,6,-1
 341 146 l 1,7,-1
 341 190 l 1,8,-1
 500 190 l 1,9,-1
 500 252 l 1,10,-1
 367 252 l 1,11,-1
 545 672 l 1,12,-1
 414 672 l 1,13,-1
 284 309 l 1,14,-1
 153 672 l 1,15,-1
 22 672 l 1,16,-1
 200 252 l 1,17,-1
 75 252 l 1,18,-1
 75 190 l 1,19,-1
 226 190 l 1,20,-1
 226 146 l 1,21,-1
 75 146 l 1,22,-1
 75 86 l 1,0,-1
EndSplineSet
Validated: 9
EndChar

StartChar: four
Encoding: 52 52 96
Width: 642
Flags: W
LayerCount: 2
Fore
SplineSet
4 160 m 1,0,-1
 292 160 l 1,1,-1
 292 0 l 1,2,-1
 520 0 l 1,3,-1
 520 159 l 1,4,-1
 606 159 l 1,5,-1
 606 304 l 1,6,-1
 520 304 l 1,7,-1
 520 672 l 1,8,-1
 282 672 l 1,9,-1
 4 304 l 1,10,-1
 4 160 l 1,0,-1
159 304 m 1,11,-1
 292 491 l 1,12,-1
 292 304 l 1,13,-1
 159 304 l 1,11,-1
EndSplineSet
Validated: 9
EndChar

StartChar: five
Encoding: 53 53 97
Width: 587
Flags: W
HStem: -15 158<137.901 315.464> 293 155<226.532 363>
VStem: 338 208<166.335 273.855>
LayerCount: 2
Fore
SplineSet
75 29 m 1,0,1
 118 11 118 11 169 -2 c 128,-1,2
 220 -15 220 -15 270 -15 c 0,3,4
 324 -15 324 -15 374 -0.5 c 128,-1,5
 424 14 424 14 462.5 42.5 c 128,-1,6
 501 71 501 71 523.5 112 c 128,-1,7
 546 153 546 153 546 206 c 0,8,9
 546 246 546 246 535 288.5 c 128,-1,10
 524 331 524 331 498.5 366.5 c 128,-1,11
 473 402 473 402 432.5 425 c 128,-1,12
 392 448 392 448 334 448 c 0,13,14
 309 448 309 448 283.5 442 c 128,-1,15
 258 436 258 436 226 426 c 1,16,-1
 238 524 l 1,17,-1
 479 524 l 1,18,-1
 493 672 l 1,19,-1
 98 672 l 1,20,-1
 72 299 l 1,21,-1
 179 252 l 1,22,23
 239 293 239 293 279 293 c 0,24,25
 308 293 308 293 323 270.5 c 128,-1,26
 338 248 338 248 338 220 c 0,27,28
 338 191 338 191 318 167 c 128,-1,29
 298 143 298 143 256 143 c 0,30,31
 217 143 217 143 174 150.5 c 128,-1,32
 131 158 131 158 89 175 c 1,33,-1
 75 29 l 1,0,1
EndSplineSet
Validated: 9
EndChar

StartChar: numbersign
Encoding: 35 35 98
Width: 502
Flags: W
LayerCount: 2
Fore
SplineSet
34 0 m 1,0,-1
 121 0 l 1,1,-1
 181 245 l 1,2,-1
 277 245 l 1,3,-1
 217 0 l 1,4,-1
 304 0 l 1,5,-1
 364 245 l 1,6,-1
 458 245 l 1,7,-1
 466 305 l 1,8,-1
 379 305 l 1,9,-1
 397 379 l 1,10,-1
 477 379 l 1,11,-1
 485 441 l 1,12,-1
 413 441 l 1,13,-1
 470 672 l 1,14,-1
 381 672 l 1,15,-1
 324 441 l 1,16,-1
 230 441 l 1,17,-1
 287 672 l 1,18,-1
 198 672 l 1,19,-1
 141 441 l 1,20,-1
 44 441 l 1,21,-1
 36 379 l 1,22,-1
 126 379 l 1,23,-1
 108 305 l 1,24,-1
 26 305 l 1,25,-1
 18 245 l 1,26,-1
 94 245 l 1,27,-1
 34 0 l 1,0,-1
196 305 m 1,28,-1
 214 379 l 1,29,-1
 309 379 l 1,30,-1
 291 305 l 1,31,-1
 196 305 l 1,28,-1
EndSplineSet
Validated: 9
EndChar

StartChar: dotlessi
Encoding: 305 305 99
Width: 398
Flags: W
HStem: -15 162<231.5 356.247>
LayerCount: 2
Fore
SplineSet
72 185 m 2,0,1
 72 132 72 132 86.5 94 c 128,-1,2
 101 56 101 56 125.5 32 c 128,-1,3
 150 8 150 8 182 -3.5 c 128,-1,4
 214 -15 214 -15 249 -15 c 0,5,6
 283 -15 283 -15 316 -7 c 128,-1,7
 349 1 349 1 380 19 c 1,8,-1
 369 158 l 1,9,10
 347 147 347 147 326 147 c 0,11,12
 309 147 309 147 296 159 c 128,-1,13
 283 171 283 171 283 199 c 2,14,-1
 283 501 l 1,15,-1
 72 501 l 1,16,-1
 72 185 l 2,0,1
EndSplineSet
Validated: 9
EndChar

StartChar: copyright
Encoding: 169 169 100
Width: 711
Flags: W
HStem: -15 59<256.079 454.08> 113 63<298.912 373 417 465.188> 421 63<300.346 460.101> 554 58<256.079 454.08>
VStem: 42 68<194.65 402.642> 175 79<221.495 375.51> 600 69<194.65 402.642>
LayerCount: 2
Fore
SplineSet
355 44 m 256,0,1
 304 44 304 44 259.5 64 c 128,-1,2
 215 84 215 84 182 119 c 128,-1,3
 149 154 149 154 129.5 200 c 128,-1,4
 110 246 110 246 110 299 c 0,5,6
 110 351 110 351 129.5 397.5 c 128,-1,7
 149 444 149 444 182 479 c 128,-1,8
 215 514 215 514 259.5 534 c 128,-1,9
 304 554 304 554 355 554 c 256,10,11
 406 554 406 554 450.5 534 c 128,-1,12
 495 514 495 514 528 479 c 128,-1,13
 561 444 561 444 580.5 397.5 c 128,-1,14
 600 351 600 351 600 299 c 0,15,16
 600 246 600 246 580.5 200 c 128,-1,17
 561 154 561 154 528 119 c 128,-1,18
 495 84 495 84 450.5 64 c 128,-1,19
 406 44 406 44 355 44 c 256,0,1
355 -15 m 256,20,21
 420 -15 420 -15 477 9.5 c 128,-1,22
 534 34 534 34 577 77 c 128,-1,23
 620 120 620 120 644.5 177 c 128,-1,24
 669 234 669 234 669 299 c 0,25,26
 669 363 669 363 644.5 420 c 128,-1,27
 620 477 620 477 577 520 c 128,-1,28
 534 563 534 563 477 587.5 c 128,-1,29
 420 612 420 612 355 612 c 256,30,31
 290 612 290 612 233.5 587.5 c 128,-1,32
 177 563 177 563 134 520 c 128,-1,33
 91 477 91 477 66.5 420 c 128,-1,34
 42 363 42 363 42 299 c 0,35,36
 42 234 42 234 66.5 177 c 128,-1,37
 91 120 91 120 134 77 c 128,-1,38
 177 34 177 34 233.5 9.5 c 128,-1,39
 290 -15 290 -15 355 -15 c 256,20,21
466 197 m 1,40,41
 440 186 440 186 417 181 c 128,-1,42
 394 176 394 176 373 176 c 0,43,44
 318 176 318 176 286 209 c 128,-1,45
 254 242 254 242 254 298 c 0,46,47
 254 358 254 358 288 389.5 c 128,-1,48
 322 421 322 421 374 421 c 0,49,50
 396 421 396 421 419.5 415.5 c 128,-1,51
 443 410 443 410 468 398 c 1,52,-1
 477 453 l 1,53,54
 450 469 450 469 421.5 476.5 c 128,-1,55
 393 484 393 484 364 484 c 0,56,57
 327 484 327 484 293 471 c 128,-1,58
 259 458 259 458 232.5 434 c 128,-1,59
 206 410 206 410 190.5 375.5 c 128,-1,60
 175 341 175 341 175 298 c 0,61,62
 175 251 175 251 191 216.5 c 128,-1,63
 207 182 207 182 233 159 c 128,-1,64
 259 136 259 136 293.5 124.5 c 128,-1,65
 328 113 328 113 366 113 c 0,66,67
 394 113 394 113 422 119 c 128,-1,68
 450 125 450 125 476 138 c 1,69,-1
 466 197 l 1,40,41
EndSplineSet
Validated: 9
EndChar

StartChar: cent
Encoding: 162 162 101
Width: 535
Flags: W
HStem: -15 163<280.196 418.06> 352 164<280.412 411.723>
VStem: 37 208<184.044 316.507>
LayerCount: 2
Fore
SplineSet
440 164 m 1,0,1
 388 148 388 148 346 148 c 0,2,3
 301 148 301 148 273 176.5 c 128,-1,4
 245 205 245 205 245 250 c 0,5,6
 245 294 245 294 272 323 c 128,-1,7
 299 352 299 352 344 352 c 0,8,9
 366 352 366 352 389.5 348 c 128,-1,10
 413 344 413 344 442 335 c 1,11,-1
 462 468 l 1,12,13
 421 493 421 493 385 504.5 c 128,-1,14
 349 516 349 516 308 516 c 0,15,16
 253 516 253 516 204 496.5 c 128,-1,17
 155 477 155 477 118 442 c 128,-1,18
 81 407 81 407 59 358 c 128,-1,19
 37 309 37 309 37 250 c 0,20,21
 37 188 37 188 59.5 138.5 c 128,-1,22
 82 89 82 89 119.5 55 c 128,-1,23
 157 21 157 21 206 3 c 128,-1,24
 255 -15 255 -15 308 -15 c 0,25,26
 350 -15 350 -15 385.5 -4.5 c 128,-1,27
 421 6 421 6 460 25 c 1,28,-1
 440 164 l 1,0,1
317 -91 m 1,29,-1
 382 -91 l 1,30,-1
 382 581 l 1,31,-1
 317 581 l 1,32,-1
 317 -91 l 1,29,-1
EndSplineSet
Validated: 5
EndChar

StartChar: grave
Encoding: 96 96 102
Width: 400
Flags: W
LayerCount: 2
Fore
SplineSet
2 696 m 1,0,-1
 335 562 l 1,1,-1
 397 669 l 1,2,-1
 104 874 l 1,3,-1
 2 696 l 1,0,-1
EndSplineSet
Validated: 9
EndChar

StartChar: braceleft
Encoding: 123 123 103
Width: 397
Flags: W
HStem: 299 78<1 49.882>
VStem: 63 193<120.245 284.47 390.782 555.755>
LayerCount: 2
Fore
SplineSet
1 299 m 1,0,1
 10 298 10 298 21 294.5 c 128,-1,2
 32 291 32 291 41.5 284.5 c 128,-1,3
 51 278 51 278 57 267 c 128,-1,4
 63 256 63 256 63 239 c 0,5,6
 63 184 63 184 79 136 c 128,-1,7
 95 88 95 88 127 51.5 c 128,-1,8
 159 15 159 15 206.5 -8 c 128,-1,9
 254 -31 254 -31 318 -36 c 1,10,-1
 318 51 l 1,11,12
 309 54 309 54 298 64 c 128,-1,13
 287 74 287 74 277.5 95 c 128,-1,14
 268 116 268 116 262 150.5 c 128,-1,15
 256 185 256 185 256 239 c 0,16,17
 256 267 256 267 237.5 292.5 c 128,-1,18
 219 318 219 318 180 338 c 1,19,20
 219 358 219 358 237.5 383.5 c 128,-1,21
 256 409 256 409 256 437 c 0,22,23
 256 491 256 491 262 525.5 c 128,-1,24
 268 560 268 560 277.5 581 c 128,-1,25
 287 602 287 602 298 612 c 128,-1,26
 309 622 309 622 318 625 c 1,27,-1
 318 712 l 1,28,29
 254 707 254 707 206.5 684 c 128,-1,30
 159 661 159 661 127 624.5 c 128,-1,31
 95 588 95 588 79 540 c 128,-1,32
 63 492 63 492 63 437 c 0,33,34
 63 420 63 420 57 409 c 128,-1,35
 51 398 51 398 41.5 391 c 128,-1,36
 32 384 32 384 21 381 c 128,-1,37
 10 378 10 378 1 377 c 1,38,-1
 1 299 l 1,0,1
EndSplineSet
Validated: 9
EndChar

StartChar: tilde
Encoding: 732 732 104
Width: 543
Flags: W
HStem: 563 169<288.637 385.916> 618 169<164.532 257.438>
LayerCount: 2
Fore
SplineSet
149 566 m 1,0,1
 154 583 154 583 167 600.5 c 128,-1,2
 180 618 180 618 201 618 c 0,3,4
 220 618 220 618 235 609.5 c 128,-1,5
 250 601 250 601 266.5 590.5 c 128,-1,6
 283 580 283 580 303 571.5 c 128,-1,7
 323 563 323 563 352 563 c 0,8,9
 403 563 403 563 444 602.5 c 128,-1,10
 485 642 485 642 515 729 c 1,11,-1
 398 777 l 1,12,13
 392 760 392 760 380 746 c 128,-1,14
 368 732 368 732 348 732 c 0,15,16
 329 732 329 732 312.5 740.5 c 128,-1,17
 296 749 296 749 279.5 759.5 c 128,-1,18
 263 770 263 770 244.5 778.5 c 128,-1,19
 226 787 226 787 202 787 c 0,20,21
 157 787 157 787 110.5 746.5 c 128,-1,22
 64 706 64 706 31 614 c 1,23,-1
 149 566 l 1,0,1
EndSplineSet
Validated: 9
EndChar

StartChar: braceright
Encoding: 125 125 105
Width: 400
Flags: W
HStem: 299 78<350.118 399>
VStem: 144 193<120.245 284.47 390.782 555.755>
LayerCount: 2
Fore
SplineSet
82 -36 m 1,0,1
 146 -31 146 -31 193.5 -8 c 128,-1,2
 241 15 241 15 273 51.5 c 128,-1,3
 305 88 305 88 321 136 c 128,-1,4
 337 184 337 184 337 239 c 0,5,6
 337 256 337 256 343 267 c 128,-1,7
 349 278 349 278 358.5 284.5 c 128,-1,8
 368 291 368 291 379 294.5 c 128,-1,9
 390 298 390 298 399 299 c 1,10,-1
 399 377 l 1,11,12
 390 378 390 378 379 381 c 128,-1,13
 368 384 368 384 358.5 391 c 128,-1,14
 349 398 349 398 343 409 c 128,-1,15
 337 420 337 420 337 437 c 0,16,17
 337 492 337 492 321 540 c 128,-1,18
 305 588 305 588 273 624.5 c 128,-1,19
 241 661 241 661 193.5 684 c 128,-1,20
 146 707 146 707 82 712 c 1,21,-1
 82 625 l 1,22,23
 91 622 91 622 102 612 c 128,-1,24
 113 602 113 602 122.5 581 c 128,-1,25
 132 560 132 560 138 525.5 c 128,-1,26
 144 491 144 491 144 437 c 0,27,28
 144 409 144 409 162.5 383.5 c 128,-1,29
 181 358 181 358 220 338 c 1,30,31
 181 318 181 318 162.5 292.5 c 128,-1,32
 144 267 144 267 144 239 c 0,33,34
 144 185 144 185 138 150.5 c 128,-1,35
 132 116 132 116 122.5 95 c 128,-1,36
 113 74 113 74 102 64 c 128,-1,37
 91 54 91 54 82 51 c 1,38,-1
 82 -36 l 1,0,1
EndSplineSet
Validated: 9
EndChar

StartChar: germandbls
Encoding: 223 223 106
Width: 748
Flags: W
HStem: -44.5 159.5<352 381 401 469.641> 539 133<311.744 434.585>
VStem: 454 166<439.78 521.375> 501 215<146.572 253.094>
LayerCount: 2
Fore
SplineSet
79 -15 m 1,0,-1
 294 0 l 1,1,-1
 294 472 l 2,2,3
 294 483 294 483 298 495 c 128,-1,4
 302 507 302 507 310.5 516.5 c 128,-1,5
 319 526 319 526 332.5 532.5 c 128,-1,6
 346 539 346 539 366 539 c 0,7,8
 411 539 411 539 432.5 521.5 c 128,-1,9
 454 504 454 504 454 482 c 256,10,11
 454 460 454 460 432.5 440 c 128,-1,12
 411 420 411 420 371 412 c 1,13,-1
 371 368 l 1,14,-1
 371 320 l 1,15,16
 439 306 439 306 470 273 c 128,-1,17
 501 240 501 240 501 204 c 0,18,19
 501 169 501 169 475.5 142 c 128,-1,20
 450 115 450 115 401 115 c 0,21,22
 392 115 392 115 381 115.5 c 128,-1,23
 370 116 370 116 352 117 c 1,24,-1
 352 -44 l 1,25,26
 369 -44 369 -44 385 -44.5 c 128,-1,27
 401 -45 401 -45 418 -45 c 0,28,29
 497 -45 497 -45 553.5 -26.5 c 128,-1,30
 610 -8 610 -8 646 22.5 c 128,-1,31
 682 53 682 53 699 91.5 c 128,-1,32
 716 130 716 130 716 171 c 0,33,34
 716 202 716 202 704 232 c 128,-1,35
 692 262 692 262 670 288 c 128,-1,36
 648 314 648 314 616.5 334.5 c 128,-1,37
 585 355 585 355 545 366 c 1,38,39
 582 388 582 388 601 424.5 c 128,-1,40
 620 461 620 461 620 503 c 0,41,42
 620 533 620 533 604.5 563.5 c 128,-1,43
 589 594 589 594 557.5 618 c 128,-1,44
 526 642 526 642 478.5 657 c 128,-1,45
 431 672 431 672 368 672 c 0,46,47
 299 672 299 672 245 658 c 128,-1,48
 191 644 191 644 154.5 621 c 128,-1,49
 118 598 118 598 98.5 568.5 c 128,-1,50
 79 539 79 539 79 508 c 2,51,-1
 79 -15 l 1,0,-1
EndSplineSet
Validated: 9
EndChar

StartChar: section
Encoding: 167 167 107
Width: 569
Flags: W
HStem: -15 129<121.056 307.537> 22 121<94.7273 147.619> 566 125<260.499 442.859>
VStem: 351 163<304.505 381.5>
LayerCount: 2
Fore
SplineSet
74 22 m 1,0,1
 126 3 126 3 179 -6 c 128,-1,2
 232 -15 232 -15 282 -15 c 0,3,4
 330 -15 330 -15 372 -5.5 c 128,-1,5
 414 4 414 4 445 22.5 c 128,-1,6
 476 41 476 41 494 70 c 128,-1,7
 512 99 512 99 512 138 c 0,8,9
 512 170 512 170 498.5 200.5 c 128,-1,10
 485 231 485 231 451 252 c 1,11,12
 487 274 487 274 500.5 305.5 c 128,-1,13
 514 337 514 337 514 365 c 0,14,15
 514 398 514 398 495 421.5 c 128,-1,16
 476 445 476 445 448 461.5 c 128,-1,17
 420 478 420 478 387 489.5 c 128,-1,18
 354 501 354 501 326 510 c 128,-1,19
 298 519 298 519 279 527.5 c 128,-1,20
 260 536 260 536 260 546 c 0,21,22
 260 557 260 557 273.5 561.5 c 128,-1,23
 287 566 287 566 307 566 c 0,24,25
 328 566 328 566 352 563.5 c 128,-1,26
 376 561 376 561 397.5 557 c 128,-1,27
 419 553 419 553 436.5 549 c 128,-1,28
 454 545 454 545 462 542 c 1,29,-1
 484 654 l 1,30,31
 446 671 446 671 394 681 c 128,-1,32
 342 691 342 691 287 691 c 0,33,34
 245 691 245 691 205.5 683.5 c 128,-1,35
 166 676 166 676 135 659.5 c 128,-1,36
 104 643 104 643 84 616 c 128,-1,37
 64 589 64 589 62 550 c 1,38,39
 62 473 62 473 122 435 c 1,40,41
 90 412 90 412 76 381.5 c 128,-1,42
 62 351 62 351 62 320 c 0,43,44
 62 284 62 284 80 259.5 c 128,-1,45
 98 235 98 235 125.5 218 c 128,-1,46
 153 201 153 201 185 190 c 128,-1,47
 217 179 217 179 244.5 170.5 c 128,-1,48
 272 162 272 162 290 154 c 128,-1,49
 308 146 308 146 308 136 c 0,50,51
 308 124 308 124 295 119 c 128,-1,52
 282 114 282 114 262 114 c 256,53,54
 242 114 242 114 218 117 c 128,-1,55
 194 120 194 120 171 124.5 c 128,-1,56
 148 129 148 129 128 134 c 128,-1,57
 108 139 108 139 96 143 c 1,58,-1
 74 22 l 1,0,1
301 296 m 1,59,60
 254 309 254 309 235.5 320 c 128,-1,61
 217 331 217 331 217 340 c 0,62,63
 217 360 217 360 229 369.5 c 128,-1,64
 241 379 241 379 260 380 c 1,65,66
 313 365 313 365 332 353.5 c 128,-1,67
 351 342 351 342 351 331 c 256,68,69
 351 320 351 320 341 308 c 128,-1,70
 331 296 331 296 301 296 c 1,59,60
EndSplineSet
Validated: 9
EndChar

StartChar: bullet
Encoding: 8226 8226 108
Width: 531
Flags: W
HStem: 56 406<161.796 369.204>
VStem: 45 441<166.299 351.701>
LayerCount: 2
Fore
SplineSet
45 259 m 256,0,1
 45 209 45 209 64 171 c 128,-1,2
 83 133 83 133 114 107.5 c 128,-1,3
 145 82 145 82 184.5 69 c 128,-1,4
 224 56 224 56 265 56 c 0,5,6
 307 56 307 56 346.5 69 c 128,-1,7
 386 82 386 82 417 107.5 c 128,-1,8
 448 133 448 133 467 171 c 128,-1,9
 486 209 486 209 486 259 c 256,10,11
 486 309 486 309 467 347 c 128,-1,12
 448 385 448 385 417 410.5 c 128,-1,13
 386 436 386 436 346.5 449 c 128,-1,14
 307 462 307 462 266 462 c 0,15,16
 224 462 224 462 184.5 449 c 128,-1,17
 145 436 145 436 114 410.5 c 128,-1,18
 83 385 83 385 64 347 c 128,-1,19
 45 309 45 309 45 259 c 256,0,1
EndSplineSet
Validated: 9
EndChar

StartChar: circumflex
Encoding: 710 710 109
Width: 482
Flags: W
HStem: 552 249
LayerCount: 2
Fore
SplineSet
24 552 m 1,0,-1
 190 552 l 1,1,-1
 228 658 l 1,2,-1
 239 697 l 1,3,-1
 250 658 l 1,4,-1
 288 552 l 1,5,-1
 454 552 l 1,6,-1
 331 801 l 1,7,-1
 147 801 l 1,8,-1
 24 552 l 1,0,-1
EndSplineSet
Validated: 9
EndChar

StartChar: caron
Encoding: 711 711 115
Width: 482
Flags: W
HStem: 552 249
LayerCount: 2
Fore
SplineSet
147 552 m 1,0,-1
 331 552 l 1,1,-1
 454 801 l 1,2,-1
 288 801 l 1,3,-1
 250 695 l 1,4,-1
 239 656 l 1,5,-1
 228 695 l 1,6,-1
 190 801 l 1,7,-1
 24 801 l 1,8,-1
 147 552 l 1,0,-1
EndSplineSet
Validated: 9
EndChar

StartChar: quotesingle
Encoding: 39 39 116
Width: 245
Flags: W
HStem: 501 248
VStem: 76 96<501 563>
LayerCount: 2
Fore
SplineSet
76 501 m 1,0,-1
 172 501 l 1,1,-1
 200 749 l 1,2,-1
 56 749 l 1,3,-1
 76 501 l 1,0,-1
EndSplineSet
Validated: 9
EndChar

StartChar: quotedbl
Encoding: 34 34 117
Width: 475
Flags: W
HStem: 501 248
VStem: 94 96<501 563> 283 96<501 563>
LayerCount: 2
Fore
SplineSet
283 501 m 1,0,-1
 379 501 l 1,1,-1
 407 749 l 1,2,-1
 263 749 l 1,3,-1
 283 501 l 1,0,-1
94 501 m 1,4,-1
 190 501 l 1,5,-1
 218 749 l 1,6,-1
 74 749 l 1,7,-1
 94 501 l 1,4,-1
EndSplineSet
Validated: 9
EndChar

StartChar: less
Encoding: 60 60 118
Width: 467
Flags: W
LayerCount: 2
Fore
SplineSet
0 223 m 1,0,-1
 381 0 l 1,1,-1
 381 162 l 1,2,-1
 84 303 l 1,3,-1
 381 451 l 1,4,-1
 381 602 l 1,5,-1
 0 393 l 1,6,-1
 0 223 l 1,0,-1
EndSplineSet
Validated: 9
EndChar

StartChar: greater
Encoding: 62 62 119
Width: 471
Flags: W
LayerCount: 2
Fore
SplineSet
90 0 m 1,0,-1
 471 223 l 1,1,-1
 471 393 l 1,2,-1
 90 602 l 1,3,-1
 90 451 l 1,4,-1
 387 303 l 1,5,-1
 90 162 l 1,6,-1
 90 0 l 1,0,-1
EndSplineSet
Validated: 9
EndChar

StartChar: guilsinglleft
Encoding: 8249 8249 120
Width: 295
Flags: W
VStem: 0 210
LayerCount: 2
Fore
SplineSet
0 216 m 1,0,-1
 210 63 l 1,1,-1
 210 245 l 1,2,-1
 114 306 l 1,3,-1
 210 364 l 1,4,-1
 210 545 l 1,5,-1
 0 396 l 1,6,-1
 0 216 l 1,0,-1
EndSplineSet
Validated: 9
EndChar

StartChar: guilsinglright
Encoding: 8250 8250 121
Width: 300
Flags: W
VStem: 90 210
LayerCount: 2
Fore
SplineSet
90 63 m 1,0,-1
 300 216 l 1,1,-1
 300 396 l 1,2,-1
 90 545 l 1,3,-1
 90 364 l 1,4,-1
 186 306 l 1,5,-1
 90 245 l 1,6,-1
 90 63 l 1,0,-1
EndSplineSet
Validated: 9
EndChar

StartChar: guillemotleft
Encoding: 171 171 122
Width: 585
Flags: W
LayerCount: 2
Fore
SplineSet
288 216 m 1,0,-1
 498 63 l 1,1,-1
 498 245 l 1,2,-1
 402 306 l 1,3,-1
 498 364 l 1,4,-1
 498 545 l 1,5,-1
 288 396 l 1,6,-1
 288 216 l 1,0,-1
29 216 m 1,7,-1
 239 63 l 1,8,-1
 239 245 l 1,9,-1
 143 306 l 1,10,-1
 239 364 l 1,11,-1
 239 545 l 1,12,-1
 29 396 l 1,13,-1
 29 216 l 1,7,-1
EndSplineSet
Validated: 9
EndChar

StartChar: guillemotright
Encoding: 187 187 123
Width: 587
Flags: W
LayerCount: 2
Fore
SplineSet
349 63 m 1,0,-1
 559 216 l 1,1,-1
 559 396 l 1,2,-1
 349 545 l 1,3,-1
 349 364 l 1,4,-1
 445 306 l 1,5,-1
 349 245 l 1,6,-1
 349 63 l 1,0,-1
90 63 m 1,7,-1
 300 216 l 1,8,-1
 300 396 l 1,9,-1
 90 545 l 1,10,-1
 90 364 l 1,11,-1
 186 306 l 1,12,-1
 90 245 l 1,13,-1
 90 63 l 1,7,-1
EndSplineSet
Validated: 9
EndChar

StartChar: dieresis
Encoding: 168 168 126
Width: 609
Flags: W
HStem: 548 202<84.6758 222.324 386.676 524.324>
VStem: 41 225<589.294 707.882> 343 225<589.294 707.882>
LayerCount: 2
Fore
SplineSet
343 649 m 0,0,1
 343 628 343 628 352 609.5 c 128,-1,2
 361 591 361 591 376.5 577.5 c 128,-1,3
 392 564 392 564 412.5 556 c 128,-1,4
 433 548 433 548 456 548 c 0,5,6
 478 548 478 548 498.5 556 c 128,-1,7
 519 564 519 564 534.5 577.5 c 128,-1,8
 550 591 550 591 559 609.5 c 128,-1,9
 568 628 568 628 568 649 c 0,10,11
 568 669 568 669 559 687.5 c 128,-1,12
 550 706 550 706 534.5 720 c 128,-1,13
 519 734 519 734 498.5 742 c 128,-1,14
 478 750 478 750 456 750 c 0,15,16
 433 750 433 750 412.5 742 c 128,-1,17
 392 734 392 734 376.5 720 c 128,-1,18
 361 706 361 706 352 687.5 c 128,-1,19
 343 669 343 669 343 649 c 0,0,1
41 649 m 0,20,21
 41 628 41 628 50 609.5 c 128,-1,22
 59 591 59 591 74.5 577.5 c 128,-1,23
 90 564 90 564 110.5 556 c 128,-1,24
 131 548 131 548 154 548 c 0,25,26
 176 548 176 548 196.5 556 c 128,-1,27
 217 564 217 564 232.5 577.5 c 128,-1,28
 248 591 248 591 257 609.5 c 128,-1,29
 266 628 266 628 266 649 c 0,30,31
 266 669 266 669 257 687.5 c 128,-1,32
 248 706 248 706 232.5 720 c 128,-1,33
 217 734 217 734 196.5 742 c 128,-1,34
 176 750 176 750 154 750 c 0,35,36
 131 750 131 750 110.5 742 c 128,-1,37
 90 734 90 734 74.5 720 c 128,-1,38
 59 706 59 706 50 687.5 c 128,-1,39
 41 669 41 669 41 649 c 0,20,21
EndSplineSet
Validated: 9
EndChar

StartChar: ring
Encoding: 730 730 142
Width: 411
Flags: W
HStem: 562 110<161.579 249.206> 795 111<160.833 248.202>
VStem: 34 111<687.159 780.26> 264 113<685.51 780.26>
LayerCount: 2
Fore
SplineSet
145 733 m 0,0,1
 145 764 145 764 163.5 779.5 c 128,-1,2
 182 795 182 795 204 795 c 0,3,4
 227 795 227 795 245.5 779.5 c 128,-1,5
 264 764 264 764 264 733 c 256,6,7
 264 702 264 702 246.5 687 c 128,-1,8
 229 672 229 672 206 672 c 256,9,10
 183 672 183 672 164 688 c 128,-1,11
 145 704 145 704 145 733 c 0,0,1
34 733 m 256,12,13
 34 690 34 690 49 658 c 128,-1,14
 64 626 64 626 88 604.5 c 128,-1,15
 112 583 112 583 143 572.5 c 128,-1,16
 174 562 174 562 206 562 c 256,17,18
 238 562 238 562 269 572.5 c 128,-1,19
 300 583 300 583 324 604.5 c 128,-1,20
 348 626 348 626 362.5 658 c 128,-1,21
 377 690 377 690 377 733 c 256,22,23
 377 776 377 776 362.5 808.5 c 128,-1,24
 348 841 348 841 324 862.5 c 128,-1,25
 300 884 300 884 269 895 c 128,-1,26
 238 906 238 906 206 906 c 256,27,28
 174 906 174 906 143 895 c 128,-1,29
 112 884 112 884 88 862.5 c 128,-1,30
 64 841 64 841 49 808.5 c 128,-1,31
 34 776 34 776 34 733 c 256,12,13
EndSplineSet
Validated: 9
EndChar

StartChar: oe
Encoding: 339 339 171
Width: 955
Flags: W
HStem: -15 167<271.989 381.384> -15 143<644.669 832.882> 351 165<271.382 381.068> 387 129<632.964 737.926>
VStem: 38 200<187.339 316.254>
LayerCount: 2
Fore
SplineSet
870 163 m 1,0,1
 841 152 841 152 801.5 140 c 128,-1,2
 762 128 762 128 723 128 c 0,3,4
 685 128 685 128 656 142.5 c 128,-1,5
 627 157 627 157 613 198 c 1,6,-1
 913 238 l 1,7,8
 914 243 914 243 914.5 250.5 c 128,-1,9
 915 258 915 258 915 263 c 0,10,11
 915 327 915 327 895.5 375 c 128,-1,12
 876 423 876 423 844 454 c 128,-1,13
 812 485 812 485 770.5 500.5 c 128,-1,14
 729 516 729 516 684 516 c 0,15,16
 636 516 636 516 589.5 497.5 c 128,-1,17
 543 479 543 479 505 445 c 1,18,19
 467 480 467 480 421 498 c 128,-1,20
 375 516 375 516 327 516 c 0,21,22
 273 516 273 516 221 499 c 128,-1,23
 169 482 169 482 128.5 448.5 c 128,-1,24
 88 415 88 415 63 365.5 c 128,-1,25
 38 316 38 316 38 251 c 256,26,27
 38 186 38 186 62.5 136 c 128,-1,28
 87 86 87 86 127.5 52.5 c 128,-1,29
 168 19 168 19 220 2 c 128,-1,30
 272 -15 272 -15 326 -15 c 0,31,32
 374 -15 374 -15 420.5 4.5 c 128,-1,33
 467 24 467 24 505 66 c 1,34,35
 544 25 544 25 591.5 5 c 128,-1,36
 639 -15 639 -15 690 -15 c 0,37,38
 804 -15 804 -15 895 26 c 1,39,-1
 870 163 l 1,0,1
327 152 m 0,40,41
 308 152 308 152 292 160 c 128,-1,42
 276 168 276 168 264 181.5 c 128,-1,43
 252 195 252 195 245 213 c 128,-1,44
 238 231 238 231 238 251 c 0,45,46
 238 292 238 292 263.5 321.5 c 128,-1,47
 289 351 289 351 327 351 c 0,48,49
 345 351 345 351 361 343 c 128,-1,50
 377 335 377 335 389.5 321.5 c 128,-1,51
 402 308 402 308 409.5 289.5 c 128,-1,52
 417 271 417 271 417 251 c 256,53,54
 417 231 417 231 409.5 213 c 128,-1,55
 402 195 402 195 389.5 181.5 c 128,-1,56
 377 168 377 168 361 160 c 128,-1,57
 345 152 345 152 327 152 c 0,40,41
605 290 m 1,58,59
 607 341 607 341 631 364 c 128,-1,60
 655 387 655 387 684 387 c 0,61,62
 708 387 708 387 729.5 372.5 c 128,-1,63
 751 358 751 358 760 324 c 1,64,-1
 605 290 l 1,58,59
EndSplineSet
Validated: 9
EndChar

StartChar: AE
Encoding: 198 198 172
Width: 996
Flags: W
LayerCount: 2
Fore
SplineSet
29 0 m 1,0,-1
 247 0 l 1,1,-1
 288 132 l 1,2,-1
 457 132 l 1,3,-1
 480 0 l 1,4,-1
 958 0 l 1,5,-1
 931 151 l 1,6,-1
 673 151 l 1,7,-1
 644 285 l 1,8,-1
 887 285 l 1,9,-1
 863 411 l 1,10,-1
 618 411 l 1,11,-1
 597 521 l 1,12,-1
 865 521 l 1,13,-1
 838 672 l 1,14,-1
 264 672 l 1,15,-1
 29 0 l 1,0,-1
325 255 m 1,16,-1
 393 490 l 1,17,-1
 434 255 l 1,18,-1
 325 255 l 1,16,-1
EndSplineSet
Validated: 9
EndChar

StartChar: question
Encoding: 63 63 173
Width: 496
Flags: W
HStem: -15 202<114.676 252.324> 502 170<98.7656 256.076>
VStem: 71 225<26.2939 144.882> 98 157<223.625 287.375> 115 140<223 287.279>
LayerCount: 2
Fore
SplineSet
50 476 m 1,0,1
 68 484 68 484 105.5 493 c 128,-1,2
 143 502 143 502 180 502 c 0,3,4
 190 502 190 502 203.5 501 c 128,-1,5
 217 500 217 500 229.5 496.5 c 128,-1,6
 242 493 242 493 250.5 486.5 c 128,-1,7
 259 480 259 480 259 470 c 256,8,9
 259 460 259 460 247 451.5 c 128,-1,10
 235 443 235 443 217 434.5 c 128,-1,11
 199 426 199 426 178.5 415 c 128,-1,12
 158 404 158 404 140 389 c 128,-1,13
 122 374 122 374 110 352.5 c 128,-1,14
 98 331 98 331 98 301 c 0,15,16
 98 282 98 282 104 262.5 c 128,-1,17
 110 243 110 243 115 223 c 1,18,-1
 255 223 l 1,19,-1
 255 236 l 2,20,21
 255 241 255 241 255.5 246.5 c 128,-1,22
 256 252 256 252 256 256 c 0,23,24
 256 273 256 273 272.5 284.5 c 128,-1,25
 289 296 289 296 314 307.5 c 128,-1,26
 339 319 339 319 368 332.5 c 128,-1,27
 397 346 397 346 422 366 c 128,-1,28
 447 386 447 386 463.5 415 c 128,-1,29
 480 444 480 444 480 486 c 0,30,31
 480 531 480 531 460 566 c 128,-1,32
 440 601 440 601 406.5 624.5 c 128,-1,33
 373 648 373 648 329.5 660 c 128,-1,34
 286 672 286 672 238 672 c 0,35,36
 144 672 144 672 36 628 c 1,37,-1
 50 476 l 1,0,1
71 86 m 0,38,39
 71 65 71 65 80 46.5 c 128,-1,40
 89 28 89 28 104.5 14.5 c 128,-1,41
 120 1 120 1 140.5 -7 c 128,-1,42
 161 -15 161 -15 184 -15 c 0,43,44
 206 -15 206 -15 226.5 -7 c 128,-1,45
 247 1 247 1 262.5 14.5 c 128,-1,46
 278 28 278 28 287 46.5 c 128,-1,47
 296 65 296 65 296 86 c 0,48,49
 296 106 296 106 287 124.5 c 128,-1,50
 278 143 278 143 262.5 157 c 128,-1,51
 247 171 247 171 226.5 179 c 128,-1,52
 206 187 206 187 184 187 c 0,53,54
 161 187 161 187 140.5 179 c 128,-1,55
 120 171 120 171 104.5 157 c 128,-1,56
 89 143 89 143 80 124.5 c 128,-1,57
 71 106 71 106 71 86 c 0,38,39
EndSplineSet
Validated: 9
EndChar

StartChar: trademark
Encoding: 8482 8482 174
Width: 954
Flags: W
LayerCount: 2
Fore
SplineSet
127 300 m 1,0,-1
 282 300 l 1,1,-1
 282 568 l 1,2,-1
 369 568 l 1,3,-1
 369 672 l 1,4,-1
 40 672 l 1,5,-1
 40 568 l 1,6,-1
 127 568 l 1,7,-1
 127 300 l 1,0,-1
427 300 m 1,8,-1
 581 300 l 1,9,-1
 581 497 l 1,10,-1
 636 390 l 1,11,-1
 697 390 l 1,12,-1
 752 497 l 1,13,-1
 752 300 l 1,14,-1
 906 300 l 1,15,-1
 906 672 l 1,16,-1
 752 672 l 1,17,-1
 667 523 l 1,18,-1
 581 672 l 1,19,-1
 427 672 l 1,20,-1
 427 300 l 1,8,-1
EndSplineSet
Validated: 9
EndChar

StartChar: cedilla
Encoding: 184 184 175
Width: 274
Flags: W
HStem: -248 52<32.3439 64 77 122.404>
VStem: 142 109<-183.236 -98.938>
LayerCount: 2
Fore
SplineSet
19 -226 m 1,0,1
 42 -238 42 -238 64 -243 c 128,-1,2
 86 -248 86 -248 107 -248 c 0,3,4
 137 -248 137 -248 163 -238.5 c 128,-1,5
 189 -229 189 -229 208.5 -213.5 c 128,-1,6
 228 -198 228 -198 239.5 -177.5 c 128,-1,7
 251 -157 251 -157 251 -135 c 0,8,9
 251 -106 251 -106 226.5 -84 c 128,-1,10
 202 -62 202 -62 148 -56 c 1,11,-1
 167 0 l 1,12,-1
 112 0 l 1,13,-1
 82 -88 l 1,14,-1
 84 -88 l 2,15,16
 116 -88 116 -88 129 -102 c 128,-1,17
 142 -116 142 -116 142 -134 c 0,18,19
 142 -169 142 -169 123 -182.5 c 128,-1,20
 104 -196 104 -196 77 -196 c 0,21,22
 66 -196 66 -196 54.5 -194 c 128,-1,23
 43 -192 43 -192 32 -189 c 1,24,-1
 19 -226 l 1,0,1
EndSplineSet
Validated: 9
EndChar

StartChar: hyphen
Encoding: 45 45 178
Width: 332
Flags: W
HStem: 215 85
VStem: 48 237
LayerCount: 2
Fore
SplineSet
48 215 m 1,0,-1
 285 215 l 1,1,-1
 285 300 l 1,2,-1
 48 300 l 1,3,-1
 48 215 l 1,0,-1
EndSplineSet
Validated: 9
EndChar

StartChar: asterisk
Encoding: 42 42 179
Width: 515
Flags: W
HStem: 509 22G<175.667 207.65 308.605 338.951>
LayerCount: 2
Fore
SplineSet
61 297 m 1,0,-1
 161 216 l 1,1,-1
 255 361 l 1,2,-1
 351 216 l 1,3,-1
 452 296 l 1,4,-1
 338 416 l 1,5,-1
 494 484 l 1,6,-1
 438 592 l 1,7,-1
 307 510 l 1,8,-1
 320 672 l 1,9,-1
 198 672 l 1,10,-1
 209 509 l 1,11,-1
 74 590 l 1,12,-1
 21 484 l 1,13,-1
 175 416 l 1,14,-1
 61 297 l 1,0,-1
EndSplineSet
Validated: 9
EndChar

StartChar: asciicircum
Encoding: 94 94 180
Width: 614
Flags: W
LayerCount: 2
Fore
SplineSet
48 171 m 1,0,-1
 199 171 l 1,1,-1
 307 578 l 1,2,-1
 418 171 l 1,3,-1
 566 171 l 1,4,-1
 395 672 l 1,5,-1
 217 672 l 1,6,-1
 48 171 l 1,0,-1
EndSplineSet
Validated: 9
EndChar

StartChar: percent
Encoding: 37 37 181
Width: 927
Flags: W
HStem: -15 99<664.5 738.942> 275 101<663.522 739.631> 300 99<188.5 262.942> 590 101<187.522 263.631>
VStem: 44 124<418.473 571.256> 283 124<418.649 571.083> 520 124<103.473 256.256> 759 124<103.649 256.083>
LayerCount: 2
Fore
SplineSet
343 0 m 1,0,-1
 410 0 l 1,1,-1
 576 672 l 1,2,-1
 507 672 l 1,3,-1
 343 0 l 1,0,-1
701 -15 m 0,4,5
 747 -15 747 -15 781 1.5 c 128,-1,6
 815 18 815 18 837.5 45.5 c 128,-1,7
 860 73 860 73 871.5 108 c 128,-1,8
 883 143 883 143 883 180 c 0,9,10
 883 216 883 216 871.5 251.5 c 128,-1,11
 860 287 860 287 837 314.5 c 128,-1,12
 814 342 814 342 780 359 c 128,-1,13
 746 376 746 376 701 376 c 256,14,15
 656 376 656 376 622.5 359 c 128,-1,16
 589 342 589 342 566 314.5 c 128,-1,17
 543 287 543 287 531.5 251.5 c 128,-1,18
 520 216 520 216 520 180 c 0,19,20
 520 143 520 143 531.5 108 c 128,-1,21
 543 73 543 73 565.5 45.5 c 128,-1,22
 588 18 588 18 622 1.5 c 128,-1,23
 656 -15 656 -15 701 -15 c 0,4,5
701 84 m 256,24,25
 687 84 687 84 676.5 92.5 c 128,-1,26
 666 101 666 101 658.5 114.5 c 128,-1,27
 651 128 651 128 647.5 145 c 128,-1,28
 644 162 644 162 644 180 c 256,29,30
 644 198 644 198 647.5 215 c 128,-1,31
 651 232 651 232 658.5 245.5 c 128,-1,32
 666 259 666 259 676.5 267 c 128,-1,33
 687 275 687 275 701 275 c 256,34,35
 715 275 715 275 726 267 c 128,-1,36
 737 259 737 259 744.5 245.5 c 128,-1,37
 752 232 752 232 755.5 215 c 128,-1,38
 759 198 759 198 759 180 c 256,39,40
 759 162 759 162 755.5 145 c 128,-1,41
 752 128 752 128 744.5 114.5 c 128,-1,42
 737 101 737 101 726 92.5 c 128,-1,43
 715 84 715 84 701 84 c 256,24,25
225 300 m 0,44,45
 271 300 271 300 305 316.5 c 128,-1,46
 339 333 339 333 361.5 360.5 c 128,-1,47
 384 388 384 388 395.5 423 c 128,-1,48
 407 458 407 458 407 495 c 0,49,50
 407 531 407 531 395.5 566.5 c 128,-1,51
 384 602 384 602 361 629.5 c 128,-1,52
 338 657 338 657 304 674 c 128,-1,53
 270 691 270 691 225 691 c 256,54,55
 180 691 180 691 146.5 674 c 128,-1,56
 113 657 113 657 90 629.5 c 128,-1,57
 67 602 67 602 55.5 566.5 c 128,-1,58
 44 531 44 531 44 495 c 0,59,60
 44 458 44 458 55.5 423 c 128,-1,61
 67 388 67 388 89.5 360.5 c 128,-1,62
 112 333 112 333 146 316.5 c 128,-1,63
 180 300 180 300 225 300 c 0,44,45
225 399 m 256,64,65
 211 399 211 399 200.5 407.5 c 128,-1,66
 190 416 190 416 182.5 429.5 c 128,-1,67
 175 443 175 443 171.5 460 c 128,-1,68
 168 477 168 477 168 495 c 256,69,70
 168 513 168 513 171.5 530 c 128,-1,71
 175 547 175 547 182.5 560.5 c 128,-1,72
 190 574 190 574 200.5 582 c 128,-1,73
 211 590 211 590 225 590 c 256,74,75
 239 590 239 590 250 582 c 128,-1,76
 261 574 261 574 268.5 560.5 c 128,-1,77
 276 547 276 547 279.5 530 c 128,-1,78
 283 513 283 513 283 495 c 256,79,80
 283 477 283 477 279.5 460 c 128,-1,81
 276 443 276 443 268.5 429.5 c 128,-1,82
 261 416 261 416 250 407.5 c 128,-1,83
 239 399 239 399 225 399 c 256,64,65
EndSplineSet
Validated: 9
EndChar

StartChar: perthousand
Encoding: 8240 8240 182
Width: 1340
Flags: W
HStem: -15 99<678.5 752.942 1089.5 1163.94> 275 101<677.522 753.631 1088.52 1164.63> 300 99<202.5 276.942> 590 101<201.522 277.631>
VStem: 58 124<418.473 571.256> 297 124<418.649 571.083> 534 124<103.473 256.256> 773 124<103.649 256.083> 945 124<103.473 256.256> 1184 124<103.649 256.083>
LayerCount: 2
Fore
SplineSet
357 0 m 1,0,-1
 424 0 l 1,1,-1
 590 672 l 1,2,-1
 521 672 l 1,3,-1
 357 0 l 1,0,-1
715 -15 m 0,4,5
 761 -15 761 -15 795 1.5 c 128,-1,6
 829 18 829 18 851.5 45.5 c 128,-1,7
 874 73 874 73 885.5 108 c 128,-1,8
 897 143 897 143 897 180 c 0,9,10
 897 216 897 216 885.5 251.5 c 128,-1,11
 874 287 874 287 851 314.5 c 128,-1,12
 828 342 828 342 794 359 c 128,-1,13
 760 376 760 376 715 376 c 256,14,15
 670 376 670 376 636.5 359 c 128,-1,16
 603 342 603 342 580 314.5 c 128,-1,17
 557 287 557 287 545.5 251.5 c 128,-1,18
 534 216 534 216 534 180 c 0,19,20
 534 143 534 143 545.5 108 c 128,-1,21
 557 73 557 73 579.5 45.5 c 128,-1,22
 602 18 602 18 636 1.5 c 128,-1,23
 670 -15 670 -15 715 -15 c 0,4,5
715 84 m 256,24,25
 701 84 701 84 690.5 92.5 c 128,-1,26
 680 101 680 101 672.5 114.5 c 128,-1,27
 665 128 665 128 661.5 145 c 128,-1,28
 658 162 658 162 658 180 c 256,29,30
 658 198 658 198 661.5 215 c 128,-1,31
 665 232 665 232 672.5 245.5 c 128,-1,32
 680 259 680 259 690.5 267 c 128,-1,33
 701 275 701 275 715 275 c 256,34,35
 729 275 729 275 740 267 c 128,-1,36
 751 259 751 259 758.5 245.5 c 128,-1,37
 766 232 766 232 769.5 215 c 128,-1,38
 773 198 773 198 773 180 c 256,39,40
 773 162 773 162 769.5 145 c 128,-1,41
 766 128 766 128 758.5 114.5 c 128,-1,42
 751 101 751 101 740 92.5 c 128,-1,43
 729 84 729 84 715 84 c 256,24,25
239 300 m 0,44,45
 285 300 285 300 319 316.5 c 128,-1,46
 353 333 353 333 375.5 360.5 c 128,-1,47
 398 388 398 388 409.5 423 c 128,-1,48
 421 458 421 458 421 495 c 0,49,50
 421 531 421 531 409.5 566.5 c 128,-1,51
 398 602 398 602 375 629.5 c 128,-1,52
 352 657 352 657 318 674 c 128,-1,53
 284 691 284 691 239 691 c 256,54,55
 194 691 194 691 160.5 674 c 128,-1,56
 127 657 127 657 104 629.5 c 128,-1,57
 81 602 81 602 69.5 566.5 c 128,-1,58
 58 531 58 531 58 495 c 0,59,60
 58 458 58 458 69.5 423 c 128,-1,61
 81 388 81 388 103.5 360.5 c 128,-1,62
 126 333 126 333 160 316.5 c 128,-1,63
 194 300 194 300 239 300 c 0,44,45
239 399 m 256,64,65
 225 399 225 399 214.5 407.5 c 128,-1,66
 204 416 204 416 196.5 429.5 c 128,-1,67
 189 443 189 443 185.5 460 c 128,-1,68
 182 477 182 477 182 495 c 256,69,70
 182 513 182 513 185.5 530 c 128,-1,71
 189 547 189 547 196.5 560.5 c 128,-1,72
 204 574 204 574 214.5 582 c 128,-1,73
 225 590 225 590 239 590 c 256,74,75
 253 590 253 590 264 582 c 128,-1,76
 275 574 275 574 282.5 560.5 c 128,-1,77
 290 547 290 547 293.5 530 c 128,-1,78
 297 513 297 513 297 495 c 256,79,80
 297 477 297 477 293.5 460 c 128,-1,81
 290 443 290 443 282.5 429.5 c 128,-1,82
 275 416 275 416 264 407.5 c 128,-1,83
 253 399 253 399 239 399 c 256,64,65
1126 -15 m 0,84,85
 1172 -15 1172 -15 1206 1.5 c 128,-1,86
 1240 18 1240 18 1262.5 45.5 c 128,-1,87
 1285 73 1285 73 1296.5 108 c 128,-1,88
 1308 143 1308 143 1308 180 c 0,89,90
 1308 216 1308 216 1296.5 251.5 c 128,-1,91
 1285 287 1285 287 1262 314.5 c 128,-1,92
 1239 342 1239 342 1205 359 c 128,-1,93
 1171 376 1171 376 1126 376 c 256,94,95
 1081 376 1081 376 1047.5 359 c 128,-1,96
 1014 342 1014 342 991 314.5 c 128,-1,97
 968 287 968 287 956.5 251.5 c 128,-1,98
 945 216 945 216 945 180 c 0,99,100
 945 143 945 143 956.5 108 c 128,-1,101
 968 73 968 73 990.5 45.5 c 128,-1,102
 1013 18 1013 18 1047 1.5 c 128,-1,103
 1081 -15 1081 -15 1126 -15 c 0,84,85
1126 84 m 256,104,105
 1112 84 1112 84 1101.5 92.5 c 128,-1,106
 1091 101 1091 101 1083.5 114.5 c 128,-1,107
 1076 128 1076 128 1072.5 145 c 128,-1,108
 1069 162 1069 162 1069 180 c 256,109,110
 1069 198 1069 198 1072.5 215 c 128,-1,111
 1076 232 1076 232 1083.5 245.5 c 128,-1,112
 1091 259 1091 259 1101.5 267 c 128,-1,113
 1112 275 1112 275 1126 275 c 256,114,115
 1140 275 1140 275 1151 267 c 128,-1,116
 1162 259 1162 259 1169.5 245.5 c 128,-1,117
 1177 232 1177 232 1180.5 215 c 128,-1,118
 1184 198 1184 198 1184 180 c 256,119,120
 1184 162 1184 162 1180.5 145 c 128,-1,121
 1177 128 1177 128 1169.5 114.5 c 128,-1,122
 1162 101 1162 101 1151 92.5 c 128,-1,123
 1140 84 1140 84 1126 84 c 256,104,105
EndSplineSet
Validated: 9
EndChar

StartChar: ellipsis
Encoding: 8230 8230 183
Width: 924
Flags: W
HStem: -15 202<85.6758 223.324 393.676 531.324 701.676 839.324>
VStem: 42 225<26.2939 144.882> 350 225<26.2939 144.882> 658 225<26.2939 144.882>
CounterMasks: 1 70
LayerCount: 2
Fore
SplineSet
42 86 m 0,0,1
 42 65 42 65 51 46.5 c 128,-1,2
 60 28 60 28 75.5 14.5 c 128,-1,3
 91 1 91 1 111.5 -7 c 128,-1,4
 132 -15 132 -15 155 -15 c 0,5,6
 177 -15 177 -15 197.5 -7 c 128,-1,7
 218 1 218 1 233.5 14.5 c 128,-1,8
 249 28 249 28 258 46.5 c 128,-1,9
 267 65 267 65 267 86 c 0,10,11
 267 106 267 106 258 124.5 c 128,-1,12
 249 143 249 143 233.5 157 c 128,-1,13
 218 171 218 171 197.5 179 c 128,-1,14
 177 187 177 187 155 187 c 0,15,16
 132 187 132 187 111.5 179 c 128,-1,17
 91 171 91 171 75.5 157 c 128,-1,18
 60 143 60 143 51 124.5 c 128,-1,19
 42 106 42 106 42 86 c 0,0,1
350 86 m 0,20,21
 350 65 350 65 359 46.5 c 128,-1,22
 368 28 368 28 383.5 14.5 c 128,-1,23
 399 1 399 1 419.5 -7 c 128,-1,24
 440 -15 440 -15 463 -15 c 0,25,26
 485 -15 485 -15 505.5 -7 c 128,-1,27
 526 1 526 1 541.5 14.5 c 128,-1,28
 557 28 557 28 566 46.5 c 128,-1,29
 575 65 575 65 575 86 c 0,30,31
 575 106 575 106 566 124.5 c 128,-1,32
 557 143 557 143 541.5 157 c 128,-1,33
 526 171 526 171 505.5 179 c 128,-1,34
 485 187 485 187 463 187 c 0,35,36
 440 187 440 187 419.5 179 c 128,-1,37
 399 171 399 171 383.5 157 c 128,-1,38
 368 143 368 143 359 124.5 c 128,-1,39
 350 106 350 106 350 86 c 0,20,21
658 86 m 0,40,41
 658 65 658 65 667 46.5 c 128,-1,42
 676 28 676 28 691.5 14.5 c 128,-1,43
 707 1 707 1 727.5 -7 c 128,-1,44
 748 -15 748 -15 771 -15 c 0,45,46
 793 -15 793 -15 813.5 -7 c 128,-1,47
 834 1 834 1 849.5 14.5 c 128,-1,48
 865 28 865 28 874 46.5 c 128,-1,49
 883 65 883 65 883 86 c 0,50,51
 883 106 883 106 874 124.5 c 128,-1,52
 865 143 865 143 849.5 157 c 128,-1,53
 834 171 834 171 813.5 179 c 128,-1,54
 793 187 793 187 771 187 c 0,55,56
 748 187 748 187 727.5 179 c 128,-1,57
 707 171 707 171 691.5 157 c 128,-1,58
 676 143 676 143 667 124.5 c 128,-1,59
 658 106 658 106 658 86 c 0,40,41
EndSplineSet
Validated: 9
EndChar

StartChar: OE
Encoding: 338 338 184
Width: 1100
Flags: W
HStem: -15 180<351.461 487.28> 513 178<351.638 489.102>
VStem: 73 224<227.19 449.492>
LayerCount: 2
Fore
SplineSet
537 0 m 1,0,-1
 1019 0 l 1,1,-1
 1019 151 l 1,2,-1
 779 151 l 1,3,-1
 779 285 l 1,4,-1
 998 285 l 1,5,-1
 998 411 l 1,6,-1
 779 411 l 1,7,-1
 779 521 l 1,8,-1
 1019 521 l 1,9,-1
 1019 672 l 1,10,-1
 540 672 l 1,11,-1
 540 642 l 1,12,13
 499 668 499 668 462 679.5 c 128,-1,14
 425 691 425 691 390 691 c 0,15,16
 317 691 317 691 258.5 659 c 128,-1,17
 200 627 200 627 158.5 576.5 c 128,-1,18
 117 526 117 526 95 463 c 128,-1,19
 73 400 73 400 73 338 c 256,20,21
 73 276 73 276 93 213 c 128,-1,22
 113 150 113 150 152 99.5 c 128,-1,23
 191 49 191 49 248.5 17 c 128,-1,24
 306 -15 306 -15 382 -15 c 0,25,26
 417 -15 417 -15 455.5 -4 c 128,-1,27
 494 7 494 7 537 30 c 1,28,-1
 537 0 l 1,0,-1
537 180 m 1,29,30
 506 172 506 172 472.5 168.5 c 128,-1,31
 439 165 439 165 407 165 c 0,32,33
 362 165 362 165 329.5 209.5 c 128,-1,34
 297 254 297 254 297 339 c 0,35,36
 297 423 297 423 329.5 468 c 128,-1,37
 362 513 362 513 407 513 c 0,38,39
 439 513 439 513 472.5 509 c 128,-1,40
 506 505 506 505 537 497 c 1,41,-1
 537 180 l 1,29,30
EndSplineSet
Validated: 9
EndChar

StartChar: Delta
Encoding: 8710 8710 185
Width: 636
Flags: W
LayerCount: 2
Fore
SplineSet
47 0 m 1,0,-1
 589 0 l 1,1,-1
 406 672 l 1,2,-1
 228 672 l 1,3,-1
 47 0 l 1,0,-1
226 113 m 1,4,-1
 318 518 l 1,5,-1
 412 113 l 1,6,-1
 226 113 l 1,4,-1
EndSplineSet
Validated: 9
EndChar

StartChar: underscore
Encoding: 95 95 186
Width: 332
Flags: W
HStem: -15 85
VStem: 0 332
LayerCount: 2
Fore
SplineSet
0 -15 m 1,0,-1
 332 -15 l 1,1,-1
 332 70 l 1,2,-1
 0 70 l 1,3,-1
 0 -15 l 1,0,-1
EndSplineSet
Validated: 9
EndChar

StartChar: asciitilde
Encoding: 126 126 187
Width: 672
Flags: W
HStem: 292 169<358.405 478.916> 347 169<196.841 312.302>
LayerCount: 2
Fore
SplineSet
182 295 m 1,0,1
 187 312 187 312 200 329.5 c 128,-1,2
 213 347 213 347 234 347 c 0,3,4
 259 347 259 347 280.5 338.5 c 128,-1,5
 302 330 302 330 325 319.5 c 128,-1,6
 348 309 348 309 376.5 300.5 c 128,-1,7
 405 292 405 292 445 292 c 0,8,9
 496 292 496 292 537 331.5 c 128,-1,10
 578 371 578 371 608 458 c 1,11,-1
 491 506 l 1,12,13
 485 489 485 489 473 475 c 128,-1,14
 461 461 461 461 441 461 c 0,15,16
 415 461 415 461 392 469.5 c 128,-1,17
 369 478 369 478 345 488.5 c 128,-1,18
 321 499 321 499 294.5 507.5 c 128,-1,19
 268 516 268 516 235 516 c 0,20,21
 213 516 213 516 189.5 506.5 c 128,-1,22
 166 497 166 497 143.5 476 c 128,-1,23
 121 455 121 455 100.5 422 c 128,-1,24
 80 389 80 389 64 343 c 1,25,-1
 182 295 l 1,0,1
EndSplineSet
Validated: 9
EndChar

StartChar: plusminus
Encoding: 177 177 188
Width: 487
Flags: W
LayerCount: 2
Fore
SplineSet
215 91 m 1,0,-1
 274 91 l 1,1,-1
 274 315 l 1,2,-1
 487 315 l 1,3,-1
 487 371 l 1,4,-1
 274 371 l 1,5,-1
 274 592 l 1,6,-1
 215 592 l 1,7,-1
 215 371 l 1,8,-1
 0 371 l 1,9,-1
 0 315 l 1,10,-1
 215 315 l 1,11,-1
 215 91 l 1,0,-1
0 0 m 1,12,-1
 487 0 l 1,13,-1
 487 56 l 1,14,-1
 0 56 l 1,15,-1
 0 0 l 1,12,-1
EndSplineSet
Validated: 9
EndChar

StartChar: minus
Encoding: 8722 8722 189
Width: 588
Flags: W
HStem: 0 56
LayerCount: 2
Fore
SplineSet
93 0 m 1,0,-1
 496 0 l 1,1,-1
 496 56 l 1,2,-1
 93 56 l 1,3,-1
 93 0 l 1,0,-1
EndSplineSet
Validated: 9
EndChar

StartChar: breve
Encoding: 728 728 190
Width: 411
Flags: W
HStem: 562 110<161.579 249.206>
VStem: 34 111<688.503 733>
LayerCount: 2
Fore
SplineSet
145 733 m 1,0,-1
 34 733 l 1,1,2
 34 690 34 690 49 658 c 128,-1,3
 64 626 64 626 88 604.5 c 128,-1,4
 112 583 112 583 143 572.5 c 128,-1,5
 174 562 174 562 206 562 c 256,6,7
 238 562 238 562 269 572.5 c 128,-1,8
 300 583 300 583 324 604.5 c 128,-1,9
 348 626 348 626 362.5 658 c 128,-1,10
 377 690 377 690 377 733 c 1,11,-1
 264 733 l 1,12,13
 264 702 264 702 246.5 687 c 128,-1,14
 229 672 229 672 206 672 c 256,15,16
 183 672 183 672 164 688 c 128,-1,17
 145 704 145 704 145 733 c 1,0,-1
EndSplineSet
Validated: 9
EndChar

StartChar: hungarumlaut
Encoding: 733 733 191
Width: 636
Flags: W
LayerCount: 2
Fore
SplineSet
56 629 m 1,0,-1
 175 595 l 1,1,-1
 322 922 l 1,2,-1
 126 980 l 1,3,-1
 56 629 l 1,0,-1
289 649 m 1,4,-1
 400 594 l 1,5,-1
 603 890 l 1,6,-1
 420 982 l 1,7,-1
 289 649 l 1,4,-1
EndSplineSet
Validated: 9
EndChar

StartChar: ogonek
Encoding: 731 731 193
Width: 314
Flags: W
HStem: -248 52<152 246.625>
VStem: 42 109<-189.571 -103.901>
LayerCount: 2
Fore
SplineSet
247 -189 m 1,0,1
 235 -192 235 -192 223 -194 c 128,-1,2
 211 -196 211 -196 200 -196 c 0,3,4
 179 -196 179 -196 165 -188 c 128,-1,5
 151 -180 151 -180 151 -160 c 0,6,7
 151 -145 151 -145 155.5 -135 c 128,-1,8
 160 -125 160 -125 169.5 -109.5 c 128,-1,9
 179 -94 179 -94 194.5 -69 c 128,-1,10
 210 -44 210 -44 232 0 c 1,11,-1
 177 0 l 1,12,13
 143 -29 143 -29 117.5 -50.5 c 128,-1,14
 92 -72 92 -72 75.5 -90 c 128,-1,15
 59 -108 59 -108 50.5 -125 c 128,-1,16
 42 -142 42 -142 42 -162 c 0,17,18
 42 -198 42 -198 71.5 -223 c 128,-1,19
 101 -248 101 -248 152 -248 c 0,20,21
 173 -248 173 -248 197 -243 c 128,-1,22
 221 -238 221 -238 248 -226 c 1,23,-1
 247 -189 l 1,0,1
EndSplineSet
Validated: 9
EndChar

StartChar: dotaccent
Encoding: 729 729 194
Width: 308
Flags: W
HStem: 569 202<85.6758 223.324>
VStem: 42 225<610.294 728.882>
LayerCount: 2
Fore
SplineSet
42 670 m 0,0,1
 42 649 42 649 51 630.5 c 128,-1,2
 60 612 60 612 75.5 598.5 c 128,-1,3
 91 585 91 585 111.5 577 c 128,-1,4
 132 569 132 569 155 569 c 0,5,6
 177 569 177 569 197.5 577 c 128,-1,7
 218 585 218 585 233.5 598.5 c 128,-1,8
 249 612 249 612 258 630.5 c 128,-1,9
 267 649 267 649 267 670 c 0,10,11
 267 690 267 690 258 708.5 c 128,-1,12
 249 727 249 727 233.5 741 c 128,-1,13
 218 755 218 755 197.5 763 c 128,-1,14
 177 771 177 771 155 771 c 0,15,16
 132 771 132 771 111.5 763 c 128,-1,17
 91 755 91 755 75.5 741 c 128,-1,18
 60 727 60 727 51 708.5 c 128,-1,19
 42 690 42 690 42 670 c 0,0,1
EndSplineSet
Validated: 9
EndChar

StartChar: uni0311
Encoding: 785 785 201
Width: 411
Flags: W
HStem: 623 110<161.579 249.206>
VStem: 34 111<562 606.497>
LayerCount: 2
Fore
SplineSet
34 562 m 1,0,-1
 145 562 l 1,1,2
 145 591 145 591 164 607 c 128,-1,3
 183 623 183 623 206 623 c 256,4,5
 229 623 229 623 246.5 608 c 128,-1,6
 264 593 264 593 264 562 c 1,7,-1
 377 562 l 1,8,9
 377 605 377 605 362.5 637 c 128,-1,10
 348 669 348 669 324 690.5 c 128,-1,11
 300 712 300 712 269 722.5 c 128,-1,12
 238 733 238 733 206 733 c 256,13,14
 174 733 174 733 143 722.5 c 128,-1,15
 112 712 112 712 88 690.5 c 128,-1,16
 64 669 64 669 49 637 c 128,-1,17
 34 605 34 605 34 562 c 1,0,-1
EndSplineSet
Validated: 9
EndChar

StartChar: uni030F
Encoding: 783 783 214
Width: 636
Flags: W
LayerCount: 2
Fore
SplineSet
461 595 m 1,0,-1
 580 629 l 1,1,-1
 510 980 l 1,2,-1
 314 922 l 1,3,-1
 461 595 l 1,0,-1
236 594 m 1,4,-1
 347 649 l 1,5,-1
 216 982 l 1,6,-1
 33 890 l 1,7,-1
 236 594 l 1,4,-1
EndSplineSet
Validated: 9
EndChar

StartChar: lslash
Encoding: 322 322 224
Width: 442
Flags: W
HStem: -15 162<243.5 372.264> 481 20G<315.31 381> 671 20G<163.125 295>
VStem: 84 211<159.379 659>
LayerCount: 2
Fore
SplineSet
0 385 m 1,0,-1
 381 501 l 1,1,-1
 381 416 l 1,2,-1
 0 300 l 1,3,-1
 0 385 l 1,0,-1
84 659 m 1,4,-1
 295 691 l 1,5,-1
 295 199 l 2,6,7
 295 171 295 171 308.5 159 c 128,-1,8
 322 147 322 147 343 147 c 256,9,10
 364 147 364 147 386 158 c 1,11,-1
 397 19 l 1,12,13
 364 1 364 1 330.5 -7 c 128,-1,14
 297 -15 297 -15 261 -15 c 0,15,16
 226 -15 226 -15 194 -3.5 c 128,-1,17
 162 8 162 8 137.5 32 c 128,-1,18
 113 56 113 56 98.5 94 c 128,-1,19
 84 132 84 132 84 185 c 2,20,-1
 84 659 l 1,4,-1
EndSplineSet
Validated: 5
EndChar

StartChar: Lslash
Encoding: 321 321 225
Width: 571
Flags: W
HStem: 0 148<305 544> 481 20G<375.724 454> 652 20G<90 305>
VStem: 90 215<148 672>
LayerCount: 2
Fore
SplineSet
0 385 m 1,0,-1
 454 501 l 1,1,-1
 454 416 l 1,2,-1
 0 300 l 1,3,-1
 0 385 l 1,0,-1
90 672 m 1,4,-1
 305 672 l 1,5,-1
 305 148 l 1,6,-1
 544 148 l 1,7,-1
 544 0 l 1,8,-1
 305 0 l 1,9,-1
 90 0 l 1,10,-1
 90 672 l 1,4,-1
EndSplineSet
Validated: 5
EndChar

StartChar: Eth
Encoding: 208 208 227
Width: 818
Flags: W
HStem: 0 215<389 526.9>
VStem: 311 216<282.5 370> 527 230<218.816 432.66>
LayerCount: 2
Fore
SplineSet
90 0 m 1,0,-1
 389 0 l 2,1,2
 480 0 480 0 549 29 c 128,-1,3
 618 58 618 58 664.5 106 c 128,-1,4
 711 154 711 154 734 215 c 128,-1,5
 757 276 757 276 757 341 c 0,6,7
 757 403 757 403 734 462.5 c 128,-1,8
 711 522 711 522 664.5 568.5 c 128,-1,9
 618 615 618 615 549 643.5 c 128,-1,10
 480 672 480 672 389 672 c 2,11,-1
 90 672 l 1,12,-1
 90 0 l 1,0,-1
311 180 m 1,13,-1
 311 492 l 1,14,-1
 389 492 l 2,15,16
 425 492 425 492 452 479 c 128,-1,17
 479 466 479 466 496.5 444.5 c 128,-1,18
 514 423 514 423 523 396.5 c 128,-1,19
 532 370 532 370 532 343 c 0,20,21
 532 312 532 312 523 282.5 c 128,-1,22
 514 253 514 253 496 230.5 c 128,-1,23
 478 208 478 208 451 194 c 128,-1,24
 424 180 424 180 389 180 c 2,25,-1
 311 180 l 1,13,-1
290 215 m 1,26,-1
 290 300 l 1,27,-1
 527 300 l 1,28,-1
 527 215 l 1,29,-1
 290 215 l 1,26,-1
EndSplineSet
Validated: 5
EndChar

StartChar: Thorn
Encoding: 222 222 228
Width: 686
Flags: W
HStem: 166 139<305 327 347 426.63> 475 143<338 425.521>
VStem: 459 201<334.928 442.701>
LayerCount: 2
Fore
SplineSet
90 -10 m 1,0,-1
 305 0 l 1,1,-1
 305 166 l 1,2,-1
 347 166 l 2,3,4
 425 166 425 166 484 185.5 c 128,-1,5
 543 205 543 205 582 236.5 c 128,-1,6
 621 268 621 268 640.5 308.5 c 128,-1,7
 660 349 660 349 660 391 c 0,8,9
 660 435 660 435 643.5 476 c 128,-1,10
 627 517 627 517 589.5 548.5 c 128,-1,11
 552 580 552 580 490 599 c 128,-1,12
 428 618 428 618 338 618 c 2,13,-1
 305 618 l 1,14,-1
 305 672 l 1,15,-1
 90 672 l 1,16,-1
 90 -10 l 1,0,-1
305 475 m 1,17,-1
 348 475 l 2,18,19
 376 475 376 475 396.5 468 c 128,-1,20
 417 461 417 461 431 449 c 128,-1,21
 445 437 445 437 452 422 c 128,-1,22
 459 407 459 407 459 391 c 0,23,24
 459 352 459 352 430.5 328.5 c 128,-1,25
 402 305 402 305 348 305 c 0,26,27
 338 305 338 305 327 305 c 128,-1,28
 316 305 316 305 305 307 c 1,29,-1
 305 475 l 1,17,-1
EndSplineSet
Validated: 9
EndChar

StartChar: thorn
Encoding: 254 254 229
Width: 672
Flags: W
HStem: -15 166<326.633 435> 350 166<326.708 434.5>
VStem: 38 211<188.912 250 254 311.531> 448 209<189.133 311.415>
LayerCount: 2
Fore
SplineSet
38 -249 m 1,0,-1
 249 -249 l 1,1,-1
 249 93 l 1,2,3
 276 37 276 37 319 11 c 128,-1,4
 362 -15 362 -15 413 -15 c 0,5,6
 457 -15 457 -15 501 4 c 128,-1,7
 545 23 545 23 579.5 57.5 c 128,-1,8
 614 92 614 92 635.5 141 c 128,-1,9
 657 190 657 190 657 250 c 256,10,11
 657 310 657 310 635.5 359.5 c 128,-1,12
 614 409 614 409 579 443.5 c 128,-1,13
 544 478 544 478 500.5 497 c 128,-1,14
 457 516 457 516 412 516 c 0,15,16
 362 516 362 516 319 490 c 128,-1,17
 276 464 276 464 249 407 c 1,18,-1
 249 691 l 1,19,-1
 38 659 l 1,20,-1
 38 -249 l 1,0,-1
249 254 m 1,21,22
 250 273 250 273 258 290.5 c 128,-1,23
 266 308 266 308 279.5 321 c 128,-1,24
 293 334 293 334 310.5 342 c 128,-1,25
 328 350 328 350 348 350 c 0,26,27
 369 350 369 350 387 342 c 128,-1,28
 405 334 405 334 418.5 320.5 c 128,-1,29
 432 307 432 307 440 288.5 c 128,-1,30
 448 270 448 270 448 250 c 256,31,32
 448 230 448 230 440 212 c 128,-1,33
 432 194 432 194 418.5 180.5 c 128,-1,34
 405 167 405 167 387 159 c 128,-1,35
 369 151 369 151 348 151 c 0,36,37
 328 151 328 151 310 159 c 128,-1,38
 292 167 292 167 278.5 180.5 c 128,-1,39
 265 194 265 194 257 212 c 128,-1,40
 249 230 249 230 249 250 c 2,41,-1
 249 254 l 1,21,22
EndSplineSet
Validated: 9
EndChar

StartChar: Eng
Encoding: 330 330 299
Width: 832
Flags: W
HStem: -248 150<434.284 574>
LayerCount: 2
Fore
SplineSet
90 0 m 1,0,-1
 268 0 l 1,1,-1
 268 359 l 1,2,-1
 566 -15 l 1,3,4
 566 -62 566 -62 547 -80 c 128,-1,5
 528 -98 528 -98 500 -98 c 0,6,7
 483 -98 483 -98 466 -94 c 128,-1,8
 449 -90 449 -90 431 -84 c 1,9,-1
 385 -208 l 1,10,11
 424 -224 424 -224 467.5 -236 c 128,-1,12
 511 -248 511 -248 556 -248 c 0,13,14
 592 -248 592 -248 625.5 -234 c 128,-1,15
 659 -220 659 -220 685.5 -191.5 c 128,-1,16
 712 -163 712 -163 727.5 -119 c 128,-1,17
 743 -75 743 -75 743 -15 c 2,18,-1
 743 672 l 1,19,-1
 565 672 l 1,20,-1
 565 318 l 1,21,-1
 290 672 l 1,22,-1
 90 672 l 1,23,-1
 90 0 l 1,0,-1
EndSplineSet
Validated: 9
EndChar

StartChar: eng
Encoding: 331 331 300
Width: 761
Flags: W
HStem: -246 163<345.359 479.5> 350 166<390.887 493>
VStem: 469 210<-64.4304 0 250 321.768>
LayerCount: 2
Fore
SplineSet
89 0 m 1,0,-1
 300 0 l 1,1,-1
 300 254 l 1,2,3
 301 273 301 273 309 290.5 c 128,-1,4
 317 308 317 308 330.5 321 c 128,-1,5
 344 334 344 334 361.5 342 c 128,-1,6
 379 350 379 350 399 350 c 0,7,8
 428 350 428 350 448.5 320.5 c 128,-1,9
 469 291 469 291 469 250 c 2,10,-1
 469 0 l 2,11,12
 469 -47 469 -47 449.5 -65 c 128,-1,13
 430 -83 430 -83 402 -83 c 0,14,15
 385 -83 385 -83 368 -79 c 128,-1,16
 351 -75 351 -75 333 -69 c 1,17,-1
 287 -193 l 1,18,19
 366 -246 366 -246 458 -246 c 0,20,21
 501 -246 501 -246 541 -232 c 128,-1,22
 581 -218 581 -218 612 -188.5 c 128,-1,23
 643 -159 643 -159 661 -112.5 c 128,-1,24
 679 -66 679 -66 679 0 c 2,25,-1
 679 250 l 2,26,27
 679 313 679 313 661 362.5 c 128,-1,28
 643 412 643 412 614 446 c 128,-1,29
 585 480 585 480 548.5 498 c 128,-1,30
 512 516 512 516 474 516 c 0,31,32
 424 516 424 516 376.5 486 c 128,-1,33
 329 456 329 456 300 392 c 1,34,-1
 300 516 l 1,35,-1
 89 484 l 1,36,-1
 89 0 l 1,0,-1
EndSplineSet
Validated: 9
EndChar

StartChar: Tbar
Encoding: 358 358 321
Width: 622
Flags: W
LayerCount: 2
Fore
SplineSet
195 0 m 1,0,-1
 428 0 l 1,1,-1
 428 253 l 1,2,-1
 499 253 l 1,3,-1
 499 338 l 1,4,-1
 428 338 l 1,5,-1
 428 527 l 1,6,-1
 571 527 l 1,7,-1
 571 672 l 1,8,-1
 52 672 l 1,9,-1
 52 527 l 1,10,-1
 195 527 l 1,11,-1
 195 338 l 1,12,-1
 123 338 l 1,13,-1
 123 253 l 1,14,-1
 195 253 l 1,15,-1
 195 0 l 1,0,-1
EndSplineSet
Validated: 9
EndChar

StartChar: tbar
Encoding: 359 359 322
Width: 495
Flags: W
HStem: -15 162<268.5 410.141>
LayerCount: 2
Fore
SplineSet
109 185 m 2,0,1
 109 132 109 132 123 94 c 128,-1,2
 137 56 137 56 161.5 32 c 128,-1,3
 186 8 186 8 218.5 -3.5 c 128,-1,4
 251 -15 251 -15 286 -15 c 0,5,6
 324 -15 324 -15 363 -7 c 128,-1,7
 402 1 402 1 437 19 c 1,8,-1
 429 158 l 1,9,10
 418 153 418 153 406 150 c 128,-1,11
 394 147 394 147 383 147 c 0,12,13
 358 147 358 147 339 159 c 128,-1,14
 320 171 320 171 320 199 c 2,15,-1
 320 253 l 1,16,-1
 429 253 l 1,17,-1
 429 338 l 1,18,-1
 320 338 l 1,19,-1
 320 377 l 1,20,-1
 435 377 l 1,21,-1
 435 501 l 1,22,-1
 320 501 l 1,23,-1
 320 691 l 1,24,-1
 110 622 l 1,25,-1
 110 501 l 1,26,-1
 46 501 l 1,27,-1
 46 377 l 1,28,-1
 110 377 l 1,29,-1
 110 338 l 1,30,-1
 53 338 l 1,31,-1
 53 253 l 1,32,-1
 109 253 l 1,33,-1
 109 185 l 2,0,1
EndSplineSet
Validated: 9
EndChar

StartChar: multiply
Encoding: 215 215 372
Width: 487
Flags: W
LayerCount: 2
Fore
SplineSet
50 99 m 1,0,-1
 90 60 l 1,1,-1
 244 212 l 1,2,-1
 398 60 l 1,3,-1
 438 99 l 1,4,-1
 286 251 l 1,5,-1
 442 408 l 1,6,-1
 401 449 l 1,7,-1
 244 293 l 1,8,-1
 87 449 l 1,9,-1
 46 408 l 1,10,-1
 202 251 l 1,11,-1
 50 99 l 1,0,-1
EndSplineSet
Validated: 9
EndChar

StartChar: dagger
Encoding: 8224 8224 377
Width: 215
Flags: W
VStem: -11 237
LayerCount: 2
Fore
SplineSet
75 0 m 1,0,-1
 140 0 l 1,1,-1
 140 672 l 1,2,-1
 75 672 l 1,3,-1
 75 0 l 1,0,-1
-11 215 m 1,4,-1
 226 215 l 1,5,-1
 226 300 l 1,6,-1
 -11 300 l 1,7,-1
 -11 215 l 1,4,-1
EndSplineSet
Validated: 5
EndChar

StartChar: sterling
Encoding: 163 163 379
Width: 571
Flags: W
LayerCount: 2
Fore
SplineSet
90 0 m 1,0,-1
 305 0 l 1,1,-1
 544 0 l 1,2,-1
 544 148 l 1,3,-1
 305 148 l 1,4,-1
 305 672 l 1,5,-1
 90 672 l 1,6,-1
 90 0 l 1,0,-1
167 386 m 1,7,-1
 404 386 l 1,8,-1
 404 471 l 1,9,-1
 167 471 l 1,10,-1
 167 386 l 1,7,-1
EndSplineSet
Validated: 5
EndChar

StartChar: lessequal
Encoding: 8804 8804 382
Width: 215
Flags: W
LayerCount: 2
Fore
SplineSet
-83 394 m 1,0,-1
 298 171 l 1,1,-1
 298 333 l 1,2,-1
 1 474 l 1,3,-1
 298 622 l 1,4,-1
 298 773 l 1,5,-1
 -83 564 l 1,6,-1
 -83 394 l 1,0,-1
-94 0 m 1,7,-1
 309 0 l 1,8,-1
 309 56 l 1,9,-1
 -94 56 l 1,10,-1
 -94 0 l 1,7,-1
EndSplineSet
Validated: 9
EndChar

StartChar: greaterequal
Encoding: 8805 8805 383
Width: 215
Flags: W
LayerCount: 2
Fore
SplineSet
-83 171 m 1,0,-1
 298 394 l 1,1,-1
 298 564 l 1,2,-1
 -83 773 l 1,3,-1
 -83 622 l 1,4,-1
 214 474 l 1,5,-1
 -83 333 l 1,6,-1
 -83 171 l 1,0,-1
-94 0 m 1,7,-1
 309 0 l 1,8,-1
 309 56 l 1,9,-1
 -94 56 l 1,10,-1
 -94 0 l 1,7,-1
EndSplineSet
Validated: 9
EndChar

StartChar: mu
Encoding: 181 181 384
AltUni2: 0003bc.ffffffff.0
Width: 691
Flags: W
LayerCount: 2
Fore
SplineSet
80 -146 m 1,0,-1
 281 -132 l 1,1,-1
 281 12 l 1,2,3
 343 -18 343 -18 402.5 -14.5 c 128,-1,4
 462 -11 462 -11 508.5 18.5 c 128,-1,5
 555 48 555 48 583 99 c 128,-1,6
 611 150 611 150 611 215 c 2,7,-1
 611 501 l 1,8,-1
 409 501 l 1,9,-1
 409 208 l 2,10,11
 409 180 409 180 389.5 164.5 c 128,-1,12
 370 149 370 149 349 149 c 0,13,14
 338 149 338 149 326.5 151.5 c 128,-1,15
 315 154 315 154 306 158 c 0,16,17
 295 162 295 162 286 168 c 1,18,-1
 286 501 l 1,19,-1
 80 501 l 1,20,-1
 80 -146 l 1,0,-1
EndSplineSet
Validated: 41
EndChar

StartChar: pi
Encoding: 960 960 388
Width: 398
Flags: W
LayerCount: 2
Fore
SplineSet
72 185 m 2,0,1
 72 132 72 132 86.5 94 c 128,-1,2
 101 56 101 56 125.5 32 c 128,-1,3
 150 8 150 8 182 -3.5 c 128,-1,4
 214 -15 214 -15 249 -15 c 0,5,6
 283 -15 283 -15 316 -7 c 128,-1,7
 349 1 349 1 380 19 c 1,8,-1
 369 158 l 1,9,10
 347 147 347 147 326 147 c 0,11,12
 309 147 309 147 296 159 c 128,-1,13
 283 171 283 171 283 199 c 2,14,-1
 283 501 l 1,15,-1
 72 501 l 1,16,-1
 72 185 l 2,0,1
80 587 m 1,17,-1
 317 587 l 1,18,-1
 317 672 l 1,19,-1
 80 672 l 1,20,-1
 80 587 l 1,17,-1
45 185 m 2,21,22
 45 132 45 132 59.5 94 c 128,-1,23
 74 56 74 56 98.5 32 c 128,-1,24
 123 8 123 8 155 -3.5 c 128,-1,25
 187 -15 187 -15 222 -15 c 0,26,27
 256 -15 256 -15 289 -7 c 128,-1,28
 322 1 322 1 353 19 c 1,29,-1
 342 158 l 1,30,31
 320 147 320 147 299 147 c 0,32,33
 282 147 282 147 269 159 c 128,-1,34
 256 171 256 171 256 199 c 2,35,-1
 256 501 l 1,36,-1
 45 501 l 1,37,-1
 45 185 l 2,21,22
EndSplineSet
Validated: 5
EndChar

StartChar: florin
Encoding: 402 402 395
Width: 509
Flags: W
HStem: 609 159<277 416.242>
LayerCount: 2
Fore
SplineSet
113 0 m 1,0,-1
 324 0 l 1,1,-1
 324 377 l 1,2,-1
 450 377 l 1,3,-1
 450 501 l 1,4,-1
 324 501 l 1,5,-1
 324 548 l 2,6,7
 324 583 324 583 341 596 c 128,-1,8
 358 609 358 609 381 609 c 0,9,10
 398 609 398 609 417 604 c 128,-1,11
 436 599 436 599 452 594 c 1,12,-1
 459 730 l 1,13,14
 419 747 419 747 377.5 757.5 c 128,-1,15
 336 768 336 768 296 768 c 0,16,17
 258 768 258 768 225 757 c 128,-1,18
 192 746 192 746 167 721 c 128,-1,19
 142 696 142 696 127.5 655 c 128,-1,20
 113 614 113 614 113 555 c 2,21,-1
 113 501 l 1,22,-1
 51 501 l 1,23,-1
 51 377 l 1,24,-1
 113 377 l 1,25,-1
 113 0 l 1,0,-1
EndSplineSet
Validated: 9
EndChar

StartChar: Euro
Encoding: 8364 8364 406
Width: 746
Flags: W
HStem: -15 180<358.358 538.384> 240 60<0 446> 374 62<0 446> 510 181<353.973 535.698>
VStem: 55 225<301.166 373.547>
LayerCount: 2
Fore
SplineSet
0 300 m 1,0,-1
 446 300 l 1,1,-1
 446 240 l 1,2,-1
 0 240 l 1,3,-1
 0 300 l 1,0,-1
0 436 m 1,4,-1
 446 436 l 1,5,-1
 446 374 l 1,6,-1
 0 374 l 1,7,-1
 0 436 l 1,4,-1
601 36 m 1,8,9
 556 10 556 10 508.5 -2.5 c 128,-1,10
 461 -15 461 -15 413 -15 c 0,11,12
 343 -15 343 -15 278.5 10 c 128,-1,13
 214 35 214 35 164.5 81 c 128,-1,14
 115 127 115 127 85 192.5 c 128,-1,15
 55 258 55 258 55 339 c 0,16,17
 55 419 55 419 84 484 c 128,-1,18
 113 549 113 549 161.5 595 c 128,-1,19
 210 641 210 641 274 666 c 128,-1,20
 338 691 338 691 407 691 c 0,21,22
 456 691 456 691 505 678.5 c 128,-1,23
 554 666 554 666 602 638 c 1,24,-1
 575 483 l 1,25,26
 540 496 540 496 509 503 c 128,-1,27
 478 510 478 510 446 510 c 0,28,29
 372 510 372 510 326 469 c 128,-1,30
 280 428 280 428 280 340 c 0,31,32
 280 295 280 295 293 262 c 128,-1,33
 306 229 306 229 329 207.5 c 128,-1,34
 352 186 352 186 383.5 175.5 c 128,-1,35
 415 165 415 165 451 165 c 0,36,37
 482 165 482 165 512 172.5 c 128,-1,38
 542 180 542 180 575 194 c 1,39,-1
 601 36 l 1,8,9
EndSplineSet
Validated: 5
EndChar

StartChar: fi
Encoding: 64257 64257 407
Width: 869
Flags: W
HStem: -15 162<691.5 816.247> 566 202<571.676 709.324> 609 159<254 393.242>
VStem: 528 225<607.294 725.882>
LayerCount: 2
Fore
SplineSet
90 0 m 1,0,-1
 301 0 l 1,1,-1
 301 377 l 1,2,-1
 532 377 l 1,3,-1
 532 185 l 2,4,5
 532 132 532 132 546.5 94 c 128,-1,6
 561 56 561 56 585.5 32 c 128,-1,7
 610 8 610 8 642 -3.5 c 128,-1,8
 674 -15 674 -15 709 -15 c 0,9,10
 743 -15 743 -15 776 -7 c 128,-1,11
 809 1 809 1 840 19 c 1,12,-1
 829 158 l 1,13,14
 807 147 807 147 786 147 c 0,15,16
 769 147 769 147 756 159 c 128,-1,17
 743 171 743 171 743 199 c 2,18,-1
 743 501 l 1,19,-1
 301 501 l 1,20,-1
 301 548 l 2,21,22
 301 583 301 583 318 596 c 128,-1,23
 335 609 335 609 358 609 c 0,24,25
 375 609 375 609 394 604 c 128,-1,26
 413 599 413 599 429 594 c 1,27,-1
 436 730 l 1,28,29
 396 747 396 747 354.5 757.5 c 128,-1,30
 313 768 313 768 273 768 c 0,31,32
 235 768 235 768 202 757 c 128,-1,33
 169 746 169 746 144 721 c 128,-1,34
 119 696 119 696 104.5 655 c 128,-1,35
 90 614 90 614 90 555 c 2,36,-1
 90 501 l 1,37,-1
 28 501 l 1,38,-1
 28 377 l 1,39,-1
 90 377 l 1,40,-1
 90 0 l 1,0,-1
528 667 m 0,41,42
 528 646 528 646 537 627.5 c 128,-1,43
 546 609 546 609 561.5 595.5 c 128,-1,44
 577 582 577 582 597.5 574 c 128,-1,45
 618 566 618 566 641 566 c 0,46,47
 663 566 663 566 683.5 574 c 128,-1,48
 704 582 704 582 719.5 595.5 c 128,-1,49
 735 609 735 609 744 627.5 c 128,-1,50
 753 646 753 646 753 667 c 0,51,52
 753 687 753 687 744 705.5 c 128,-1,53
 735 724 735 724 719.5 738 c 128,-1,54
 704 752 704 752 683.5 760 c 128,-1,55
 663 768 663 768 641 768 c 0,56,57
 618 768 618 768 597.5 760 c 128,-1,58
 577 752 577 752 561.5 738 c 128,-1,59
 546 724 546 724 537 705.5 c 128,-1,60
 528 687 528 687 528 667 c 0,41,42
EndSplineSet
Validated: 9
EndChar

StartChar: fl
Encoding: 64258 64258 408
Width: 858
Flags: W
HStem: -15 162<677.5 806.264> 609 140<318.605 517.576>
LayerCount: 2
Fore
SplineSet
90 0 m 1,0,-1
 301 0 l 1,1,-1
 301 377 l 1,2,-1
 427 377 l 1,3,-1
 427 501 l 1,4,-1
 301 501 l 1,5,-1
 301 548 l 2,6,7
 301 566 301 566 310 578 c 128,-1,8
 319 590 319 590 333.5 597 c 128,-1,9
 348 604 348 604 367 606.5 c 128,-1,10
 386 609 386 609 406 609 c 0,11,12
 440 609 440 609 471 605 c 128,-1,13
 502 601 502 601 518 600 c 1,14,-1
 518 185 l 2,15,16
 518 132 518 132 532.5 94 c 128,-1,17
 547 56 547 56 571.5 32 c 128,-1,18
 596 8 596 8 628 -3.5 c 128,-1,19
 660 -15 660 -15 695 -15 c 0,20,21
 731 -15 731 -15 764.5 -7 c 128,-1,22
 798 1 798 1 831 19 c 1,23,-1
 820 158 l 1,24,25
 798 147 798 147 777 147 c 256,26,27
 756 147 756 147 742.5 159 c 128,-1,28
 729 171 729 171 729 199 c 2,29,-1
 729 701 l 1,30,31
 665 715 665 715 619.5 724.5 c 128,-1,32
 574 734 574 734 541 739.5 c 128,-1,33
 508 745 508 745 485 747 c 128,-1,34
 462 749 462 749 443 749 c 0,35,36
 357 749 357 749 291 739 c 128,-1,37
 225 729 225 729 180.5 706 c 128,-1,38
 136 683 136 683 113 646 c 128,-1,39
 90 609 90 609 90 555 c 2,40,-1
 90 501 l 1,41,-1
 28 501 l 1,42,-1
 28 377 l 1,43,-1
 90 377 l 1,44,-1
 90 0 l 1,0,-1
EndSplineSet
Validated: 9
EndChar

StartChar: daggerdbl
Encoding: 8225 8225 409
Width: 215
Flags: W
VStem: -45 305
LayerCount: 2
Fore
SplineSet
75 0 m 1,0,-1
 140 0 l 1,1,-1
 140 672 l 1,2,-1
 75 672 l 1,3,-1
 75 0 l 1,0,-1
-45 156 m 1,4,-1
 260 156 l 1,5,-1
 260 216 l 1,6,-1
 -45 216 l 1,7,-1
 -45 156 l 1,4,-1
-45 290 m 1,8,-1
 260 290 l 1,9,-1
 260 352 l 1,10,-1
 -45 352 l 1,11,-1
 -45 290 l 1,8,-1
EndSplineSet
Validated: 5
EndChar

StartChar: periodcentered
Encoding: 183 183 410
Width: 308
Flags: W
HStem: 300 202<85.6758 223.324>
VStem: 42 225<341.294 459.882>
LayerCount: 2
Fore
SplineSet
42 401 m 0,0,1
 42 380 42 380 51 361.5 c 128,-1,2
 60 343 60 343 75.5 329.5 c 128,-1,3
 91 316 91 316 111.5 308 c 128,-1,4
 132 300 132 300 155 300 c 0,5,6
 177 300 177 300 197.5 308 c 128,-1,7
 218 316 218 316 233.5 329.5 c 128,-1,8
 249 343 249 343 258 361.5 c 128,-1,9
 267 380 267 380 267 401 c 0,10,11
 267 421 267 421 258 439.5 c 128,-1,12
 249 458 249 458 233.5 472 c 128,-1,13
 218 486 218 486 197.5 494 c 128,-1,14
 177 502 177 502 155 502 c 0,15,16
 132 502 132 502 111.5 494 c 128,-1,17
 91 486 91 486 75.5 472 c 128,-1,18
 60 458 60 458 51 439.5 c 128,-1,19
 42 421 42 421 42 401 c 0,0,1
EndSplineSet
Validated: 9
EndChar

